M48
; DRILL file {KiCad 9.0.6} date 2026-07-12T08:03:15+0800
; FORMAT={-:-/ absolute / metric / decimal}
; #@! TF.CreationDate,2026-07-12T08:03:15+08:00
; #@! TF.GenerationSoftware,Kicad,Pcbnew,9.0.6
; #@! TF.FileFunction,Plated,1,4,PTH
FMAT,2
METRIC
; #@! TA.AperFunction,Plated,PTH,ViaDrill
T1C0.300
; #@! TA.AperFunction,Plated,PTH,ViaDrill
T2C0.400
; #@! TA.AperFunction,Plated,PTH,ViaDrill
T3C0.500
; #@! TA.AperFunction,Plated,PTH,ComponentDrill
T4C1.000
; #@! TA.AperFunction,Plated,PTH,ComponentDrill
T5C1.300
%
G90
G05
T1
X58.3Y-101.6
X60.4Y-100.5
X61.7Y-103.9
X64.7Y-99.4
X96.4Y-99.075
X98.1Y-98.475
X100.0Y-105.2
X101.6Y-107.5
X103.0Y-103.0
X106.4Y-101.8
X106.9Y-105.1
X108.5Y-97.8
X118.0Y-111.2
X120.9Y-118.236
X120.9Y-118.9
X120.9Y-123.6
X120.9Y-124.236
X121.6Y-118.236
X121.6Y-118.9
X121.6Y-123.6
X121.6Y-124.236
X130.5Y-113.5
X138.2Y-127.9
X138.2Y-128.7
X139.0Y-127.9
X139.0Y-128.7
X139.8Y-127.9
X139.8Y-128.7
X140.6Y-127.9
X140.6Y-128.7
X142.15Y-97.15
X143.0Y-96.55
X145.0Y-105.8
X146.7Y-108.1
X148.1Y-103.6
X149.9Y-101.7
X152.0Y-104.7
X153.2Y-95.8
X157.2Y-128.0
X157.2Y-128.7
X157.9Y-106.1
X157.9Y-107.3
X157.9Y-108.5
X157.9Y-109.7
X157.9Y-110.9
X157.9Y-112.1
X157.9Y-113.3
X157.9Y-114.5
X157.9Y-115.7
X157.9Y-116.9
X157.9Y-128.0
X157.9Y-128.7
X158.6Y-128.0
X158.6Y-128.7
X159.1Y-106.1
X159.1Y-107.3
X159.1Y-108.5
X159.1Y-109.7
X159.1Y-110.9
X159.1Y-112.1
X159.1Y-113.3
X159.1Y-114.5
X159.1Y-115.7
X159.1Y-116.9
X159.3Y-128.0
X159.3Y-128.7
X160.3Y-106.1
X160.3Y-107.3
X160.3Y-108.5
X160.3Y-109.7
X160.3Y-110.9
X160.3Y-112.1
X160.3Y-113.3
X160.3Y-114.5
X160.3Y-115.7
X160.3Y-116.9
X161.5Y-106.1
X161.5Y-107.3
X161.5Y-108.5
X161.5Y-109.7
X161.5Y-110.9
X161.5Y-112.1
X161.5Y-113.3
X161.5Y-114.5
X161.5Y-115.7
X161.5Y-116.9
X161.7Y-124.3
X162.4Y-124.3
X162.7Y-106.1
X162.7Y-107.3
X162.7Y-108.5
X162.7Y-109.7
X162.7Y-110.9
X162.7Y-112.1
X162.7Y-113.3
X162.7Y-114.5
X162.7Y-115.7
X162.7Y-116.9
X163.9Y-106.1
X163.9Y-107.3
X163.9Y-108.5
X163.9Y-109.7
X163.9Y-110.9
X163.9Y-112.1
X163.9Y-113.3
X163.9Y-114.5
X163.9Y-115.7
X163.9Y-116.9
X165.1Y-106.1
X165.1Y-107.3
X165.1Y-108.5
X165.1Y-109.7
X165.1Y-110.9
X165.1Y-112.1
X165.1Y-113.3
X165.1Y-114.5
X165.1Y-115.7
X165.1Y-116.9
X166.3Y-106.1
X166.3Y-107.3
X166.3Y-108.5
X166.3Y-109.7
X166.3Y-110.9
X166.3Y-112.1
X166.3Y-113.3
X166.3Y-114.5
X166.3Y-115.7
X166.3Y-116.9
X167.3Y-125.5
X167.3Y-126.3
X168.2Y-125.5
X168.2Y-126.3
X169.1Y-125.5
X169.1Y-126.3
X169.7Y-107.099
X170.0Y-125.5
X170.0Y-126.3
X174.4Y-93.4
X174.4Y-94.1
X174.4Y-128.0
X174.4Y-128.7
X175.1Y-128.0
X175.1Y-128.7
X175.8Y-128.0
X175.8Y-128.7
X176.5Y-128.0
X176.5Y-128.7
X178.9Y-102.3
X179.775Y-102.033
X180.024Y-97.454
X180.4Y-92.4
X180.4Y-93.1
X180.4Y-93.8
X180.5Y-102.9
X181.4Y-102.67
X182.5Y-96.9
X183.4Y-97.4
X183.7Y-113.1
X183.7Y-113.9
X184.3Y-96.9
X185.9Y-108.6
X186.3Y-110.6
X187.7Y-95.4
X190.9Y-98.175
X192.2Y-105.7
X194.6Y-103.6
X196.9Y-106.6
X197.4Y-118.8
X198.0Y-118.1
X198.7Y-119.425
X199.9Y-106.6
X201.8Y-104.6
X202.4Y-95.3
X204.1Y-103.7
X204.2Y-93.4
X205.4Y-129.7
X206.824Y-104.48
X207.377Y-103.897
X210.4Y-124.2
X211.4Y-117.1
X212.025Y-118.0
X212.7Y-118.7
X212.8Y-93.5
X213.5Y-119.5
X213.6Y-98.1
X214.2Y-120.3
X214.3Y-101.3
X215.0Y-98.7
X215.0Y-111.5
X215.2Y-115.1
X215.56Y-119.375
X215.56Y-120.775
X215.56Y-122.275
X215.7Y-99.4
X216.4Y-100.2
X216.4Y-111.5
X216.5Y-115.1
X217.06Y-119.375
X217.06Y-120.775
X217.06Y-122.275
X217.087Y-97.4
X217.792Y-115.108
X218.0Y-100.8
X218.0Y-111.6
X218.46Y-119.375
X218.46Y-120.775
X218.46Y-122.275
X218.674Y-110.1
X219.7Y-107.3
X220.91Y-109.8
X222.4Y-95.2
X224.7Y-129.7
X227.0Y-124.2
X229.2Y-126.0
X231.8Y-107.7
X231.8Y-109.8
X233.7Y-100.4
X233.7Y-107.5
X238.2Y-125.5
X238.2Y-126.3
X238.9Y-125.5
X238.9Y-126.3
X239.62Y-125.5
X239.62Y-126.3
T2
X57.3Y-102.2
X59.5Y-99.8
X61.2Y-102.9
X64.8Y-111.9
X64.8Y-116.7
X64.8Y-123.8
X65.5Y-114.3
X65.8Y-107.5
X66.0Y-113.1
X66.0Y-119.2
X66.0Y-122.2
X67.3Y-116.4
X67.3Y-118.2
X67.3Y-120.0
X67.3Y-123.8
X67.7Y-107.5
X68.4Y-122.2
X78.5Y-93.7
X78.5Y-96.1
X78.5Y-98.5
X79.7Y-94.9
X79.7Y-97.3
X80.0Y-105.0
X80.9Y-93.7
X80.9Y-96.1
X80.9Y-98.5
X82.1Y-94.9
X82.1Y-97.3
X82.5Y-109.3
X82.5Y-110.5
X82.5Y-111.7
X83.3Y-93.7
X83.3Y-96.1
X83.3Y-98.5
X83.6Y-106.2
X84.5Y-94.9
X84.5Y-97.3
X85.7Y-93.7
X85.7Y-96.1
X85.7Y-98.5
X86.3Y-107.9
X86.3Y-108.9
X86.3Y-109.9
X86.3Y-110.9
X86.4Y-114.5
X86.4Y-117.0
X86.4Y-119.5
X86.4Y-121.7
X86.9Y-94.9
X86.9Y-97.3
X88.1Y-93.7
X88.1Y-96.1
X88.1Y-98.5
X89.0Y-104.4
X89.0Y-106.8
X89.0Y-109.2
X89.0Y-111.5
X89.0Y-113.9
X89.0Y-116.3
X89.0Y-118.7
X89.0Y-121.1
X89.0Y-123.5
X89.3Y-94.9
X89.3Y-97.3
X90.2Y-105.6
X90.2Y-108.0
X90.2Y-110.3
X90.2Y-112.7
X90.2Y-115.1
X90.2Y-117.5
X90.2Y-119.9
X90.2Y-122.3
X90.5Y-93.7
X90.5Y-96.1
X90.5Y-98.5
X91.4Y-104.4
X91.4Y-106.8
X91.4Y-109.2
X91.4Y-111.5
X91.4Y-113.9
X91.4Y-116.3
X91.4Y-118.7
X91.4Y-121.1
X91.4Y-123.5
X91.7Y-94.9
X91.7Y-97.3
X92.6Y-105.6
X92.6Y-108.0
X92.6Y-110.3
X92.6Y-112.7
X92.6Y-115.1
X92.6Y-117.5
X92.6Y-119.9
X92.6Y-122.3
X92.9Y-93.7
X92.9Y-96.1
X92.9Y-98.5
X93.8Y-104.4
X93.8Y-106.8
X93.8Y-109.2
X93.8Y-111.5
X93.8Y-113.9
X93.8Y-116.3
X93.8Y-118.7
X93.8Y-121.1
X93.8Y-123.5
X94.1Y-94.9
X94.1Y-97.3
X99.3Y-104.3
X101.2Y-106.4
X103.4Y-101.9
X106.2Y-104.2
X107.0Y-100.8
X110.6Y-108.7
X110.6Y-111.1
X110.6Y-113.5
X110.6Y-115.8
X110.6Y-118.2
X110.6Y-120.6
X112.3Y-117.0
X112.3Y-119.4
X112.3Y-122.2
X113.6Y-114.8
X113.854Y-120.736
X115.6Y-114.8
X116.5Y-121.2
X119.0Y-121.2
X122.8Y-121.2
X130.934Y-112.266
X133.7Y-111.5
X133.7Y-114.1
X133.7Y-116.5
X133.7Y-118.9
X134.8Y-122.1
X134.9Y-112.9
X134.9Y-115.3
X134.9Y-117.7
X136.0Y-114.1
X136.0Y-116.5
X136.0Y-118.9
X144.4Y-104.8
X146.4Y-107.0
X148.6Y-102.6
X149.9Y-100.6
X151.8Y-103.6
X155.1Y-95.1
X156.3Y-93.9
X157.5Y-95.1
X158.7Y-93.9
X159.9Y-95.1
X161.1Y-93.9
X162.3Y-95.1
X163.5Y-93.9
X164.7Y-95.1
X165.9Y-93.9
X167.1Y-95.1
X168.3Y-93.9
X169.5Y-95.1
X170.7Y-93.9
X185.2Y-107.7
X185.8Y-111.6
X191.5Y-104.8
X193.9Y-104.5
X197.5Y-105.6
X198.6Y-94.8
X198.7Y-93.0
X199.5Y-122.85
X199.9Y-94.2
X200.5Y-105.7
X201.1Y-94.2
X202.9Y-104.8
X205.1Y-104.2
X205.1Y-113.4
X205.1Y-114.4
X205.1Y-115.4
X205.1Y-116.4
X205.7Y-109.9
X206.1Y-105.2
X208.1Y-103.2
X212.0Y-109.9
X219.8Y-106.3
X221.0Y-108.8
X224.8Y-94.5
X225.9Y-112.4
X225.9Y-113.35
X226.0Y-93.3
X226.185Y-111.485
X227.2Y-94.5
X228.4Y-93.3
X229.3Y-93.8
X234.0Y-94.0
T3
X71.9Y-131.2
X71.9Y-132.6
X71.9Y-134.0
X73.3Y-131.2
X73.3Y-134.0
X74.7Y-131.2
X74.7Y-132.6
X74.7Y-134.0
X76.1Y-131.2
X76.1Y-134.0
X77.5Y-131.2
X77.5Y-134.0
X78.9Y-131.2
X78.9Y-132.6
X78.9Y-134.0
X80.3Y-131.2
X80.3Y-134.0
X81.7Y-131.2
X81.7Y-132.6
X81.7Y-134.0
X111.6Y-131.4
X111.6Y-132.8
X111.6Y-134.2
X113.0Y-131.4
X113.0Y-134.2
X114.4Y-131.4
X114.4Y-132.8
X114.4Y-134.2
X115.8Y-131.4
X115.8Y-134.2
X117.2Y-131.4
X117.2Y-134.2
X118.6Y-131.4
X118.6Y-132.8
X118.6Y-134.2
X120.0Y-131.4
X120.0Y-134.2
X121.4Y-131.4
X121.4Y-132.8
X121.4Y-134.2
T4
X60.0Y-110.64
X60.0Y-113.18
X60.0Y-115.72
X60.0Y-118.26
X60.0Y-120.8
X60.0Y-123.34
X60.0Y-125.88
X60.0Y-128.42
X60.0Y-130.96
X60.0Y-133.5
X100.0Y-110.64
X100.0Y-113.18
X100.0Y-115.72
X100.0Y-118.26
X100.0Y-120.8
X100.0Y-123.34
X100.0Y-125.88
X100.0Y-128.42
X100.0Y-130.96
X100.0Y-133.5
X105.0Y-110.64
X105.0Y-113.18
X105.0Y-115.72
X105.0Y-118.26
X105.0Y-120.8
X105.0Y-123.34
X105.0Y-125.88
X105.0Y-128.42
X105.0Y-130.96
X105.0Y-133.5
X145.0Y-110.64
X145.0Y-113.18
X145.0Y-115.72
X145.0Y-118.26
X145.0Y-120.8
X145.0Y-123.34
X145.0Y-125.88
X145.0Y-128.42
X145.0Y-130.96
X145.0Y-133.5
X150.0Y-110.64
X150.0Y-113.18
X150.0Y-115.72
X150.0Y-118.26
X150.0Y-120.8
X150.0Y-123.34
X150.0Y-125.88
X150.0Y-128.42
X150.0Y-130.96
X150.0Y-133.5
X190.0Y-110.64
X190.0Y-113.18
X190.0Y-115.72
X190.0Y-118.26
X190.0Y-120.8
X190.0Y-123.34
X190.0Y-125.88
X190.0Y-128.42
X190.0Y-130.96
X190.0Y-133.5
X195.0Y-110.64
X195.0Y-113.18
X195.0Y-115.72
X195.0Y-118.26
X195.0Y-120.8
X195.0Y-123.34
X195.0Y-125.88
X195.0Y-128.42
X195.0Y-130.96
X195.0Y-133.5
X235.0Y-110.64
X235.0Y-113.18
X235.0Y-115.72
X235.0Y-118.26
X235.0Y-120.8
X235.0Y-123.34
X235.0Y-125.88
X235.0Y-128.42
X235.0Y-130.96
X235.0Y-133.5
T5
X62.832Y-97.206
X67.912Y-97.206
M30
