%TF.GenerationSoftware,KiCad,Pcbnew,9.0.6*%
%TF.CreationDate,2026-07-29T17:56:45+08:00*%
%TF.ProjectId,MQTT-ModularControllerBoard,4d515454-2d4d-46f6-9475-6c6172436f6e,1.0*%
%TF.SameCoordinates,Original*%
%TF.FileFunction,Soldermask,Top*%
%TF.FilePolarity,Negative*%
%FSLAX45Y45*%
G04 Gerber Fmt 4.5, Leading zero omitted, Abs format (unit mm)*
G04 Created by KiCad (PCBNEW 9.0.6) date 2026-07-29 17:56:45*
%MOMM*%
%LPD*%
G01*
G04 APERTURE LIST*
G04 APERTURE END LIST*
G36*
X6088827Y-13255761D02*
G01*
X6092071Y-13257929D01*
X6094239Y-13261173D01*
X6095000Y-13265000D01*
X6095000Y-13435000D01*
X6094239Y-13438827D01*
X6092071Y-13442071D01*
X6088827Y-13444239D01*
X6085000Y-13445000D01*
X5915000Y-13445000D01*
X5911173Y-13444239D01*
X5907929Y-13442071D01*
X5905761Y-13438827D01*
X5905000Y-13435000D01*
X5905000Y-13265000D01*
X5905761Y-13261173D01*
X5907929Y-13257929D01*
X5911173Y-13255761D01*
X5915000Y-13255000D01*
X6085000Y-13255000D01*
X6088827Y-13255761D01*
G37*
G36*
X10088827Y-13255761D02*
G01*
X10092071Y-13257929D01*
X10094239Y-13261173D01*
X10095000Y-13265000D01*
X10095000Y-13435000D01*
X10094239Y-13438827D01*
X10092071Y-13442071D01*
X10088827Y-13444239D01*
X10085000Y-13445000D01*
X9915000Y-13445000D01*
X9911173Y-13444239D01*
X9907929Y-13442071D01*
X9905761Y-13438827D01*
X9905000Y-13435000D01*
X9905000Y-13265000D01*
X9905761Y-13261173D01*
X9907929Y-13257929D01*
X9911173Y-13255761D01*
X9915000Y-13255000D01*
X10085000Y-13255000D01*
X10088827Y-13255761D01*
G37*
G36*
X10588827Y-13255761D02*
G01*
X10592071Y-13257929D01*
X10594239Y-13261173D01*
X10595000Y-13265000D01*
X10595000Y-13435000D01*
X10594239Y-13438827D01*
X10592071Y-13442071D01*
X10588827Y-13444239D01*
X10585000Y-13445000D01*
X10415000Y-13445000D01*
X10411173Y-13444239D01*
X10407929Y-13442071D01*
X10405761Y-13438827D01*
X10405000Y-13435000D01*
X10405000Y-13265000D01*
X10405761Y-13261173D01*
X10407929Y-13257929D01*
X10411173Y-13255761D01*
X10415000Y-13255000D01*
X10585000Y-13255000D01*
X10588827Y-13255761D01*
G37*
G36*
X14588827Y-13255761D02*
G01*
X14592071Y-13257929D01*
X14594239Y-13261173D01*
X14595000Y-13265000D01*
X14595000Y-13435000D01*
X14594239Y-13438827D01*
X14592071Y-13442071D01*
X14588827Y-13444239D01*
X14585000Y-13445000D01*
X14415000Y-13445000D01*
X14411173Y-13444239D01*
X14407929Y-13442071D01*
X14405761Y-13438827D01*
X14405000Y-13435000D01*
X14405000Y-13265000D01*
X14405761Y-13261173D01*
X14407929Y-13257929D01*
X14411173Y-13255761D01*
X14415000Y-13255000D01*
X14585000Y-13255000D01*
X14588827Y-13255761D01*
G37*
G36*
X15088827Y-13255761D02*
G01*
X15092071Y-13257929D01*
X15094239Y-13261173D01*
X15095000Y-13265000D01*
X15095000Y-13435000D01*
X15094239Y-13438827D01*
X15092071Y-13442071D01*
X15088827Y-13444239D01*
X15085000Y-13445000D01*
X14915000Y-13445000D01*
X14911173Y-13444239D01*
X14907929Y-13442071D01*
X14905761Y-13438827D01*
X14905000Y-13435000D01*
X14905000Y-13265000D01*
X14905761Y-13261173D01*
X14907929Y-13257929D01*
X14911173Y-13255761D01*
X14915000Y-13255000D01*
X15085000Y-13255000D01*
X15088827Y-13255761D01*
G37*
G36*
X19088827Y-13255761D02*
G01*
X19092071Y-13257929D01*
X19094239Y-13261173D01*
X19095000Y-13265000D01*
X19095000Y-13435000D01*
X19094239Y-13438827D01*
X19092071Y-13442071D01*
X19088827Y-13444239D01*
X19085000Y-13445000D01*
X18915000Y-13445000D01*
X18911173Y-13444239D01*
X18907929Y-13442071D01*
X18905761Y-13438827D01*
X18905000Y-13435000D01*
X18905000Y-13265000D01*
X18905761Y-13261173D01*
X18907929Y-13257929D01*
X18911173Y-13255761D01*
X18915000Y-13255000D01*
X19085000Y-13255000D01*
X19088827Y-13255761D01*
G37*
G36*
X19588827Y-13255761D02*
G01*
X19592071Y-13257929D01*
X19594239Y-13261173D01*
X19595000Y-13265000D01*
X19595000Y-13435000D01*
X19594239Y-13438827D01*
X19592071Y-13442071D01*
X19588827Y-13444239D01*
X19585000Y-13445000D01*
X19415000Y-13445000D01*
X19411173Y-13444239D01*
X19407929Y-13442071D01*
X19405761Y-13438827D01*
X19405000Y-13435000D01*
X19405000Y-13265000D01*
X19405761Y-13261173D01*
X19407929Y-13257929D01*
X19411173Y-13255761D01*
X19415000Y-13255000D01*
X19585000Y-13255000D01*
X19588827Y-13255761D01*
G37*
G36*
X23588827Y-13255761D02*
G01*
X23592071Y-13257929D01*
X23594239Y-13261173D01*
X23595000Y-13265000D01*
X23595000Y-13435000D01*
X23594239Y-13438827D01*
X23592071Y-13442071D01*
X23588827Y-13444239D01*
X23585000Y-13445000D01*
X23415000Y-13445000D01*
X23411173Y-13444239D01*
X23407929Y-13442071D01*
X23405761Y-13438827D01*
X23405000Y-13435000D01*
X23405000Y-13265000D01*
X23405761Y-13261173D01*
X23407929Y-13257929D01*
X23411173Y-13255761D01*
X23415000Y-13255000D01*
X23585000Y-13255000D01*
X23588827Y-13255761D01*
G37*
G36*
X5386092Y-12868555D02*
G01*
X5409466Y-12874818D01*
X5431823Y-12884078D01*
X5452781Y-12896178D01*
X5471979Y-12910910D01*
X5489090Y-12928021D01*
X5503822Y-12947219D01*
X5515922Y-12968177D01*
X5525182Y-12990534D01*
X5531445Y-13013908D01*
X5534604Y-13037900D01*
X5534604Y-13062100D01*
X5531445Y-13086092D01*
X5525182Y-13109466D01*
X5515922Y-13131823D01*
X5503822Y-13152780D01*
X5489090Y-13171979D01*
X5471979Y-13189090D01*
X5452781Y-13203822D01*
X5431823Y-13215921D01*
X5409466Y-13225182D01*
X5386092Y-13231445D01*
X5362100Y-13234604D01*
X5337900Y-13234604D01*
X5313908Y-13231445D01*
X5290534Y-13225182D01*
X5268177Y-13215921D01*
X5247220Y-13203822D01*
X5228021Y-13189090D01*
X5210910Y-13171979D01*
X5196178Y-13152780D01*
X5184079Y-13131823D01*
X5174818Y-13109466D01*
X5168555Y-13086092D01*
X5165396Y-13062100D01*
X5165396Y-13037900D01*
X5168555Y-13013908D01*
X5174818Y-12990534D01*
X5184079Y-12968177D01*
X5196178Y-12947219D01*
X5210910Y-12928021D01*
X5228021Y-12910910D01*
X5247220Y-12896178D01*
X5268177Y-12884078D01*
X5290534Y-12874818D01*
X5313908Y-12868555D01*
X5337900Y-12865396D01*
X5362100Y-12865396D01*
X5386092Y-12868555D01*
G37*
G36*
X24186092Y-12868555D02*
G01*
X24209466Y-12874818D01*
X24231823Y-12884078D01*
X24252780Y-12896178D01*
X24271979Y-12910910D01*
X24289090Y-12928021D01*
X24303822Y-12947219D01*
X24315921Y-12968177D01*
X24325182Y-12990534D01*
X24331445Y-13013908D01*
X24334604Y-13037900D01*
X24334604Y-13062100D01*
X24331445Y-13086092D01*
X24325182Y-13109466D01*
X24315921Y-13131823D01*
X24303822Y-13152780D01*
X24289090Y-13171979D01*
X24271979Y-13189090D01*
X24252780Y-13203822D01*
X24231823Y-13215921D01*
X24209466Y-13225182D01*
X24186092Y-13231445D01*
X24162100Y-13234604D01*
X24137900Y-13234604D01*
X24113908Y-13231445D01*
X24090534Y-13225182D01*
X24068177Y-13215921D01*
X24047219Y-13203822D01*
X24028021Y-13189090D01*
X24010910Y-13171979D01*
X23996178Y-13152780D01*
X23984078Y-13131823D01*
X23974818Y-13109466D01*
X23968555Y-13086092D01*
X23965396Y-13062100D01*
X23965396Y-13037900D01*
X23968555Y-13013908D01*
X23974818Y-12990534D01*
X23984078Y-12968177D01*
X23996178Y-12947219D01*
X24010910Y-12928021D01*
X24028021Y-12910910D01*
X24047219Y-12896178D01*
X24068177Y-12884078D01*
X24090534Y-12874818D01*
X24113908Y-12868555D01*
X24137900Y-12865396D01*
X24162100Y-12865396D01*
X24186092Y-12868555D01*
G37*
G36*
X6027577Y-13005091D02*
G01*
X6044783Y-13012217D01*
X6060267Y-13022564D01*
X6073436Y-13035733D01*
X6083782Y-13051217D01*
X6090909Y-13068423D01*
X6094542Y-13086688D01*
X6094542Y-13105312D01*
X6090909Y-13123577D01*
X6083782Y-13140783D01*
X6073436Y-13156267D01*
X6060267Y-13169436D01*
X6044783Y-13179782D01*
X6027577Y-13186909D01*
X6009312Y-13190542D01*
X5990688Y-13190542D01*
X5972423Y-13186909D01*
X5955217Y-13179782D01*
X5939733Y-13169436D01*
X5926564Y-13156267D01*
X5916217Y-13140783D01*
X5909091Y-13123577D01*
X5905457Y-13105312D01*
X5905457Y-13086688D01*
X5909091Y-13068423D01*
X5916217Y-13051217D01*
X5926564Y-13035733D01*
X5939733Y-13022564D01*
X5955217Y-13012217D01*
X5972423Y-13005091D01*
X5990688Y-13001457D01*
X6009312Y-13001457D01*
X6027577Y-13005091D01*
G37*
G36*
X10027577Y-13005091D02*
G01*
X10044783Y-13012217D01*
X10060267Y-13022564D01*
X10073436Y-13035733D01*
X10083783Y-13051217D01*
X10090909Y-13068423D01*
X10094543Y-13086688D01*
X10094543Y-13105312D01*
X10090909Y-13123577D01*
X10083783Y-13140783D01*
X10073436Y-13156267D01*
X10060267Y-13169436D01*
X10044783Y-13179782D01*
X10027577Y-13186909D01*
X10009312Y-13190542D01*
X9990688Y-13190542D01*
X9972423Y-13186909D01*
X9955217Y-13179782D01*
X9939733Y-13169436D01*
X9926564Y-13156267D01*
X9916218Y-13140783D01*
X9909091Y-13123577D01*
X9905458Y-13105312D01*
X9905458Y-13086688D01*
X9909091Y-13068423D01*
X9916218Y-13051217D01*
X9926564Y-13035733D01*
X9939733Y-13022564D01*
X9955217Y-13012217D01*
X9972423Y-13005091D01*
X9990688Y-13001457D01*
X10009312Y-13001457D01*
X10027577Y-13005091D01*
G37*
G36*
X10527577Y-13005091D02*
G01*
X10544783Y-13012217D01*
X10560267Y-13022564D01*
X10573436Y-13035733D01*
X10583783Y-13051217D01*
X10590909Y-13068423D01*
X10594543Y-13086688D01*
X10594543Y-13105312D01*
X10590909Y-13123577D01*
X10583783Y-13140783D01*
X10573436Y-13156267D01*
X10560267Y-13169436D01*
X10544783Y-13179782D01*
X10527577Y-13186909D01*
X10509312Y-13190542D01*
X10490688Y-13190542D01*
X10472423Y-13186909D01*
X10455217Y-13179782D01*
X10439733Y-13169436D01*
X10426564Y-13156267D01*
X10416218Y-13140783D01*
X10409091Y-13123577D01*
X10405458Y-13105312D01*
X10405458Y-13086688D01*
X10409091Y-13068423D01*
X10416218Y-13051217D01*
X10426564Y-13035733D01*
X10439733Y-13022564D01*
X10455217Y-13012217D01*
X10472423Y-13005091D01*
X10490688Y-13001457D01*
X10509312Y-13001457D01*
X10527577Y-13005091D01*
G37*
G36*
X14527577Y-13005091D02*
G01*
X14544783Y-13012217D01*
X14560267Y-13022564D01*
X14573436Y-13035733D01*
X14583782Y-13051217D01*
X14590909Y-13068423D01*
X14594542Y-13086688D01*
X14594542Y-13105312D01*
X14590909Y-13123577D01*
X14583782Y-13140783D01*
X14573436Y-13156267D01*
X14560267Y-13169436D01*
X14544783Y-13179782D01*
X14527577Y-13186909D01*
X14509312Y-13190542D01*
X14490688Y-13190542D01*
X14472423Y-13186909D01*
X14455217Y-13179782D01*
X14439733Y-13169436D01*
X14426564Y-13156267D01*
X14416217Y-13140783D01*
X14409091Y-13123577D01*
X14405457Y-13105312D01*
X14405457Y-13086688D01*
X14409091Y-13068423D01*
X14416217Y-13051217D01*
X14426564Y-13035733D01*
X14439733Y-13022564D01*
X14455217Y-13012217D01*
X14472423Y-13005091D01*
X14490688Y-13001457D01*
X14509312Y-13001457D01*
X14527577Y-13005091D01*
G37*
G36*
X15027577Y-13005091D02*
G01*
X15044783Y-13012217D01*
X15060267Y-13022564D01*
X15073436Y-13035733D01*
X15083782Y-13051217D01*
X15090909Y-13068423D01*
X15094542Y-13086688D01*
X15094542Y-13105312D01*
X15090909Y-13123577D01*
X15083782Y-13140783D01*
X15073436Y-13156267D01*
X15060267Y-13169436D01*
X15044783Y-13179782D01*
X15027577Y-13186909D01*
X15009312Y-13190542D01*
X14990688Y-13190542D01*
X14972423Y-13186909D01*
X14955217Y-13179782D01*
X14939733Y-13169436D01*
X14926564Y-13156267D01*
X14916217Y-13140783D01*
X14909091Y-13123577D01*
X14905457Y-13105312D01*
X14905457Y-13086688D01*
X14909091Y-13068423D01*
X14916217Y-13051217D01*
X14926564Y-13035733D01*
X14939733Y-13022564D01*
X14955217Y-13012217D01*
X14972423Y-13005091D01*
X14990688Y-13001457D01*
X15009312Y-13001457D01*
X15027577Y-13005091D01*
G37*
G36*
X19027577Y-13005091D02*
G01*
X19044783Y-13012217D01*
X19060267Y-13022564D01*
X19073436Y-13035733D01*
X19083783Y-13051217D01*
X19090909Y-13068423D01*
X19094543Y-13086688D01*
X19094543Y-13105312D01*
X19090909Y-13123577D01*
X19083783Y-13140783D01*
X19073436Y-13156267D01*
X19060267Y-13169436D01*
X19044783Y-13179782D01*
X19027577Y-13186909D01*
X19009312Y-13190542D01*
X18990688Y-13190542D01*
X18972423Y-13186909D01*
X18955217Y-13179782D01*
X18939733Y-13169436D01*
X18926564Y-13156267D01*
X18916218Y-13140783D01*
X18909091Y-13123577D01*
X18905458Y-13105312D01*
X18905458Y-13086688D01*
X18909091Y-13068423D01*
X18916218Y-13051217D01*
X18926564Y-13035733D01*
X18939733Y-13022564D01*
X18955217Y-13012217D01*
X18972423Y-13005091D01*
X18990688Y-13001457D01*
X19009312Y-13001457D01*
X19027577Y-13005091D01*
G37*
G36*
X19527577Y-13005091D02*
G01*
X19544783Y-13012217D01*
X19560267Y-13022564D01*
X19573436Y-13035733D01*
X19583783Y-13051217D01*
X19590909Y-13068423D01*
X19594543Y-13086688D01*
X19594543Y-13105312D01*
X19590909Y-13123577D01*
X19583783Y-13140783D01*
X19573436Y-13156267D01*
X19560267Y-13169436D01*
X19544783Y-13179782D01*
X19527577Y-13186909D01*
X19509312Y-13190542D01*
X19490688Y-13190542D01*
X19472423Y-13186909D01*
X19455217Y-13179782D01*
X19439733Y-13169436D01*
X19426564Y-13156267D01*
X19416218Y-13140783D01*
X19409091Y-13123577D01*
X19405458Y-13105312D01*
X19405458Y-13086688D01*
X19409091Y-13068423D01*
X19416218Y-13051217D01*
X19426564Y-13035733D01*
X19439733Y-13022564D01*
X19455217Y-13012217D01*
X19472423Y-13005091D01*
X19490688Y-13001457D01*
X19509312Y-13001457D01*
X19527577Y-13005091D01*
G37*
G36*
X23527577Y-13005091D02*
G01*
X23544783Y-13012217D01*
X23560267Y-13022564D01*
X23573436Y-13035733D01*
X23583782Y-13051217D01*
X23590909Y-13068423D01*
X23594542Y-13086688D01*
X23594542Y-13105312D01*
X23590909Y-13123577D01*
X23583782Y-13140783D01*
X23573436Y-13156267D01*
X23560267Y-13169436D01*
X23544783Y-13179782D01*
X23527577Y-13186909D01*
X23509312Y-13190542D01*
X23490688Y-13190542D01*
X23472423Y-13186909D01*
X23455217Y-13179782D01*
X23439733Y-13169436D01*
X23426564Y-13156267D01*
X23416217Y-13140783D01*
X23409091Y-13123577D01*
X23405457Y-13105312D01*
X23405457Y-13086688D01*
X23409091Y-13068423D01*
X23416217Y-13051217D01*
X23426564Y-13035733D01*
X23439733Y-13022564D01*
X23455217Y-13012217D01*
X23472423Y-13005091D01*
X23490688Y-13001457D01*
X23509312Y-13001457D01*
X23527577Y-13005091D01*
G37*
G36*
X20869827Y-13020761D02*
G01*
X20873071Y-13022929D01*
X20875239Y-13026173D01*
X20876000Y-13030000D01*
X20876000Y-13180000D01*
X20875239Y-13183827D01*
X20873071Y-13187071D01*
X20869827Y-13189239D01*
X20866000Y-13190000D01*
X20776000Y-13190000D01*
X20772173Y-13189239D01*
X20768929Y-13187071D01*
X20766761Y-13183827D01*
X20766000Y-13180000D01*
X20766000Y-13030000D01*
X20766761Y-13026173D01*
X20768929Y-13022929D01*
X20772173Y-13020761D01*
X20776000Y-13020000D01*
X20866000Y-13020000D01*
X20869827Y-13020761D01*
G37*
G36*
X20996827Y-13020761D02*
G01*
X21000071Y-13022929D01*
X21002239Y-13026173D01*
X21003000Y-13030000D01*
X21003000Y-13180000D01*
X21002239Y-13183827D01*
X21000071Y-13187071D01*
X20996827Y-13189239D01*
X20993000Y-13190000D01*
X20903000Y-13190000D01*
X20899173Y-13189239D01*
X20895929Y-13187071D01*
X20893761Y-13183827D01*
X20893000Y-13180000D01*
X20893000Y-13030000D01*
X20893761Y-13026173D01*
X20895929Y-13022929D01*
X20899173Y-13020761D01*
X20903000Y-13020000D01*
X20993000Y-13020000D01*
X20996827Y-13020761D01*
G37*
G36*
X21123827Y-13020761D02*
G01*
X21127071Y-13022929D01*
X21129239Y-13026173D01*
X21130000Y-13030000D01*
X21130000Y-13180000D01*
X21129239Y-13183827D01*
X21127071Y-13187071D01*
X21123827Y-13189239D01*
X21120000Y-13190000D01*
X21030000Y-13190000D01*
X21026173Y-13189239D01*
X21022929Y-13187071D01*
X21020761Y-13183827D01*
X21020000Y-13180000D01*
X21020000Y-13030000D01*
X21020761Y-13026173D01*
X21022929Y-13022929D01*
X21026173Y-13020761D01*
X21030000Y-13020000D01*
X21120000Y-13020000D01*
X21123827Y-13020761D01*
G37*
G36*
X21250827Y-13020761D02*
G01*
X21254071Y-13022929D01*
X21256239Y-13026173D01*
X21257000Y-13030000D01*
X21257000Y-13180000D01*
X21256239Y-13183827D01*
X21254071Y-13187071D01*
X21250827Y-13189239D01*
X21247000Y-13190000D01*
X21157000Y-13190000D01*
X21153173Y-13189239D01*
X21149929Y-13187071D01*
X21147761Y-13183827D01*
X21147000Y-13180000D01*
X21147000Y-13030000D01*
X21147761Y-13026173D01*
X21149929Y-13022929D01*
X21153173Y-13020761D01*
X21157000Y-13020000D01*
X21247000Y-13020000D01*
X21250827Y-13020761D01*
G37*
G36*
X21377827Y-13020761D02*
G01*
X21381071Y-13022929D01*
X21383239Y-13026173D01*
X21384000Y-13030000D01*
X21384000Y-13180000D01*
X21383239Y-13183827D01*
X21381071Y-13187071D01*
X21377827Y-13189239D01*
X21374000Y-13190000D01*
X21284000Y-13190000D01*
X21280173Y-13189239D01*
X21276929Y-13187071D01*
X21274761Y-13183827D01*
X21274000Y-13180000D01*
X21274000Y-13030000D01*
X21274761Y-13026173D01*
X21276929Y-13022929D01*
X21280173Y-13020761D01*
X21284000Y-13020000D01*
X21374000Y-13020000D01*
X21377827Y-13020761D01*
G37*
G36*
X21504827Y-13020761D02*
G01*
X21508071Y-13022929D01*
X21510239Y-13026173D01*
X21511000Y-13030000D01*
X21511000Y-13180000D01*
X21510239Y-13183827D01*
X21508071Y-13187071D01*
X21504827Y-13189239D01*
X21501000Y-13190000D01*
X21411000Y-13190000D01*
X21407173Y-13189239D01*
X21403929Y-13187071D01*
X21401761Y-13183827D01*
X21401000Y-13180000D01*
X21401000Y-13030000D01*
X21401761Y-13026173D01*
X21403929Y-13022929D01*
X21407173Y-13020761D01*
X21411000Y-13020000D01*
X21501000Y-13020000D01*
X21504827Y-13020761D01*
G37*
G36*
X21631827Y-13020761D02*
G01*
X21635071Y-13022929D01*
X21637239Y-13026173D01*
X21638000Y-13030000D01*
X21638000Y-13180000D01*
X21637239Y-13183827D01*
X21635071Y-13187071D01*
X21631827Y-13189239D01*
X21628000Y-13190000D01*
X21538000Y-13190000D01*
X21534173Y-13189239D01*
X21530929Y-13187071D01*
X21528761Y-13183827D01*
X21528000Y-13180000D01*
X21528000Y-13030000D01*
X21528761Y-13026173D01*
X21530929Y-13022929D01*
X21534173Y-13020761D01*
X21538000Y-13020000D01*
X21628000Y-13020000D01*
X21631827Y-13020761D01*
G37*
G36*
X21758827Y-13020761D02*
G01*
X21762071Y-13022929D01*
X21764239Y-13026173D01*
X21765000Y-13030000D01*
X21765000Y-13180000D01*
X21764239Y-13183827D01*
X21762071Y-13187071D01*
X21758827Y-13189239D01*
X21755000Y-13190000D01*
X21665000Y-13190000D01*
X21661173Y-13189239D01*
X21657929Y-13187071D01*
X21655761Y-13183827D01*
X21655000Y-13180000D01*
X21655000Y-13030000D01*
X21655761Y-13026173D01*
X21657929Y-13022929D01*
X21661173Y-13020761D01*
X21665000Y-13020000D01*
X21755000Y-13020000D01*
X21758827Y-13020761D01*
G37*
G36*
X21885827Y-13020761D02*
G01*
X21889071Y-13022929D01*
X21891239Y-13026173D01*
X21892000Y-13030000D01*
X21892000Y-13180000D01*
X21891239Y-13183827D01*
X21889071Y-13187071D01*
X21885827Y-13189239D01*
X21882000Y-13190000D01*
X21792000Y-13190000D01*
X21788173Y-13189239D01*
X21784929Y-13187071D01*
X21782761Y-13183827D01*
X21782000Y-13180000D01*
X21782000Y-13030000D01*
X21782761Y-13026173D01*
X21784929Y-13022929D01*
X21788173Y-13020761D01*
X21792000Y-13020000D01*
X21882000Y-13020000D01*
X21885827Y-13020761D01*
G37*
G36*
X22012827Y-13020761D02*
G01*
X22016071Y-13022929D01*
X22018239Y-13026173D01*
X22019000Y-13030000D01*
X22019000Y-13180000D01*
X22018239Y-13183827D01*
X22016071Y-13187071D01*
X22012827Y-13189239D01*
X22009000Y-13190000D01*
X21919000Y-13190000D01*
X21915173Y-13189239D01*
X21911929Y-13187071D01*
X21909761Y-13183827D01*
X21909000Y-13180000D01*
X21909000Y-13030000D01*
X21909761Y-13026173D01*
X21911929Y-13022929D01*
X21915173Y-13020761D01*
X21919000Y-13020000D01*
X22009000Y-13020000D01*
X22012827Y-13020761D01*
G37*
G36*
X22139827Y-13020761D02*
G01*
X22143071Y-13022929D01*
X22145239Y-13026173D01*
X22146000Y-13030000D01*
X22146000Y-13180000D01*
X22145239Y-13183827D01*
X22143071Y-13187071D01*
X22139827Y-13189239D01*
X22136000Y-13190000D01*
X22046000Y-13190000D01*
X22042173Y-13189239D01*
X22038929Y-13187071D01*
X22036761Y-13183827D01*
X22036000Y-13180000D01*
X22036000Y-13030000D01*
X22036761Y-13026173D01*
X22038929Y-13022929D01*
X22042173Y-13020761D01*
X22046000Y-13020000D01*
X22136000Y-13020000D01*
X22139827Y-13020761D01*
G37*
G36*
X22266827Y-13020761D02*
G01*
X22270071Y-13022929D01*
X22272239Y-13026173D01*
X22273000Y-13030000D01*
X22273000Y-13180000D01*
X22272239Y-13183827D01*
X22270071Y-13187071D01*
X22266827Y-13189239D01*
X22263000Y-13190000D01*
X22173000Y-13190000D01*
X22169173Y-13189239D01*
X22165929Y-13187071D01*
X22163761Y-13183827D01*
X22163000Y-13180000D01*
X22163000Y-13030000D01*
X22163761Y-13026173D01*
X22165929Y-13022929D01*
X22169173Y-13020761D01*
X22173000Y-13020000D01*
X22263000Y-13020000D01*
X22266827Y-13020761D01*
G37*
G36*
X22393827Y-13020761D02*
G01*
X22397071Y-13022929D01*
X22399239Y-13026173D01*
X22400000Y-13030000D01*
X22400000Y-13180000D01*
X22399239Y-13183827D01*
X22397071Y-13187071D01*
X22393827Y-13189239D01*
X22390000Y-13190000D01*
X22300000Y-13190000D01*
X22296173Y-13189239D01*
X22292929Y-13187071D01*
X22290761Y-13183827D01*
X22290000Y-13180000D01*
X22290000Y-13030000D01*
X22290761Y-13026173D01*
X22292929Y-13022929D01*
X22296173Y-13020761D01*
X22300000Y-13020000D01*
X22390000Y-13020000D01*
X22393827Y-13020761D01*
G37*
G36*
X22520827Y-13020761D02*
G01*
X22524071Y-13022929D01*
X22526239Y-13026173D01*
X22527000Y-13030000D01*
X22527000Y-13180000D01*
X22526239Y-13183827D01*
X22524071Y-13187071D01*
X22520827Y-13189239D01*
X22517000Y-13190000D01*
X22427000Y-13190000D01*
X22423173Y-13189239D01*
X22419929Y-13187071D01*
X22417761Y-13183827D01*
X22417000Y-13180000D01*
X22417000Y-13030000D01*
X22417761Y-13026173D01*
X22419929Y-13022929D01*
X22423173Y-13020761D01*
X22427000Y-13020000D01*
X22517000Y-13020000D01*
X22520827Y-13020761D01*
G37*
G36*
X22485307Y-12933045D02*
G01*
X22494350Y-12938266D01*
X22501734Y-12945649D01*
X22506955Y-12954693D01*
X22509658Y-12964779D01*
X22509658Y-12975221D01*
X22506955Y-12985307D01*
X22501734Y-12994350D01*
X22494350Y-13001734D01*
X22485307Y-13006955D01*
X22475221Y-13009658D01*
X22464779Y-13009658D01*
X22454693Y-13006955D01*
X22445649Y-13001734D01*
X22438266Y-12994350D01*
X22433045Y-12985307D01*
X22430342Y-12975221D01*
X22430342Y-12964779D01*
X22433045Y-12954693D01*
X22438266Y-12945649D01*
X22445649Y-12938266D01*
X22454693Y-12933045D01*
X22464779Y-12930342D01*
X22475221Y-12930342D01*
X22485307Y-12933045D01*
G37*
G36*
X20774827Y-12874261D02*
G01*
X20778071Y-12876429D01*
X20780239Y-12879673D01*
X20781000Y-12883500D01*
X20781000Y-12973500D01*
X20780239Y-12977327D01*
X20778071Y-12980571D01*
X20774827Y-12982739D01*
X20771000Y-12983500D01*
X20621000Y-12983500D01*
X20617173Y-12982739D01*
X20613929Y-12980571D01*
X20611761Y-12977327D01*
X20611000Y-12973500D01*
X20611000Y-12883500D01*
X20611761Y-12879673D01*
X20613929Y-12876429D01*
X20617173Y-12874261D01*
X20621000Y-12873500D01*
X20771000Y-12873500D01*
X20774827Y-12874261D01*
G37*
G36*
X6027577Y-12751091D02*
G01*
X6044783Y-12758217D01*
X6060267Y-12768564D01*
X6073436Y-12781733D01*
X6083782Y-12797217D01*
X6090909Y-12814423D01*
X6094542Y-12832688D01*
X6094542Y-12851312D01*
X6090909Y-12869577D01*
X6083782Y-12886783D01*
X6073436Y-12902267D01*
X6060267Y-12915436D01*
X6044783Y-12925782D01*
X6027577Y-12932909D01*
X6009312Y-12936542D01*
X5990688Y-12936542D01*
X5972423Y-12932909D01*
X5955217Y-12925782D01*
X5939733Y-12915436D01*
X5926564Y-12902267D01*
X5916217Y-12886783D01*
X5909091Y-12869577D01*
X5905457Y-12851312D01*
X5905457Y-12832688D01*
X5909091Y-12814423D01*
X5916217Y-12797217D01*
X5926564Y-12781733D01*
X5939733Y-12768564D01*
X5955217Y-12758217D01*
X5972423Y-12751091D01*
X5990688Y-12747457D01*
X6009312Y-12747457D01*
X6027577Y-12751091D01*
G37*
G36*
X10027577Y-12751091D02*
G01*
X10044783Y-12758217D01*
X10060267Y-12768564D01*
X10073436Y-12781733D01*
X10083783Y-12797217D01*
X10090909Y-12814423D01*
X10094543Y-12832688D01*
X10094543Y-12851312D01*
X10090909Y-12869577D01*
X10083783Y-12886783D01*
X10073436Y-12902267D01*
X10060267Y-12915436D01*
X10044783Y-12925782D01*
X10027577Y-12932909D01*
X10009312Y-12936542D01*
X9990688Y-12936542D01*
X9972423Y-12932909D01*
X9955217Y-12925782D01*
X9939733Y-12915436D01*
X9926564Y-12902267D01*
X9916218Y-12886783D01*
X9909091Y-12869577D01*
X9905458Y-12851312D01*
X9905458Y-12832688D01*
X9909091Y-12814423D01*
X9916218Y-12797217D01*
X9926564Y-12781733D01*
X9939733Y-12768564D01*
X9955217Y-12758217D01*
X9972423Y-12751091D01*
X9990688Y-12747457D01*
X10009312Y-12747457D01*
X10027577Y-12751091D01*
G37*
G36*
X10527577Y-12751091D02*
G01*
X10544783Y-12758217D01*
X10560267Y-12768564D01*
X10573436Y-12781733D01*
X10583783Y-12797217D01*
X10590909Y-12814423D01*
X10594543Y-12832688D01*
X10594543Y-12851312D01*
X10590909Y-12869577D01*
X10583783Y-12886783D01*
X10573436Y-12902267D01*
X10560267Y-12915436D01*
X10544783Y-12925782D01*
X10527577Y-12932909D01*
X10509312Y-12936542D01*
X10490688Y-12936542D01*
X10472423Y-12932909D01*
X10455217Y-12925782D01*
X10439733Y-12915436D01*
X10426564Y-12902267D01*
X10416218Y-12886783D01*
X10409091Y-12869577D01*
X10405458Y-12851312D01*
X10405458Y-12832688D01*
X10409091Y-12814423D01*
X10416218Y-12797217D01*
X10426564Y-12781733D01*
X10439733Y-12768564D01*
X10455217Y-12758217D01*
X10472423Y-12751091D01*
X10490688Y-12747457D01*
X10509312Y-12747457D01*
X10527577Y-12751091D01*
G37*
G36*
X14527577Y-12751091D02*
G01*
X14544783Y-12758217D01*
X14560267Y-12768564D01*
X14573436Y-12781733D01*
X14583782Y-12797217D01*
X14590909Y-12814423D01*
X14594542Y-12832688D01*
X14594542Y-12851312D01*
X14590909Y-12869577D01*
X14583782Y-12886783D01*
X14573436Y-12902267D01*
X14560267Y-12915436D01*
X14544783Y-12925782D01*
X14527577Y-12932909D01*
X14509312Y-12936542D01*
X14490688Y-12936542D01*
X14472423Y-12932909D01*
X14455217Y-12925782D01*
X14439733Y-12915436D01*
X14426564Y-12902267D01*
X14416217Y-12886783D01*
X14409091Y-12869577D01*
X14405457Y-12851312D01*
X14405457Y-12832688D01*
X14409091Y-12814423D01*
X14416217Y-12797217D01*
X14426564Y-12781733D01*
X14439733Y-12768564D01*
X14455217Y-12758217D01*
X14472423Y-12751091D01*
X14490688Y-12747457D01*
X14509312Y-12747457D01*
X14527577Y-12751091D01*
G37*
G36*
X15027577Y-12751091D02*
G01*
X15044783Y-12758217D01*
X15060267Y-12768564D01*
X15073436Y-12781733D01*
X15083782Y-12797217D01*
X15090909Y-12814423D01*
X15094542Y-12832688D01*
X15094542Y-12851312D01*
X15090909Y-12869577D01*
X15083782Y-12886783D01*
X15073436Y-12902267D01*
X15060267Y-12915436D01*
X15044783Y-12925782D01*
X15027577Y-12932909D01*
X15009312Y-12936542D01*
X14990688Y-12936542D01*
X14972423Y-12932909D01*
X14955217Y-12925782D01*
X14939733Y-12915436D01*
X14926564Y-12902267D01*
X14916217Y-12886783D01*
X14909091Y-12869577D01*
X14905457Y-12851312D01*
X14905457Y-12832688D01*
X14909091Y-12814423D01*
X14916217Y-12797217D01*
X14926564Y-12781733D01*
X14939733Y-12768564D01*
X14955217Y-12758217D01*
X14972423Y-12751091D01*
X14990688Y-12747457D01*
X15009312Y-12747457D01*
X15027577Y-12751091D01*
G37*
G36*
X19027577Y-12751091D02*
G01*
X19044783Y-12758217D01*
X19060267Y-12768564D01*
X19073436Y-12781733D01*
X19083783Y-12797217D01*
X19090909Y-12814423D01*
X19094543Y-12832688D01*
X19094543Y-12851312D01*
X19090909Y-12869577D01*
X19083783Y-12886783D01*
X19073436Y-12902267D01*
X19060267Y-12915436D01*
X19044783Y-12925782D01*
X19027577Y-12932909D01*
X19009312Y-12936542D01*
X18990688Y-12936542D01*
X18972423Y-12932909D01*
X18955217Y-12925782D01*
X18939733Y-12915436D01*
X18926564Y-12902267D01*
X18916218Y-12886783D01*
X18909091Y-12869577D01*
X18905458Y-12851312D01*
X18905458Y-12832688D01*
X18909091Y-12814423D01*
X18916218Y-12797217D01*
X18926564Y-12781733D01*
X18939733Y-12768564D01*
X18955217Y-12758217D01*
X18972423Y-12751091D01*
X18990688Y-12747457D01*
X19009312Y-12747457D01*
X19027577Y-12751091D01*
G37*
G36*
X19527577Y-12751091D02*
G01*
X19544783Y-12758217D01*
X19560267Y-12768564D01*
X19573436Y-12781733D01*
X19583783Y-12797217D01*
X19590909Y-12814423D01*
X19594543Y-12832688D01*
X19594543Y-12851312D01*
X19590909Y-12869577D01*
X19583783Y-12886783D01*
X19573436Y-12902267D01*
X19560267Y-12915436D01*
X19544783Y-12925782D01*
X19527577Y-12932909D01*
X19509312Y-12936542D01*
X19490688Y-12936542D01*
X19472423Y-12932909D01*
X19455217Y-12925782D01*
X19439733Y-12915436D01*
X19426564Y-12902267D01*
X19416218Y-12886783D01*
X19409091Y-12869577D01*
X19405458Y-12851312D01*
X19405458Y-12832688D01*
X19409091Y-12814423D01*
X19416218Y-12797217D01*
X19426564Y-12781733D01*
X19439733Y-12768564D01*
X19455217Y-12758217D01*
X19472423Y-12751091D01*
X19490688Y-12747457D01*
X19509312Y-12747457D01*
X19527577Y-12751091D01*
G37*
G36*
X23527577Y-12751091D02*
G01*
X23544783Y-12758217D01*
X23560267Y-12768564D01*
X23573436Y-12781733D01*
X23583782Y-12797217D01*
X23590909Y-12814423D01*
X23594542Y-12832688D01*
X23594542Y-12851312D01*
X23590909Y-12869577D01*
X23583782Y-12886783D01*
X23573436Y-12902267D01*
X23560267Y-12915436D01*
X23544783Y-12925782D01*
X23527577Y-12932909D01*
X23509312Y-12936542D01*
X23490688Y-12936542D01*
X23472423Y-12932909D01*
X23455217Y-12925782D01*
X23439733Y-12915436D01*
X23426564Y-12902267D01*
X23416217Y-12886783D01*
X23409091Y-12869577D01*
X23405457Y-12851312D01*
X23405457Y-12832688D01*
X23409091Y-12814423D01*
X23416217Y-12797217D01*
X23426564Y-12781733D01*
X23439733Y-12768564D01*
X23455217Y-12758217D01*
X23472423Y-12751091D01*
X23490688Y-12747457D01*
X23509312Y-12747457D01*
X23527577Y-12751091D01*
G37*
G36*
X20774827Y-12747261D02*
G01*
X20778071Y-12749429D01*
X20780239Y-12752673D01*
X20781000Y-12756500D01*
X20781000Y-12846500D01*
X20780239Y-12850327D01*
X20778071Y-12853571D01*
X20774827Y-12855739D01*
X20771000Y-12856500D01*
X20621000Y-12856500D01*
X20617173Y-12855739D01*
X20613929Y-12853571D01*
X20611761Y-12850327D01*
X20611000Y-12846500D01*
X20611000Y-12756500D01*
X20611761Y-12752673D01*
X20613929Y-12749429D01*
X20617173Y-12747261D01*
X20621000Y-12746500D01*
X20771000Y-12746500D01*
X20774827Y-12747261D01*
G37*
G36*
X20774827Y-12620261D02*
G01*
X20778071Y-12622429D01*
X20780239Y-12625673D01*
X20781000Y-12629500D01*
X20781000Y-12719500D01*
X20780239Y-12723327D01*
X20778071Y-12726571D01*
X20774827Y-12728739D01*
X20771000Y-12729500D01*
X20621000Y-12729500D01*
X20617173Y-12728739D01*
X20613929Y-12726571D01*
X20611761Y-12723327D01*
X20611000Y-12719500D01*
X20611000Y-12629500D01*
X20611761Y-12625673D01*
X20613929Y-12622429D01*
X20617173Y-12620261D01*
X20621000Y-12619500D01*
X20771000Y-12619500D01*
X20774827Y-12620261D01*
G37*
G36*
X6027577Y-12497091D02*
G01*
X6044783Y-12504217D01*
X6060267Y-12514564D01*
X6073436Y-12527733D01*
X6083782Y-12543217D01*
X6090909Y-12560423D01*
X6094542Y-12578688D01*
X6094542Y-12597312D01*
X6090909Y-12615577D01*
X6083782Y-12632783D01*
X6073436Y-12648267D01*
X6060267Y-12661436D01*
X6044783Y-12671782D01*
X6027577Y-12678909D01*
X6009312Y-12682542D01*
X5990688Y-12682542D01*
X5972423Y-12678909D01*
X5955217Y-12671782D01*
X5939733Y-12661436D01*
X5926564Y-12648267D01*
X5916217Y-12632783D01*
X5909091Y-12615577D01*
X5905457Y-12597312D01*
X5905457Y-12578688D01*
X5909091Y-12560423D01*
X5916217Y-12543217D01*
X5926564Y-12527733D01*
X5939733Y-12514564D01*
X5955217Y-12504217D01*
X5972423Y-12497091D01*
X5990688Y-12493457D01*
X6009312Y-12493457D01*
X6027577Y-12497091D01*
G37*
G36*
X10027577Y-12497091D02*
G01*
X10044783Y-12504217D01*
X10060267Y-12514564D01*
X10073436Y-12527733D01*
X10083783Y-12543217D01*
X10090909Y-12560423D01*
X10094543Y-12578688D01*
X10094543Y-12597312D01*
X10090909Y-12615577D01*
X10083783Y-12632783D01*
X10073436Y-12648267D01*
X10060267Y-12661436D01*
X10044783Y-12671782D01*
X10027577Y-12678909D01*
X10009312Y-12682542D01*
X9990688Y-12682542D01*
X9972423Y-12678909D01*
X9955217Y-12671782D01*
X9939733Y-12661436D01*
X9926564Y-12648267D01*
X9916218Y-12632783D01*
X9909091Y-12615577D01*
X9905458Y-12597312D01*
X9905458Y-12578688D01*
X9909091Y-12560423D01*
X9916218Y-12543217D01*
X9926564Y-12527733D01*
X9939733Y-12514564D01*
X9955217Y-12504217D01*
X9972423Y-12497091D01*
X9990688Y-12493457D01*
X10009312Y-12493457D01*
X10027577Y-12497091D01*
G37*
G36*
X10527577Y-12497091D02*
G01*
X10544783Y-12504217D01*
X10560267Y-12514564D01*
X10573436Y-12527733D01*
X10583783Y-12543217D01*
X10590909Y-12560423D01*
X10594543Y-12578688D01*
X10594543Y-12597312D01*
X10590909Y-12615577D01*
X10583783Y-12632783D01*
X10573436Y-12648267D01*
X10560267Y-12661436D01*
X10544783Y-12671782D01*
X10527577Y-12678909D01*
X10509312Y-12682542D01*
X10490688Y-12682542D01*
X10472423Y-12678909D01*
X10455217Y-12671782D01*
X10439733Y-12661436D01*
X10426564Y-12648267D01*
X10416218Y-12632783D01*
X10409091Y-12615577D01*
X10405458Y-12597312D01*
X10405458Y-12578688D01*
X10409091Y-12560423D01*
X10416218Y-12543217D01*
X10426564Y-12527733D01*
X10439733Y-12514564D01*
X10455217Y-12504217D01*
X10472423Y-12497091D01*
X10490688Y-12493457D01*
X10509312Y-12493457D01*
X10527577Y-12497091D01*
G37*
G36*
X14527577Y-12497091D02*
G01*
X14544783Y-12504217D01*
X14560267Y-12514564D01*
X14573436Y-12527733D01*
X14583782Y-12543217D01*
X14590909Y-12560423D01*
X14594542Y-12578688D01*
X14594542Y-12597312D01*
X14590909Y-12615577D01*
X14583782Y-12632783D01*
X14573436Y-12648267D01*
X14560267Y-12661436D01*
X14544783Y-12671782D01*
X14527577Y-12678909D01*
X14509312Y-12682542D01*
X14490688Y-12682542D01*
X14472423Y-12678909D01*
X14455217Y-12671782D01*
X14439733Y-12661436D01*
X14426564Y-12648267D01*
X14416217Y-12632783D01*
X14409091Y-12615577D01*
X14405457Y-12597312D01*
X14405457Y-12578688D01*
X14409091Y-12560423D01*
X14416217Y-12543217D01*
X14426564Y-12527733D01*
X14439733Y-12514564D01*
X14455217Y-12504217D01*
X14472423Y-12497091D01*
X14490688Y-12493457D01*
X14509312Y-12493457D01*
X14527577Y-12497091D01*
G37*
G36*
X15027577Y-12497091D02*
G01*
X15044783Y-12504217D01*
X15060267Y-12514564D01*
X15073436Y-12527733D01*
X15083782Y-12543217D01*
X15090909Y-12560423D01*
X15094542Y-12578688D01*
X15094542Y-12597312D01*
X15090909Y-12615577D01*
X15083782Y-12632783D01*
X15073436Y-12648267D01*
X15060267Y-12661436D01*
X15044783Y-12671782D01*
X15027577Y-12678909D01*
X15009312Y-12682542D01*
X14990688Y-12682542D01*
X14972423Y-12678909D01*
X14955217Y-12671782D01*
X14939733Y-12661436D01*
X14926564Y-12648267D01*
X14916217Y-12632783D01*
X14909091Y-12615577D01*
X14905457Y-12597312D01*
X14905457Y-12578688D01*
X14909091Y-12560423D01*
X14916217Y-12543217D01*
X14926564Y-12527733D01*
X14939733Y-12514564D01*
X14955217Y-12504217D01*
X14972423Y-12497091D01*
X14990688Y-12493457D01*
X15009312Y-12493457D01*
X15027577Y-12497091D01*
G37*
G36*
X19027577Y-12497091D02*
G01*
X19044783Y-12504217D01*
X19060267Y-12514564D01*
X19073436Y-12527733D01*
X19083783Y-12543217D01*
X19090909Y-12560423D01*
X19094543Y-12578688D01*
X19094543Y-12597312D01*
X19090909Y-12615577D01*
X19083783Y-12632783D01*
X19073436Y-12648267D01*
X19060267Y-12661436D01*
X19044783Y-12671782D01*
X19027577Y-12678909D01*
X19009312Y-12682542D01*
X18990688Y-12682542D01*
X18972423Y-12678909D01*
X18955217Y-12671782D01*
X18939733Y-12661436D01*
X18926564Y-12648267D01*
X18916218Y-12632783D01*
X18909091Y-12615577D01*
X18905458Y-12597312D01*
X18905458Y-12578688D01*
X18909091Y-12560423D01*
X18916218Y-12543217D01*
X18926564Y-12527733D01*
X18939733Y-12514564D01*
X18955217Y-12504217D01*
X18972423Y-12497091D01*
X18990688Y-12493457D01*
X19009312Y-12493457D01*
X19027577Y-12497091D01*
G37*
G36*
X19527577Y-12497091D02*
G01*
X19544783Y-12504217D01*
X19560267Y-12514564D01*
X19573436Y-12527733D01*
X19583783Y-12543217D01*
X19590909Y-12560423D01*
X19594543Y-12578688D01*
X19594543Y-12597312D01*
X19590909Y-12615577D01*
X19583783Y-12632783D01*
X19573436Y-12648267D01*
X19560267Y-12661436D01*
X19544783Y-12671782D01*
X19527577Y-12678909D01*
X19509312Y-12682542D01*
X19490688Y-12682542D01*
X19472423Y-12678909D01*
X19455217Y-12671782D01*
X19439733Y-12661436D01*
X19426564Y-12648267D01*
X19416218Y-12632783D01*
X19409091Y-12615577D01*
X19405458Y-12597312D01*
X19405458Y-12578688D01*
X19409091Y-12560423D01*
X19416218Y-12543217D01*
X19426564Y-12527733D01*
X19439733Y-12514564D01*
X19455217Y-12504217D01*
X19472423Y-12497091D01*
X19490688Y-12493457D01*
X19509312Y-12493457D01*
X19527577Y-12497091D01*
G37*
G36*
X23527577Y-12497091D02*
G01*
X23544783Y-12504217D01*
X23560267Y-12514564D01*
X23573436Y-12527733D01*
X23583782Y-12543217D01*
X23590909Y-12560423D01*
X23594542Y-12578688D01*
X23594542Y-12597312D01*
X23590909Y-12615577D01*
X23583782Y-12632783D01*
X23573436Y-12648267D01*
X23560267Y-12661436D01*
X23544783Y-12671782D01*
X23527577Y-12678909D01*
X23509312Y-12682542D01*
X23490688Y-12682542D01*
X23472423Y-12678909D01*
X23455217Y-12671782D01*
X23439733Y-12661436D01*
X23426564Y-12648267D01*
X23416217Y-12632783D01*
X23409091Y-12615577D01*
X23405457Y-12597312D01*
X23405457Y-12578688D01*
X23409091Y-12560423D01*
X23416217Y-12543217D01*
X23426564Y-12527733D01*
X23439733Y-12514564D01*
X23455217Y-12504217D01*
X23472423Y-12497091D01*
X23490688Y-12493457D01*
X23509312Y-12493457D01*
X23527577Y-12497091D01*
G37*
G36*
X12124827Y-12557261D02*
G01*
X12128071Y-12559429D01*
X12130239Y-12562673D01*
X12131000Y-12566500D01*
X12131000Y-12671500D01*
X12130239Y-12675327D01*
X12128071Y-12678571D01*
X12124827Y-12680739D01*
X12121000Y-12681500D01*
X11939000Y-12681500D01*
X11935173Y-12680739D01*
X11931929Y-12678571D01*
X11929761Y-12675327D01*
X11929000Y-12671500D01*
X11929000Y-12566500D01*
X11929761Y-12562673D01*
X11931929Y-12559429D01*
X11935173Y-12557261D01*
X11939000Y-12556500D01*
X12121000Y-12556500D01*
X12124827Y-12557261D01*
G37*
G36*
X12351327Y-12545761D02*
G01*
X12354571Y-12547929D01*
X12356739Y-12551173D01*
X12357500Y-12555000D01*
X12357500Y-12615000D01*
X12356739Y-12618827D01*
X12354571Y-12622071D01*
X12351327Y-12624239D01*
X12347500Y-12625000D01*
X12222500Y-12625000D01*
X12218673Y-12624239D01*
X12215429Y-12622071D01*
X12213261Y-12618827D01*
X12212500Y-12615000D01*
X12212500Y-12555000D01*
X12213261Y-12551173D01*
X12215429Y-12547929D01*
X12218673Y-12545761D01*
X12222500Y-12545000D01*
X12347500Y-12545000D01*
X12351327Y-12545761D01*
G37*
G36*
X12601327Y-12545761D02*
G01*
X12604571Y-12547929D01*
X12606739Y-12551173D01*
X12607500Y-12555000D01*
X12607500Y-12615000D01*
X12606739Y-12618827D01*
X12604571Y-12622071D01*
X12601327Y-12624239D01*
X12597500Y-12625000D01*
X12472500Y-12625000D01*
X12468673Y-12624239D01*
X12465429Y-12622071D01*
X12463261Y-12618827D01*
X12462500Y-12615000D01*
X12462500Y-12555000D01*
X12463261Y-12551173D01*
X12465429Y-12547929D01*
X12468673Y-12545761D01*
X12472500Y-12545000D01*
X12597500Y-12545000D01*
X12601327Y-12545761D01*
G37*
G36*
X20774827Y-12493261D02*
G01*
X20778071Y-12495429D01*
X20780239Y-12498673D01*
X20781000Y-12502500D01*
X20781000Y-12592500D01*
X20780239Y-12596327D01*
X20778071Y-12599571D01*
X20774827Y-12601739D01*
X20771000Y-12602500D01*
X20621000Y-12602500D01*
X20617173Y-12601739D01*
X20613929Y-12599571D01*
X20611761Y-12596327D01*
X20611000Y-12592500D01*
X20611000Y-12502500D01*
X20611761Y-12498673D01*
X20613929Y-12495429D01*
X20617173Y-12493261D01*
X20621000Y-12492500D01*
X20771000Y-12492500D01*
X20774827Y-12493261D01*
G37*
G36*
X7373827Y-12340761D02*
G01*
X7377071Y-12342929D01*
X7379239Y-12346173D01*
X7380000Y-12350000D01*
X7380000Y-12550000D01*
X7379239Y-12553827D01*
X7377071Y-12557071D01*
X7373827Y-12559239D01*
X7370000Y-12560000D01*
X7170000Y-12560000D01*
X7166173Y-12559239D01*
X7162929Y-12557071D01*
X7160761Y-12553827D01*
X7160000Y-12550000D01*
X7160000Y-12350000D01*
X7160761Y-12346173D01*
X7162929Y-12342929D01*
X7166173Y-12340761D01*
X7170000Y-12340000D01*
X7370000Y-12340000D01*
X7373827Y-12340761D01*
G37*
G36*
X22996327Y-12415761D02*
G01*
X22999571Y-12417929D01*
X23001739Y-12421173D01*
X23002500Y-12425000D01*
X23002500Y-12525000D01*
X23001739Y-12528827D01*
X22999571Y-12532071D01*
X22996327Y-12534239D01*
X22992500Y-12535000D01*
X22847500Y-12535000D01*
X22843673Y-12534239D01*
X22840429Y-12532071D01*
X22838261Y-12528827D01*
X22837500Y-12525000D01*
X22837500Y-12425000D01*
X22838261Y-12421173D01*
X22840429Y-12417929D01*
X22843673Y-12415761D01*
X22847500Y-12415000D01*
X22992500Y-12415000D01*
X22996327Y-12415761D01*
G37*
G36*
X12351327Y-12450761D02*
G01*
X12354571Y-12452929D01*
X12356739Y-12456173D01*
X12357500Y-12460000D01*
X12357500Y-12520000D01*
X12356739Y-12523827D01*
X12354571Y-12527071D01*
X12351327Y-12529239D01*
X12347500Y-12530000D01*
X12222500Y-12530000D01*
X12218673Y-12529239D01*
X12215429Y-12527071D01*
X12213261Y-12523827D01*
X12212500Y-12520000D01*
X12212500Y-12460000D01*
X12213261Y-12456173D01*
X12215429Y-12452929D01*
X12218673Y-12450761D01*
X12222500Y-12450000D01*
X12347500Y-12450000D01*
X12351327Y-12450761D01*
G37*
G36*
X12601327Y-12450761D02*
G01*
X12604571Y-12452929D01*
X12606739Y-12456173D01*
X12607500Y-12460000D01*
X12607500Y-12520000D01*
X12606739Y-12523827D01*
X12604571Y-12527071D01*
X12601327Y-12529239D01*
X12597500Y-12530000D01*
X12472500Y-12530000D01*
X12468673Y-12529239D01*
X12465429Y-12527071D01*
X12463261Y-12523827D01*
X12462500Y-12520000D01*
X12462500Y-12460000D01*
X12463261Y-12456173D01*
X12465429Y-12452929D01*
X12468673Y-12450761D01*
X12472500Y-12450000D01*
X12597500Y-12450000D01*
X12601327Y-12450761D01*
G37*
G36*
X20774827Y-12366261D02*
G01*
X20778071Y-12368429D01*
X20780239Y-12371673D01*
X20781000Y-12375500D01*
X20781000Y-12465500D01*
X20780239Y-12469327D01*
X20778071Y-12472571D01*
X20774827Y-12474739D01*
X20771000Y-12475500D01*
X20621000Y-12475500D01*
X20617173Y-12474739D01*
X20613929Y-12472571D01*
X20611761Y-12469327D01*
X20611000Y-12465500D01*
X20611000Y-12375500D01*
X20611761Y-12371673D01*
X20613929Y-12368429D01*
X20617173Y-12366261D01*
X20621000Y-12365500D01*
X20771000Y-12365500D01*
X20774827Y-12366261D01*
G37*
G36*
X20288827Y-12308261D02*
G01*
X20292071Y-12310429D01*
X20294239Y-12313673D01*
X20295000Y-12317500D01*
X20295000Y-12462500D01*
X20294239Y-12466327D01*
X20292071Y-12469571D01*
X20288827Y-12471739D01*
X20285000Y-12472500D01*
X20185000Y-12472500D01*
X20181173Y-12471739D01*
X20177929Y-12469571D01*
X20175761Y-12466327D01*
X20175000Y-12462500D01*
X20175000Y-12317500D01*
X20175761Y-12313673D01*
X20177929Y-12310429D01*
X20181173Y-12308261D01*
X20185000Y-12307500D01*
X20285000Y-12307500D01*
X20288827Y-12308261D01*
G37*
G36*
X20478827Y-12308261D02*
G01*
X20482071Y-12310429D01*
X20484239Y-12313673D01*
X20485000Y-12317500D01*
X20485000Y-12462500D01*
X20484239Y-12466327D01*
X20482071Y-12469571D01*
X20478827Y-12471739D01*
X20475000Y-12472500D01*
X20375000Y-12472500D01*
X20371173Y-12471739D01*
X20367929Y-12469571D01*
X20365761Y-12466327D01*
X20365000Y-12462500D01*
X20365000Y-12317500D01*
X20365761Y-12313673D01*
X20367929Y-12310429D01*
X20371173Y-12308261D01*
X20375000Y-12307500D01*
X20475000Y-12307500D01*
X20478827Y-12308261D01*
G37*
G36*
X12936327Y-12300761D02*
G01*
X12939571Y-12302929D01*
X12941739Y-12306173D01*
X12942500Y-12310000D01*
X12942500Y-12450000D01*
X12941739Y-12453827D01*
X12939571Y-12457071D01*
X12936327Y-12459239D01*
X12932500Y-12460000D01*
X12837500Y-12460000D01*
X12833673Y-12459239D01*
X12830429Y-12457071D01*
X12828261Y-12453827D01*
X12827500Y-12450000D01*
X12827500Y-12310000D01*
X12828261Y-12306173D01*
X12830429Y-12302929D01*
X12833673Y-12300761D01*
X12837500Y-12300000D01*
X12932500Y-12300000D01*
X12936327Y-12300761D01*
G37*
G36*
X13126327Y-12300761D02*
G01*
X13129571Y-12302929D01*
X13131739Y-12306173D01*
X13132500Y-12310000D01*
X13132500Y-12450000D01*
X13131739Y-12453827D01*
X13129571Y-12457071D01*
X13126327Y-12459239D01*
X13122500Y-12460000D01*
X13027500Y-12460000D01*
X13023673Y-12459239D01*
X13020429Y-12457071D01*
X13018261Y-12453827D01*
X13017500Y-12450000D01*
X13017500Y-12310000D01*
X13018261Y-12306173D01*
X13020429Y-12302929D01*
X13023673Y-12300761D01*
X13027500Y-12300000D01*
X13122500Y-12300000D01*
X13126327Y-12300761D01*
G37*
G36*
X12351327Y-12355761D02*
G01*
X12354571Y-12357929D01*
X12356739Y-12361173D01*
X12357500Y-12365000D01*
X12357500Y-12425000D01*
X12356739Y-12428827D01*
X12354571Y-12432071D01*
X12351327Y-12434239D01*
X12347500Y-12435000D01*
X12222500Y-12435000D01*
X12218673Y-12434239D01*
X12215429Y-12432071D01*
X12213261Y-12428827D01*
X12212500Y-12425000D01*
X12212500Y-12365000D01*
X12213261Y-12361173D01*
X12215429Y-12357929D01*
X12218673Y-12355761D01*
X12222500Y-12355000D01*
X12347500Y-12355000D01*
X12351327Y-12355761D01*
G37*
G36*
X12601327Y-12355761D02*
G01*
X12604571Y-12357929D01*
X12606739Y-12361173D01*
X12607500Y-12365000D01*
X12607500Y-12425000D01*
X12606739Y-12428827D01*
X12604571Y-12432071D01*
X12601327Y-12434239D01*
X12597500Y-12435000D01*
X12472500Y-12435000D01*
X12468673Y-12434239D01*
X12465429Y-12432071D01*
X12463261Y-12428827D01*
X12462500Y-12425000D01*
X12462500Y-12365000D01*
X12463261Y-12361173D01*
X12465429Y-12357929D01*
X12468673Y-12355761D01*
X12472500Y-12355000D01*
X12597500Y-12355000D01*
X12601327Y-12355761D01*
G37*
G36*
X6027577Y-12243091D02*
G01*
X6044783Y-12250217D01*
X6060267Y-12260564D01*
X6073436Y-12273733D01*
X6083782Y-12289217D01*
X6090909Y-12306423D01*
X6094542Y-12324688D01*
X6094542Y-12343312D01*
X6090909Y-12361577D01*
X6083782Y-12378783D01*
X6073436Y-12394267D01*
X6060267Y-12407436D01*
X6044783Y-12417782D01*
X6027577Y-12424909D01*
X6009312Y-12428542D01*
X5990688Y-12428542D01*
X5972423Y-12424909D01*
X5955217Y-12417782D01*
X5939733Y-12407436D01*
X5926564Y-12394267D01*
X5916217Y-12378783D01*
X5909091Y-12361577D01*
X5905457Y-12343312D01*
X5905457Y-12324688D01*
X5909091Y-12306423D01*
X5916217Y-12289217D01*
X5926564Y-12273733D01*
X5939733Y-12260564D01*
X5955217Y-12250217D01*
X5972423Y-12243091D01*
X5990688Y-12239457D01*
X6009312Y-12239457D01*
X6027577Y-12243091D01*
G37*
G36*
X10027577Y-12243091D02*
G01*
X10044783Y-12250217D01*
X10060267Y-12260564D01*
X10073436Y-12273733D01*
X10083783Y-12289217D01*
X10090909Y-12306423D01*
X10094543Y-12324688D01*
X10094543Y-12343312D01*
X10090909Y-12361577D01*
X10083783Y-12378783D01*
X10073436Y-12394267D01*
X10060267Y-12407436D01*
X10044783Y-12417782D01*
X10027577Y-12424909D01*
X10009312Y-12428542D01*
X9990688Y-12428542D01*
X9972423Y-12424909D01*
X9955217Y-12417782D01*
X9939733Y-12407436D01*
X9926564Y-12394267D01*
X9916218Y-12378783D01*
X9909091Y-12361577D01*
X9905458Y-12343312D01*
X9905458Y-12324688D01*
X9909091Y-12306423D01*
X9916218Y-12289217D01*
X9926564Y-12273733D01*
X9939733Y-12260564D01*
X9955217Y-12250217D01*
X9972423Y-12243091D01*
X9990688Y-12239457D01*
X10009312Y-12239457D01*
X10027577Y-12243091D01*
G37*
G36*
X10527577Y-12243091D02*
G01*
X10544783Y-12250217D01*
X10560267Y-12260564D01*
X10573436Y-12273733D01*
X10583783Y-12289217D01*
X10590909Y-12306423D01*
X10594543Y-12324688D01*
X10594543Y-12343312D01*
X10590909Y-12361577D01*
X10583783Y-12378783D01*
X10573436Y-12394267D01*
X10560267Y-12407436D01*
X10544783Y-12417782D01*
X10527577Y-12424909D01*
X10509312Y-12428542D01*
X10490688Y-12428542D01*
X10472423Y-12424909D01*
X10455217Y-12417782D01*
X10439733Y-12407436D01*
X10426564Y-12394267D01*
X10416218Y-12378783D01*
X10409091Y-12361577D01*
X10405458Y-12343312D01*
X10405458Y-12324688D01*
X10409091Y-12306423D01*
X10416218Y-12289217D01*
X10426564Y-12273733D01*
X10439733Y-12260564D01*
X10455217Y-12250217D01*
X10472423Y-12243091D01*
X10490688Y-12239457D01*
X10509312Y-12239457D01*
X10527577Y-12243091D01*
G37*
G36*
X14527577Y-12243091D02*
G01*
X14544783Y-12250217D01*
X14560267Y-12260564D01*
X14573436Y-12273733D01*
X14583782Y-12289217D01*
X14590909Y-12306423D01*
X14594542Y-12324688D01*
X14594542Y-12343312D01*
X14590909Y-12361577D01*
X14583782Y-12378783D01*
X14573436Y-12394267D01*
X14560267Y-12407436D01*
X14544783Y-12417782D01*
X14527577Y-12424909D01*
X14509312Y-12428542D01*
X14490688Y-12428542D01*
X14472423Y-12424909D01*
X14455217Y-12417782D01*
X14439733Y-12407436D01*
X14426564Y-12394267D01*
X14416217Y-12378783D01*
X14409091Y-12361577D01*
X14405457Y-12343312D01*
X14405457Y-12324688D01*
X14409091Y-12306423D01*
X14416217Y-12289217D01*
X14426564Y-12273733D01*
X14439733Y-12260564D01*
X14455217Y-12250217D01*
X14472423Y-12243091D01*
X14490688Y-12239457D01*
X14509312Y-12239457D01*
X14527577Y-12243091D01*
G37*
G36*
X15027577Y-12243091D02*
G01*
X15044783Y-12250217D01*
X15060267Y-12260564D01*
X15073436Y-12273733D01*
X15083782Y-12289217D01*
X15090909Y-12306423D01*
X15094542Y-12324688D01*
X15094542Y-12343312D01*
X15090909Y-12361577D01*
X15083782Y-12378783D01*
X15073436Y-12394267D01*
X15060267Y-12407436D01*
X15044783Y-12417782D01*
X15027577Y-12424909D01*
X15009312Y-12428542D01*
X14990688Y-12428542D01*
X14972423Y-12424909D01*
X14955217Y-12417782D01*
X14939733Y-12407436D01*
X14926564Y-12394267D01*
X14916217Y-12378783D01*
X14909091Y-12361577D01*
X14905457Y-12343312D01*
X14905457Y-12324688D01*
X14909091Y-12306423D01*
X14916217Y-12289217D01*
X14926564Y-12273733D01*
X14939733Y-12260564D01*
X14955217Y-12250217D01*
X14972423Y-12243091D01*
X14990688Y-12239457D01*
X15009312Y-12239457D01*
X15027577Y-12243091D01*
G37*
G36*
X19027577Y-12243091D02*
G01*
X19044783Y-12250217D01*
X19060267Y-12260564D01*
X19073436Y-12273733D01*
X19083783Y-12289217D01*
X19090909Y-12306423D01*
X19094543Y-12324688D01*
X19094543Y-12343312D01*
X19090909Y-12361577D01*
X19083783Y-12378783D01*
X19073436Y-12394267D01*
X19060267Y-12407436D01*
X19044783Y-12417782D01*
X19027577Y-12424909D01*
X19009312Y-12428542D01*
X18990688Y-12428542D01*
X18972423Y-12424909D01*
X18955217Y-12417782D01*
X18939733Y-12407436D01*
X18926564Y-12394267D01*
X18916218Y-12378783D01*
X18909091Y-12361577D01*
X18905458Y-12343312D01*
X18905458Y-12324688D01*
X18909091Y-12306423D01*
X18916218Y-12289217D01*
X18926564Y-12273733D01*
X18939733Y-12260564D01*
X18955217Y-12250217D01*
X18972423Y-12243091D01*
X18990688Y-12239457D01*
X19009312Y-12239457D01*
X19027577Y-12243091D01*
G37*
G36*
X19527577Y-12243091D02*
G01*
X19544783Y-12250217D01*
X19560267Y-12260564D01*
X19573436Y-12273733D01*
X19583783Y-12289217D01*
X19590909Y-12306423D01*
X19594543Y-12324688D01*
X19594543Y-12343312D01*
X19590909Y-12361577D01*
X19583783Y-12378783D01*
X19573436Y-12394267D01*
X19560267Y-12407436D01*
X19544783Y-12417782D01*
X19527577Y-12424909D01*
X19509312Y-12428542D01*
X19490688Y-12428542D01*
X19472423Y-12424909D01*
X19455217Y-12417782D01*
X19439733Y-12407436D01*
X19426564Y-12394267D01*
X19416218Y-12378783D01*
X19409091Y-12361577D01*
X19405458Y-12343312D01*
X19405458Y-12324688D01*
X19409091Y-12306423D01*
X19416218Y-12289217D01*
X19426564Y-12273733D01*
X19439733Y-12260564D01*
X19455217Y-12250217D01*
X19472423Y-12243091D01*
X19490688Y-12239457D01*
X19509312Y-12239457D01*
X19527577Y-12243091D01*
G37*
G36*
X23527577Y-12243091D02*
G01*
X23544783Y-12250217D01*
X23560267Y-12260564D01*
X23573436Y-12273733D01*
X23583782Y-12289217D01*
X23590909Y-12306423D01*
X23594542Y-12324688D01*
X23594542Y-12343312D01*
X23590909Y-12361577D01*
X23583782Y-12378783D01*
X23573436Y-12394267D01*
X23560267Y-12407436D01*
X23544783Y-12417782D01*
X23527577Y-12424909D01*
X23509312Y-12428542D01*
X23490688Y-12428542D01*
X23472423Y-12424909D01*
X23455217Y-12417782D01*
X23439733Y-12407436D01*
X23426564Y-12394267D01*
X23416217Y-12378783D01*
X23409091Y-12361577D01*
X23405457Y-12343312D01*
X23405457Y-12324688D01*
X23409091Y-12306423D01*
X23416217Y-12289217D01*
X23426564Y-12273733D01*
X23439733Y-12260564D01*
X23455217Y-12250217D01*
X23472423Y-12243091D01*
X23490688Y-12239457D01*
X23509312Y-12239457D01*
X23527577Y-12243091D01*
G37*
G36*
X12124827Y-12279261D02*
G01*
X12128071Y-12281429D01*
X12130239Y-12284673D01*
X12131000Y-12288500D01*
X12131000Y-12393500D01*
X12130239Y-12397327D01*
X12128071Y-12400571D01*
X12124827Y-12402739D01*
X12121000Y-12403500D01*
X11939000Y-12403500D01*
X11935173Y-12402739D01*
X11931929Y-12400571D01*
X11929761Y-12397327D01*
X11929000Y-12393500D01*
X11929000Y-12288500D01*
X11929761Y-12284673D01*
X11931929Y-12281429D01*
X11935173Y-12279261D01*
X11939000Y-12278500D01*
X12121000Y-12278500D01*
X12124827Y-12279261D01*
G37*
G36*
X17143827Y-12169761D02*
G01*
X17147071Y-12171929D01*
X17149239Y-12175173D01*
X17150000Y-12179000D01*
X17150000Y-12379000D01*
X17149239Y-12382827D01*
X17147071Y-12386071D01*
X17143827Y-12388239D01*
X17140000Y-12389000D01*
X16940000Y-12389000D01*
X16936173Y-12388239D01*
X16932929Y-12386071D01*
X16930761Y-12382827D01*
X16930000Y-12379000D01*
X16930000Y-12179000D01*
X16930761Y-12175173D01*
X16932929Y-12171929D01*
X16936173Y-12169761D01*
X16940000Y-12169000D01*
X17140000Y-12169000D01*
X17143827Y-12169761D01*
G37*
G36*
X15744827Y-12226261D02*
G01*
X15748071Y-12228429D01*
X15750239Y-12231673D01*
X15751000Y-12235500D01*
X15751000Y-12340500D01*
X15750239Y-12344327D01*
X15748071Y-12347571D01*
X15744827Y-12349739D01*
X15741000Y-12350500D01*
X15559000Y-12350500D01*
X15555173Y-12349739D01*
X15551929Y-12347571D01*
X15549761Y-12344327D01*
X15549000Y-12340500D01*
X15549000Y-12235500D01*
X15549761Y-12231673D01*
X15551929Y-12228429D01*
X15555173Y-12226261D01*
X15559000Y-12225500D01*
X15741000Y-12225500D01*
X15744827Y-12226261D01*
G37*
G36*
X20774827Y-12239261D02*
G01*
X20778071Y-12241429D01*
X20780239Y-12244673D01*
X20781000Y-12248500D01*
X20781000Y-12338500D01*
X20780239Y-12342327D01*
X20778071Y-12345571D01*
X20774827Y-12347739D01*
X20771000Y-12348500D01*
X20621000Y-12348500D01*
X20617173Y-12347739D01*
X20613929Y-12345571D01*
X20611761Y-12342327D01*
X20611000Y-12338500D01*
X20611000Y-12248500D01*
X20611761Y-12244673D01*
X20613929Y-12241429D01*
X20617173Y-12239261D01*
X20621000Y-12238500D01*
X20771000Y-12238500D01*
X20774827Y-12239261D01*
G37*
G36*
X22996327Y-12225761D02*
G01*
X22999571Y-12227929D01*
X23001739Y-12231173D01*
X23002500Y-12235000D01*
X23002500Y-12335000D01*
X23001739Y-12338827D01*
X22999571Y-12342071D01*
X22996327Y-12344239D01*
X22992500Y-12345000D01*
X22847500Y-12345000D01*
X22843673Y-12344239D01*
X22840429Y-12342071D01*
X22838261Y-12338827D01*
X22837500Y-12335000D01*
X22837500Y-12235000D01*
X22838261Y-12231173D01*
X22840429Y-12227929D01*
X22843673Y-12225761D01*
X22847500Y-12225000D01*
X22992500Y-12225000D01*
X22996327Y-12225761D01*
G37*
G36*
X20120827Y-12230261D02*
G01*
X20124071Y-12232429D01*
X20126239Y-12235673D01*
X20127000Y-12239500D01*
X20127000Y-12322500D01*
X20126239Y-12326327D01*
X20124071Y-12329571D01*
X20120827Y-12331739D01*
X20117000Y-12332500D01*
X20023000Y-12332500D01*
X20019173Y-12331739D01*
X20015929Y-12329571D01*
X20013761Y-12326327D01*
X20013000Y-12322500D01*
X20013000Y-12239500D01*
X20013761Y-12235673D01*
X20015929Y-12232429D01*
X20019173Y-12230261D01*
X20023000Y-12229500D01*
X20117000Y-12229500D01*
X20120827Y-12230261D01*
G37*
G36*
X21645307Y-11843045D02*
G01*
X21654351Y-11848266D01*
X21661734Y-11855649D01*
X21666955Y-11864693D01*
X21669658Y-11874779D01*
X21669658Y-11882114D01*
X21672544Y-11885000D01*
X21745000Y-11885000D01*
X21748827Y-11885761D01*
X21752071Y-11887929D01*
X21754239Y-11891173D01*
X21755000Y-11895000D01*
X21755000Y-11968956D01*
X21758869Y-11971926D01*
X21764779Y-11970342D01*
X21775221Y-11970342D01*
X21781130Y-11971926D01*
X21785000Y-11968956D01*
X21785000Y-11895492D01*
X21785000Y-11895000D01*
X21785761Y-11891173D01*
X21787929Y-11887929D01*
X21791173Y-11885761D01*
X21795000Y-11885000D01*
X21885000Y-11885000D01*
X21888827Y-11885761D01*
X21892071Y-11887929D01*
X21894239Y-11891173D01*
X21895000Y-11895000D01*
X21895000Y-11932500D01*
X21895000Y-11967456D01*
X21897886Y-11970342D01*
X21905221Y-11970342D01*
X21915307Y-11973045D01*
X21924351Y-11978266D01*
X21931734Y-11985649D01*
X21936955Y-11994693D01*
X21939658Y-12004779D01*
X21939658Y-12015221D01*
X21936955Y-12025307D01*
X21931734Y-12034350D01*
X21924351Y-12041734D01*
X21915307Y-12046955D01*
X21905221Y-12049658D01*
X21897886Y-12049658D01*
X21895000Y-12052544D01*
X21895000Y-12080600D01*
X21895000Y-12107456D01*
X21897886Y-12110342D01*
X21905221Y-12110342D01*
X21915307Y-12113045D01*
X21924351Y-12118266D01*
X21931734Y-12125649D01*
X21936955Y-12134693D01*
X21939658Y-12144779D01*
X21939658Y-12155221D01*
X21936955Y-12165307D01*
X21931734Y-12174350D01*
X21924351Y-12181734D01*
X21915307Y-12186955D01*
X21905221Y-12189658D01*
X21897886Y-12189658D01*
X21895000Y-12192544D01*
X21895000Y-12265000D01*
X21894239Y-12268827D01*
X21892071Y-12272071D01*
X21888827Y-12274239D01*
X21885000Y-12275000D01*
X21812544Y-12275000D01*
X21809658Y-12277886D01*
X21809658Y-12285221D01*
X21806955Y-12295307D01*
X21801734Y-12304350D01*
X21794351Y-12311734D01*
X21785307Y-12316955D01*
X21775221Y-12319658D01*
X21764779Y-12319658D01*
X21754693Y-12316955D01*
X21745650Y-12311734D01*
X21738266Y-12304350D01*
X21733045Y-12295307D01*
X21730342Y-12285221D01*
X21730342Y-12277886D01*
X21727456Y-12275000D01*
X21672544Y-12275000D01*
X21669658Y-12277886D01*
X21669658Y-12285221D01*
X21666955Y-12295307D01*
X21661734Y-12304350D01*
X21654351Y-12311734D01*
X21645307Y-12316955D01*
X21635221Y-12319658D01*
X21624779Y-12319658D01*
X21614693Y-12316955D01*
X21605650Y-12311734D01*
X21598266Y-12304350D01*
X21593045Y-12295307D01*
X21590342Y-12285221D01*
X21590342Y-12277886D01*
X21587456Y-12275000D01*
X21515000Y-12275000D01*
X21511173Y-12274239D01*
X21507929Y-12272071D01*
X21505761Y-12268827D01*
X21505000Y-12265000D01*
X21505000Y-12191043D01*
X21615000Y-12191043D01*
X21615000Y-12238956D01*
X21618869Y-12241926D01*
X21624779Y-12240342D01*
X21635221Y-12240342D01*
X21641130Y-12241926D01*
X21645000Y-12238956D01*
X21645000Y-12191043D01*
X21645000Y-12191043D01*
X21755000Y-12191043D01*
X21755000Y-12238956D01*
X21758869Y-12241926D01*
X21764779Y-12240342D01*
X21775221Y-12240342D01*
X21781130Y-12241926D01*
X21785000Y-12238956D01*
X21785000Y-12191043D01*
X21781131Y-12188074D01*
X21775221Y-12189658D01*
X21764779Y-12189658D01*
X21758869Y-12188074D01*
X21755000Y-12191043D01*
X21645000Y-12191043D01*
X21641131Y-12188074D01*
X21635221Y-12189658D01*
X21624779Y-12189658D01*
X21618869Y-12188074D01*
X21615000Y-12191043D01*
X21505000Y-12191043D01*
X21505000Y-12175000D01*
X21505761Y-12171173D01*
X21507929Y-12167929D01*
X21511173Y-12165761D01*
X21515000Y-12165000D01*
X21588956Y-12165000D01*
X21591926Y-12161130D01*
X21590342Y-12155221D01*
X21590342Y-12144779D01*
X21591926Y-12138869D01*
X21668074Y-12138869D01*
X21669658Y-12144779D01*
X21669658Y-12155221D01*
X21668074Y-12161130D01*
X21671044Y-12165000D01*
X21728956Y-12165000D01*
X21731926Y-12161130D01*
X21730342Y-12155221D01*
X21730342Y-12144779D01*
X21731926Y-12138869D01*
X21808074Y-12138869D01*
X21809658Y-12144779D01*
X21809658Y-12155221D01*
X21808074Y-12161130D01*
X21811044Y-12165000D01*
X21858956Y-12165000D01*
X21861926Y-12161130D01*
X21860342Y-12155221D01*
X21860342Y-12144779D01*
X21861926Y-12138869D01*
X21858956Y-12135000D01*
X21811043Y-12135000D01*
X21808074Y-12138869D01*
X21731926Y-12138869D01*
X21728956Y-12135000D01*
X21671043Y-12135000D01*
X21668074Y-12138869D01*
X21591926Y-12138869D01*
X21588956Y-12135000D01*
X21515000Y-12135000D01*
X21511173Y-12134239D01*
X21507929Y-12132071D01*
X21505761Y-12128827D01*
X21505000Y-12125000D01*
X21505000Y-12051043D01*
X21615000Y-12051043D01*
X21615000Y-12108956D01*
X21618869Y-12111926D01*
X21624779Y-12110342D01*
X21635221Y-12110342D01*
X21641130Y-12111926D01*
X21645000Y-12108956D01*
X21645000Y-12051043D01*
X21645000Y-12051043D01*
X21755000Y-12051043D01*
X21755000Y-12108956D01*
X21758869Y-12111926D01*
X21764779Y-12110342D01*
X21775221Y-12110342D01*
X21781130Y-12111926D01*
X21785000Y-12108956D01*
X21785000Y-12051043D01*
X21781131Y-12048074D01*
X21775221Y-12049658D01*
X21764779Y-12049658D01*
X21758869Y-12048074D01*
X21755000Y-12051043D01*
X21645000Y-12051043D01*
X21641131Y-12048074D01*
X21635221Y-12049658D01*
X21624779Y-12049658D01*
X21618869Y-12048074D01*
X21615000Y-12051043D01*
X21505000Y-12051043D01*
X21505000Y-12035000D01*
X21505761Y-12031173D01*
X21507929Y-12027929D01*
X21511173Y-12025761D01*
X21515000Y-12025000D01*
X21588956Y-12025000D01*
X21591926Y-12021130D01*
X21590342Y-12015221D01*
X21590342Y-12004779D01*
X21591926Y-11998869D01*
X21668074Y-11998869D01*
X21669658Y-12004779D01*
X21669658Y-12015221D01*
X21668074Y-12021130D01*
X21671044Y-12025000D01*
X21728956Y-12025000D01*
X21731926Y-12021130D01*
X21730342Y-12015221D01*
X21730342Y-12004779D01*
X21731926Y-11998869D01*
X21808074Y-11998869D01*
X21809658Y-12004779D01*
X21809658Y-12015221D01*
X21808074Y-12021130D01*
X21811044Y-12025000D01*
X21858956Y-12025000D01*
X21861926Y-12021130D01*
X21860342Y-12015221D01*
X21860342Y-12004779D01*
X21861926Y-11998869D01*
X21858956Y-11995000D01*
X21811043Y-11995000D01*
X21808074Y-11998869D01*
X21731926Y-11998869D01*
X21728956Y-11995000D01*
X21671043Y-11995000D01*
X21668074Y-11998869D01*
X21591926Y-11998869D01*
X21588956Y-11995000D01*
X21515000Y-11995000D01*
X21511173Y-11994239D01*
X21507929Y-11992071D01*
X21505761Y-11988827D01*
X21505000Y-11985000D01*
X21505000Y-11921043D01*
X21615000Y-11921043D01*
X21615000Y-11968956D01*
X21618869Y-11971926D01*
X21624779Y-11970342D01*
X21635221Y-11970342D01*
X21641130Y-11971926D01*
X21645000Y-11968956D01*
X21645000Y-11921043D01*
X21641131Y-11918074D01*
X21635221Y-11919658D01*
X21624779Y-11919658D01*
X21618869Y-11918074D01*
X21615000Y-11921043D01*
X21505000Y-11921043D01*
X21505000Y-11895000D01*
X21505761Y-11891173D01*
X21507929Y-11887929D01*
X21511173Y-11885761D01*
X21515000Y-11885000D01*
X21587456Y-11885000D01*
X21590342Y-11882114D01*
X21590342Y-11874779D01*
X21593045Y-11864693D01*
X21598266Y-11855649D01*
X21605650Y-11848266D01*
X21614693Y-11843045D01*
X21624779Y-11840342D01*
X21635221Y-11840342D01*
X21645307Y-11843045D01*
G37*
G36*
X8287327Y-12089761D02*
G01*
X8290571Y-12091929D01*
X8292739Y-12095173D01*
X8293500Y-12099000D01*
X8293500Y-12281000D01*
X8292739Y-12284827D01*
X8290571Y-12288071D01*
X8287327Y-12290239D01*
X8283500Y-12291000D01*
X8178500Y-12291000D01*
X8174673Y-12290239D01*
X8171429Y-12288071D01*
X8169261Y-12284827D01*
X8168500Y-12281000D01*
X8168500Y-12099000D01*
X8169261Y-12095173D01*
X8171429Y-12091929D01*
X8174673Y-12089761D01*
X8178500Y-12089000D01*
X8283500Y-12089000D01*
X8287327Y-12089761D01*
G37*
G36*
X8565327Y-12089761D02*
G01*
X8568571Y-12091929D01*
X8570739Y-12095173D01*
X8571500Y-12099000D01*
X8571500Y-12281000D01*
X8570739Y-12284827D01*
X8568571Y-12288071D01*
X8565327Y-12290239D01*
X8561500Y-12291000D01*
X8456500Y-12291000D01*
X8452673Y-12290239D01*
X8449429Y-12288071D01*
X8447261Y-12284827D01*
X8446500Y-12281000D01*
X8446500Y-12099000D01*
X8447261Y-12095173D01*
X8449429Y-12091929D01*
X8452673Y-12089761D01*
X8456500Y-12089000D01*
X8561500Y-12089000D01*
X8565327Y-12089761D01*
G37*
G36*
X16754827Y-12166261D02*
G01*
X16758071Y-12168429D01*
X16760239Y-12171673D01*
X16761000Y-12175500D01*
X16761000Y-12280500D01*
X16760239Y-12284327D01*
X16758071Y-12287571D01*
X16754827Y-12289739D01*
X16751000Y-12290500D01*
X16569000Y-12290500D01*
X16565173Y-12289739D01*
X16561929Y-12287571D01*
X16559761Y-12284327D01*
X16559000Y-12280500D01*
X16559000Y-12175500D01*
X16559761Y-12171673D01*
X16561929Y-12168429D01*
X16565173Y-12166261D01*
X16569000Y-12165500D01*
X16751000Y-12165500D01*
X16754827Y-12166261D01*
G37*
G36*
X15910827Y-12168960D02*
G01*
X15914071Y-12171127D01*
X15916239Y-12174372D01*
X15917000Y-12178199D01*
X15917000Y-12261199D01*
X15916239Y-12265025D01*
X15914071Y-12268270D01*
X15910827Y-12270437D01*
X15907000Y-12271199D01*
X15813000Y-12271199D01*
X15809173Y-12270437D01*
X15805929Y-12268270D01*
X15803761Y-12265025D01*
X15803000Y-12261199D01*
X15803000Y-12178199D01*
X15803761Y-12174372D01*
X15805929Y-12171127D01*
X15809173Y-12168960D01*
X15813000Y-12168199D01*
X15907000Y-12168199D01*
X15910827Y-12168960D01*
G37*
G36*
X20288827Y-12088261D02*
G01*
X20292071Y-12090429D01*
X20294239Y-12093673D01*
X20295000Y-12097500D01*
X20295000Y-12242500D01*
X20294239Y-12246327D01*
X20292071Y-12249571D01*
X20288827Y-12251739D01*
X20285000Y-12252500D01*
X20185000Y-12252500D01*
X20181173Y-12251739D01*
X20177929Y-12249571D01*
X20175761Y-12246327D01*
X20175000Y-12242500D01*
X20175000Y-12097500D01*
X20175761Y-12093673D01*
X20177929Y-12090429D01*
X20181173Y-12088261D01*
X20185000Y-12087500D01*
X20285000Y-12087500D01*
X20288827Y-12088261D01*
G37*
G36*
X20478827Y-12088261D02*
G01*
X20482071Y-12090429D01*
X20484239Y-12093673D01*
X20485000Y-12097500D01*
X20485000Y-12242500D01*
X20484239Y-12246327D01*
X20482071Y-12249571D01*
X20478827Y-12251739D01*
X20475000Y-12252500D01*
X20375000Y-12252500D01*
X20371173Y-12251739D01*
X20367929Y-12249571D01*
X20365761Y-12246327D01*
X20365000Y-12242500D01*
X20365000Y-12097500D01*
X20365761Y-12093673D01*
X20367929Y-12090429D01*
X20371173Y-12088261D01*
X20375000Y-12087500D01*
X20475000Y-12087500D01*
X20478827Y-12088261D01*
G37*
G36*
X20774827Y-12112261D02*
G01*
X20778071Y-12114429D01*
X20780239Y-12117673D01*
X20781000Y-12121500D01*
X20781000Y-12211500D01*
X20780239Y-12215327D01*
X20778071Y-12218571D01*
X20774827Y-12220739D01*
X20771000Y-12221500D01*
X20621000Y-12221500D01*
X20617173Y-12220739D01*
X20613929Y-12218571D01*
X20611761Y-12215327D01*
X20611000Y-12211500D01*
X20611000Y-12121500D01*
X20611761Y-12117673D01*
X20613929Y-12114429D01*
X20617173Y-12112261D01*
X20621000Y-12111500D01*
X20771000Y-12111500D01*
X20774827Y-12112261D01*
G37*
G36*
X16246913Y-12023065D02*
G01*
X16248535Y-12024149D01*
X16249619Y-12025771D01*
X16250000Y-12027684D01*
X16250000Y-12197684D01*
X16249619Y-12199598D01*
X16248535Y-12201220D01*
X16246913Y-12202304D01*
X16245000Y-12202684D01*
X16135000Y-12202684D01*
X16133087Y-12202304D01*
X16131464Y-12201220D01*
X16130381Y-12199598D01*
X16130000Y-12197684D01*
X16130000Y-12027684D01*
X16130381Y-12025771D01*
X16131464Y-12024149D01*
X16133087Y-12023065D01*
X16135000Y-12022684D01*
X16245000Y-12022684D01*
X16246913Y-12023065D01*
G37*
G36*
X20120827Y-12098261D02*
G01*
X20124071Y-12100429D01*
X20126239Y-12103673D01*
X20127000Y-12107500D01*
X20127000Y-12190500D01*
X20126239Y-12194327D01*
X20124071Y-12197571D01*
X20120827Y-12199739D01*
X20117000Y-12200500D01*
X20023000Y-12200500D01*
X20019173Y-12199739D01*
X20015929Y-12197571D01*
X20013761Y-12194327D01*
X20013000Y-12190500D01*
X20013000Y-12107500D01*
X20013761Y-12103673D01*
X20015929Y-12100429D01*
X20019173Y-12098261D01*
X20023000Y-12097500D01*
X20117000Y-12097500D01*
X20120827Y-12098261D01*
G37*
G36*
X16116913Y-12155565D02*
G01*
X16118535Y-12156649D01*
X16119619Y-12158271D01*
X16120000Y-12160184D01*
X16120000Y-12195184D01*
X16119619Y-12197098D01*
X16118535Y-12198720D01*
X16116913Y-12199804D01*
X16115000Y-12200184D01*
X16055000Y-12200184D01*
X16053087Y-12199804D01*
X16051464Y-12198720D01*
X16050381Y-12197098D01*
X16050000Y-12195184D01*
X16050000Y-12160184D01*
X16050381Y-12158271D01*
X16051464Y-12156649D01*
X16053087Y-12155565D01*
X16055000Y-12155184D01*
X16115000Y-12155184D01*
X16116913Y-12155565D01*
G37*
G36*
X16326913Y-12155565D02*
G01*
X16328535Y-12156649D01*
X16329619Y-12158271D01*
X16330000Y-12160184D01*
X16330000Y-12195184D01*
X16329619Y-12197098D01*
X16328535Y-12198720D01*
X16326913Y-12199804D01*
X16325000Y-12200184D01*
X16265000Y-12200184D01*
X16263087Y-12199804D01*
X16261464Y-12198720D01*
X16260381Y-12197098D01*
X16260000Y-12195184D01*
X16260000Y-12160184D01*
X16260381Y-12158271D01*
X16261464Y-12156649D01*
X16263087Y-12155565D01*
X16265000Y-12155184D01*
X16325000Y-12155184D01*
X16326913Y-12155565D01*
G37*
G36*
X16480827Y-12094261D02*
G01*
X16484071Y-12096429D01*
X16486239Y-12099673D01*
X16487000Y-12103500D01*
X16487000Y-12186500D01*
X16486239Y-12190327D01*
X16484071Y-12193571D01*
X16480827Y-12195739D01*
X16477000Y-12196500D01*
X16383000Y-12196500D01*
X16379173Y-12195739D01*
X16375929Y-12193571D01*
X16373761Y-12190327D01*
X16373000Y-12186500D01*
X16373000Y-12103500D01*
X16373761Y-12099673D01*
X16375929Y-12096429D01*
X16379173Y-12094261D01*
X16383000Y-12093500D01*
X16477000Y-12093500D01*
X16480827Y-12094261D01*
G37*
G36*
X12846327Y-12055761D02*
G01*
X12849571Y-12057929D01*
X12851739Y-12061173D01*
X12852500Y-12065000D01*
X12852500Y-12165000D01*
X12851739Y-12168827D01*
X12849571Y-12172071D01*
X12846327Y-12174239D01*
X12842500Y-12175000D01*
X12697500Y-12175000D01*
X12693673Y-12174239D01*
X12690429Y-12172071D01*
X12688261Y-12168827D01*
X12687500Y-12165000D01*
X12687500Y-12065000D01*
X12688261Y-12061173D01*
X12690429Y-12057929D01*
X12693673Y-12055761D01*
X12697500Y-12055000D01*
X12842500Y-12055000D01*
X12846327Y-12055761D01*
G37*
G36*
X6027577Y-11989091D02*
G01*
X6044783Y-11996217D01*
X6060267Y-12006564D01*
X6073436Y-12019733D01*
X6083782Y-12035217D01*
X6090909Y-12052423D01*
X6094542Y-12070688D01*
X6094542Y-12089312D01*
X6090909Y-12107577D01*
X6083782Y-12124783D01*
X6073436Y-12140267D01*
X6060267Y-12153436D01*
X6044783Y-12163782D01*
X6027577Y-12170909D01*
X6009312Y-12174542D01*
X5990688Y-12174542D01*
X5972423Y-12170909D01*
X5955217Y-12163782D01*
X5939733Y-12153436D01*
X5926564Y-12140267D01*
X5916217Y-12124783D01*
X5909091Y-12107577D01*
X5905457Y-12089312D01*
X5905457Y-12070688D01*
X5909091Y-12052423D01*
X5916217Y-12035217D01*
X5926564Y-12019733D01*
X5939733Y-12006564D01*
X5955217Y-11996217D01*
X5972423Y-11989091D01*
X5990688Y-11985457D01*
X6009312Y-11985457D01*
X6027577Y-11989091D01*
G37*
G36*
X10027577Y-11989091D02*
G01*
X10044783Y-11996217D01*
X10060267Y-12006564D01*
X10073436Y-12019733D01*
X10083783Y-12035217D01*
X10090909Y-12052423D01*
X10094543Y-12070688D01*
X10094543Y-12089312D01*
X10090909Y-12107577D01*
X10083783Y-12124783D01*
X10073436Y-12140267D01*
X10060267Y-12153436D01*
X10044783Y-12163782D01*
X10027577Y-12170909D01*
X10009312Y-12174542D01*
X9990688Y-12174542D01*
X9972423Y-12170909D01*
X9955217Y-12163782D01*
X9939733Y-12153436D01*
X9926564Y-12140267D01*
X9916218Y-12124783D01*
X9909091Y-12107577D01*
X9905458Y-12089312D01*
X9905458Y-12070688D01*
X9909091Y-12052423D01*
X9916218Y-12035217D01*
X9926564Y-12019733D01*
X9939733Y-12006564D01*
X9955217Y-11996217D01*
X9972423Y-11989091D01*
X9990688Y-11985457D01*
X10009312Y-11985457D01*
X10027577Y-11989091D01*
G37*
G36*
X10527577Y-11989091D02*
G01*
X10544783Y-11996217D01*
X10560267Y-12006564D01*
X10573436Y-12019733D01*
X10583783Y-12035217D01*
X10590909Y-12052423D01*
X10594543Y-12070688D01*
X10594543Y-12089312D01*
X10590909Y-12107577D01*
X10583783Y-12124783D01*
X10573436Y-12140267D01*
X10560267Y-12153436D01*
X10544783Y-12163782D01*
X10527577Y-12170909D01*
X10509312Y-12174542D01*
X10490688Y-12174542D01*
X10472423Y-12170909D01*
X10455217Y-12163782D01*
X10439733Y-12153436D01*
X10426564Y-12140267D01*
X10416218Y-12124783D01*
X10409091Y-12107577D01*
X10405458Y-12089312D01*
X10405458Y-12070688D01*
X10409091Y-12052423D01*
X10416218Y-12035217D01*
X10426564Y-12019733D01*
X10439733Y-12006564D01*
X10455217Y-11996217D01*
X10472423Y-11989091D01*
X10490688Y-11985457D01*
X10509312Y-11985457D01*
X10527577Y-11989091D01*
G37*
G36*
X14527577Y-11989091D02*
G01*
X14544783Y-11996217D01*
X14560267Y-12006564D01*
X14573436Y-12019733D01*
X14583782Y-12035217D01*
X14590909Y-12052423D01*
X14594542Y-12070688D01*
X14594542Y-12089312D01*
X14590909Y-12107577D01*
X14583782Y-12124783D01*
X14573436Y-12140267D01*
X14560267Y-12153436D01*
X14544783Y-12163782D01*
X14527577Y-12170909D01*
X14509312Y-12174542D01*
X14490688Y-12174542D01*
X14472423Y-12170909D01*
X14455217Y-12163782D01*
X14439733Y-12153436D01*
X14426564Y-12140267D01*
X14416217Y-12124783D01*
X14409091Y-12107577D01*
X14405457Y-12089312D01*
X14405457Y-12070688D01*
X14409091Y-12052423D01*
X14416217Y-12035217D01*
X14426564Y-12019733D01*
X14439733Y-12006564D01*
X14455217Y-11996217D01*
X14472423Y-11989091D01*
X14490688Y-11985457D01*
X14509312Y-11985457D01*
X14527577Y-11989091D01*
G37*
G36*
X15027577Y-11989091D02*
G01*
X15044783Y-11996217D01*
X15060267Y-12006564D01*
X15073436Y-12019733D01*
X15083782Y-12035217D01*
X15090909Y-12052423D01*
X15094542Y-12070688D01*
X15094542Y-12089312D01*
X15090909Y-12107577D01*
X15083782Y-12124783D01*
X15073436Y-12140267D01*
X15060267Y-12153436D01*
X15044783Y-12163782D01*
X15027577Y-12170909D01*
X15009312Y-12174542D01*
X14990688Y-12174542D01*
X14972423Y-12170909D01*
X14955217Y-12163782D01*
X14939733Y-12153436D01*
X14926564Y-12140267D01*
X14916217Y-12124783D01*
X14909091Y-12107577D01*
X14905457Y-12089312D01*
X14905457Y-12070688D01*
X14909091Y-12052423D01*
X14916217Y-12035217D01*
X14926564Y-12019733D01*
X14939733Y-12006564D01*
X14955217Y-11996217D01*
X14972423Y-11989091D01*
X14990688Y-11985457D01*
X15009312Y-11985457D01*
X15027577Y-11989091D01*
G37*
G36*
X19027577Y-11989091D02*
G01*
X19044783Y-11996217D01*
X19060267Y-12006564D01*
X19073436Y-12019733D01*
X19083783Y-12035217D01*
X19090909Y-12052423D01*
X19094543Y-12070688D01*
X19094543Y-12089312D01*
X19090909Y-12107577D01*
X19083783Y-12124783D01*
X19073436Y-12140267D01*
X19060267Y-12153436D01*
X19044783Y-12163782D01*
X19027577Y-12170909D01*
X19009312Y-12174542D01*
X18990688Y-12174542D01*
X18972423Y-12170909D01*
X18955217Y-12163782D01*
X18939733Y-12153436D01*
X18926564Y-12140267D01*
X18916218Y-12124783D01*
X18909091Y-12107577D01*
X18905458Y-12089312D01*
X18905458Y-12070688D01*
X18909091Y-12052423D01*
X18916218Y-12035217D01*
X18926564Y-12019733D01*
X18939733Y-12006564D01*
X18955217Y-11996217D01*
X18972423Y-11989091D01*
X18990688Y-11985457D01*
X19009312Y-11985457D01*
X19027577Y-11989091D01*
G37*
G36*
X19527577Y-11989091D02*
G01*
X19544783Y-11996217D01*
X19560267Y-12006564D01*
X19573436Y-12019733D01*
X19583783Y-12035217D01*
X19590909Y-12052423D01*
X19594543Y-12070688D01*
X19594543Y-12089312D01*
X19590909Y-12107577D01*
X19583783Y-12124783D01*
X19573436Y-12140267D01*
X19560267Y-12153436D01*
X19544783Y-12163782D01*
X19527577Y-12170909D01*
X19509312Y-12174542D01*
X19490688Y-12174542D01*
X19472423Y-12170909D01*
X19455217Y-12163782D01*
X19439733Y-12153436D01*
X19426564Y-12140267D01*
X19416218Y-12124783D01*
X19409091Y-12107577D01*
X19405458Y-12089312D01*
X19405458Y-12070688D01*
X19409091Y-12052423D01*
X19416218Y-12035217D01*
X19426564Y-12019733D01*
X19439733Y-12006564D01*
X19455217Y-11996217D01*
X19472423Y-11989091D01*
X19490688Y-11985457D01*
X19509312Y-11985457D01*
X19527577Y-11989091D01*
G37*
G36*
X23527577Y-11989091D02*
G01*
X23544783Y-11996217D01*
X23560267Y-12006564D01*
X23573436Y-12019733D01*
X23583782Y-12035217D01*
X23590909Y-12052423D01*
X23594542Y-12070688D01*
X23594542Y-12089312D01*
X23590909Y-12107577D01*
X23583782Y-12124783D01*
X23573436Y-12140267D01*
X23560267Y-12153436D01*
X23544783Y-12163782D01*
X23527577Y-12170909D01*
X23509312Y-12174542D01*
X23490688Y-12174542D01*
X23472423Y-12170909D01*
X23455217Y-12163782D01*
X23439733Y-12153436D01*
X23426564Y-12140267D01*
X23416217Y-12124783D01*
X23409091Y-12107577D01*
X23405457Y-12089312D01*
X23405457Y-12070688D01*
X23409091Y-12052423D01*
X23416217Y-12035217D01*
X23426564Y-12019733D01*
X23439733Y-12006564D01*
X23455217Y-11996217D01*
X23472423Y-11989091D01*
X23490688Y-11985457D01*
X23509312Y-11985457D01*
X23527577Y-11989091D01*
G37*
G36*
X12590827Y-12055261D02*
G01*
X12594071Y-12057429D01*
X12596239Y-12060673D01*
X12597000Y-12064500D01*
X12597000Y-12147500D01*
X12596239Y-12151327D01*
X12594071Y-12154571D01*
X12590827Y-12156739D01*
X12587000Y-12157500D01*
X12493000Y-12157500D01*
X12489173Y-12156739D01*
X12485929Y-12154571D01*
X12483761Y-12151327D01*
X12483000Y-12147500D01*
X12483000Y-12064500D01*
X12483761Y-12060673D01*
X12485929Y-12057429D01*
X12489173Y-12055261D01*
X12493000Y-12054500D01*
X12587000Y-12054500D01*
X12590827Y-12055261D01*
G37*
G36*
X15910827Y-12036960D02*
G01*
X15914071Y-12039127D01*
X15916239Y-12042372D01*
X15917000Y-12046199D01*
X15917000Y-12129199D01*
X15916239Y-12133025D01*
X15914071Y-12136270D01*
X15910827Y-12138437D01*
X15907000Y-12139199D01*
X15813000Y-12139199D01*
X15809173Y-12138437D01*
X15805929Y-12136270D01*
X15803761Y-12133025D01*
X15803000Y-12129199D01*
X15803000Y-12046199D01*
X15803761Y-12042372D01*
X15805929Y-12039127D01*
X15809173Y-12036960D01*
X15813000Y-12036199D01*
X15907000Y-12036199D01*
X15910827Y-12036960D01*
G37*
G36*
X16116913Y-12090565D02*
G01*
X16118535Y-12091649D01*
X16119619Y-12093271D01*
X16120000Y-12095184D01*
X16120000Y-12130184D01*
X16119619Y-12132098D01*
X16118535Y-12133720D01*
X16116913Y-12134804D01*
X16115000Y-12135184D01*
X16055000Y-12135184D01*
X16053087Y-12134804D01*
X16051464Y-12133720D01*
X16050381Y-12132098D01*
X16050000Y-12130184D01*
X16050000Y-12095184D01*
X16050381Y-12093271D01*
X16051464Y-12091649D01*
X16053087Y-12090565D01*
X16055000Y-12090184D01*
X16115000Y-12090184D01*
X16116913Y-12090565D01*
G37*
G36*
X16326913Y-12090565D02*
G01*
X16328535Y-12091649D01*
X16329619Y-12093271D01*
X16330000Y-12095184D01*
X16330000Y-12130184D01*
X16329619Y-12132098D01*
X16328535Y-12133720D01*
X16326913Y-12134804D01*
X16325000Y-12135184D01*
X16265000Y-12135184D01*
X16263087Y-12134804D01*
X16261464Y-12133720D01*
X16260381Y-12132098D01*
X16260000Y-12130184D01*
X16260000Y-12095184D01*
X16260381Y-12093271D01*
X16261464Y-12091649D01*
X16263087Y-12090565D01*
X16265000Y-12090184D01*
X16325000Y-12090184D01*
X16326913Y-12090565D01*
G37*
G36*
X20774827Y-11985261D02*
G01*
X20778071Y-11987429D01*
X20780239Y-11990673D01*
X20781000Y-11994500D01*
X20781000Y-12084500D01*
X20780239Y-12088327D01*
X20778071Y-12091571D01*
X20774827Y-12093739D01*
X20771000Y-12094500D01*
X20621000Y-12094500D01*
X20617173Y-12093739D01*
X20613929Y-12091571D01*
X20611761Y-12088327D01*
X20611000Y-12084500D01*
X20611000Y-11994500D01*
X20611761Y-11990673D01*
X20613929Y-11987429D01*
X20617173Y-11985261D01*
X20621000Y-11984500D01*
X20771000Y-11984500D01*
X20774827Y-11985261D01*
G37*
G36*
X7993827Y-11441361D02*
G01*
X7997071Y-11443529D01*
X7999239Y-11446773D01*
X8000000Y-11450600D01*
X8000000Y-12070600D01*
X7999239Y-12074427D01*
X7997071Y-12077671D01*
X7993827Y-12079839D01*
X7990000Y-12080600D01*
X7410000Y-12080600D01*
X7406173Y-12079839D01*
X7402929Y-12077671D01*
X7400761Y-12074427D01*
X7400000Y-12070600D01*
X7400000Y-11450600D01*
X7400761Y-11446773D01*
X7402929Y-11443529D01*
X7406173Y-11441361D01*
X7410000Y-11440600D01*
X7990000Y-11440600D01*
X7993827Y-11441361D01*
G37*
G36*
X15744827Y-11948261D02*
G01*
X15748071Y-11950429D01*
X15750239Y-11953673D01*
X15751000Y-11957500D01*
X15751000Y-12062500D01*
X15750239Y-12066327D01*
X15748071Y-12069571D01*
X15744827Y-12071739D01*
X15741000Y-12072500D01*
X15559000Y-12072500D01*
X15555173Y-12071739D01*
X15551929Y-12069571D01*
X15549761Y-12066327D01*
X15549000Y-12062500D01*
X15549000Y-11957500D01*
X15549761Y-11953673D01*
X15551929Y-11950429D01*
X15555173Y-11948261D01*
X15559000Y-11947500D01*
X15741000Y-11947500D01*
X15744827Y-11948261D01*
G37*
G36*
X16116913Y-12025565D02*
G01*
X16118535Y-12026649D01*
X16119619Y-12028271D01*
X16120000Y-12030184D01*
X16120000Y-12065184D01*
X16119619Y-12067098D01*
X16118535Y-12068720D01*
X16116913Y-12069804D01*
X16115000Y-12070184D01*
X16055000Y-12070184D01*
X16053087Y-12069804D01*
X16051464Y-12068720D01*
X16050381Y-12067098D01*
X16050000Y-12065184D01*
X16050000Y-12030184D01*
X16050381Y-12028271D01*
X16051464Y-12026649D01*
X16053087Y-12025565D01*
X16055000Y-12025184D01*
X16115000Y-12025184D01*
X16116913Y-12025565D01*
G37*
G36*
X16326913Y-12025565D02*
G01*
X16328535Y-12026649D01*
X16329619Y-12028271D01*
X16330000Y-12030184D01*
X16330000Y-12065184D01*
X16329619Y-12067098D01*
X16328535Y-12068720D01*
X16326913Y-12069804D01*
X16325000Y-12070184D01*
X16265000Y-12070184D01*
X16263087Y-12069804D01*
X16261464Y-12068720D01*
X16260381Y-12067098D01*
X16260000Y-12065184D01*
X16260000Y-12030184D01*
X16260381Y-12028271D01*
X16261464Y-12026649D01*
X16263087Y-12025565D01*
X16265000Y-12025184D01*
X16325000Y-12025184D01*
X16326913Y-12025565D01*
G37*
G36*
X16480827Y-11962261D02*
G01*
X16484071Y-11964429D01*
X16486239Y-11967673D01*
X16487000Y-11971500D01*
X16487000Y-12054500D01*
X16486239Y-12058327D01*
X16484071Y-12061571D01*
X16480827Y-12063739D01*
X16477000Y-12064500D01*
X16383000Y-12064500D01*
X16379173Y-12063739D01*
X16375929Y-12061571D01*
X16373761Y-12058327D01*
X16373000Y-12054500D01*
X16373000Y-11971500D01*
X16373761Y-11967673D01*
X16375929Y-11964429D01*
X16379173Y-11962261D01*
X16383000Y-11961500D01*
X16477000Y-11961500D01*
X16480827Y-11962261D01*
G37*
G36*
X6897327Y-11849761D02*
G01*
X6900571Y-11851929D01*
X6902739Y-11855173D01*
X6903500Y-11859000D01*
X6903500Y-12041000D01*
X6902739Y-12044827D01*
X6900571Y-12048071D01*
X6897327Y-12050239D01*
X6893500Y-12051000D01*
X6788500Y-12051000D01*
X6784673Y-12050239D01*
X6781429Y-12048071D01*
X6779261Y-12044827D01*
X6778500Y-12041000D01*
X6778500Y-11859000D01*
X6779261Y-11855173D01*
X6781429Y-11851929D01*
X6784673Y-11849761D01*
X6788500Y-11849000D01*
X6893500Y-11849000D01*
X6897327Y-11849761D01*
G37*
G36*
X7175327Y-11849761D02*
G01*
X7178571Y-11851929D01*
X7180739Y-11855173D01*
X7181500Y-11859000D01*
X7181500Y-12041000D01*
X7180739Y-12044827D01*
X7178571Y-12048071D01*
X7175327Y-12050239D01*
X7171500Y-12051000D01*
X7066500Y-12051000D01*
X7062673Y-12050239D01*
X7059429Y-12048071D01*
X7057261Y-12044827D01*
X7056500Y-12041000D01*
X7056500Y-11859000D01*
X7057261Y-11855173D01*
X7059429Y-11851929D01*
X7062673Y-11849761D01*
X7066500Y-11849000D01*
X7171500Y-11849000D01*
X7175327Y-11849761D01*
G37*
G36*
X8287327Y-11849761D02*
G01*
X8290571Y-11851929D01*
X8292739Y-11855173D01*
X8293500Y-11859000D01*
X8293500Y-12041000D01*
X8292739Y-12044827D01*
X8290571Y-12048071D01*
X8287327Y-12050239D01*
X8283500Y-12051000D01*
X8178500Y-12051000D01*
X8174673Y-12050239D01*
X8171429Y-12048071D01*
X8169261Y-12044827D01*
X8168500Y-12041000D01*
X8168500Y-11859000D01*
X8169261Y-11855173D01*
X8171429Y-11851929D01*
X8174673Y-11849761D01*
X8178500Y-11849000D01*
X8283500Y-11849000D01*
X8287327Y-11849761D01*
G37*
G36*
X8565327Y-11849761D02*
G01*
X8568571Y-11851929D01*
X8570739Y-11855173D01*
X8571500Y-11859000D01*
X8571500Y-12041000D01*
X8570739Y-12044827D01*
X8568571Y-12048071D01*
X8565327Y-12050239D01*
X8561500Y-12051000D01*
X8456500Y-12051000D01*
X8452673Y-12050239D01*
X8449429Y-12048071D01*
X8447261Y-12044827D01*
X8446500Y-12041000D01*
X8446500Y-11859000D01*
X8447261Y-11855173D01*
X8449429Y-11851929D01*
X8452673Y-11849761D01*
X8456500Y-11849000D01*
X8561500Y-11849000D01*
X8565327Y-11849761D01*
G37*
G36*
X12590827Y-11923261D02*
G01*
X12594071Y-11925429D01*
X12596239Y-11928673D01*
X12597000Y-11932500D01*
X12597000Y-12015500D01*
X12596239Y-12019327D01*
X12594071Y-12022571D01*
X12590827Y-12024739D01*
X12587000Y-12025500D01*
X12493000Y-12025500D01*
X12489173Y-12024739D01*
X12485929Y-12022571D01*
X12483761Y-12019327D01*
X12483000Y-12015500D01*
X12483000Y-11932500D01*
X12483761Y-11928673D01*
X12485929Y-11925429D01*
X12489173Y-11923261D01*
X12493000Y-11922500D01*
X12587000Y-11922500D01*
X12590827Y-11923261D01*
G37*
G36*
X16754827Y-11888261D02*
G01*
X16758071Y-11890429D01*
X16760239Y-11893673D01*
X16761000Y-11897500D01*
X16761000Y-12002500D01*
X16760239Y-12006327D01*
X16758071Y-12009571D01*
X16754827Y-12011739D01*
X16751000Y-12012500D01*
X16569000Y-12012500D01*
X16565173Y-12011739D01*
X16561929Y-12009571D01*
X16559761Y-12006327D01*
X16559000Y-12002500D01*
X16559000Y-11897500D01*
X16559761Y-11893673D01*
X16561929Y-11890429D01*
X16565173Y-11888261D01*
X16569000Y-11887500D01*
X16751000Y-11887500D01*
X16754827Y-11888261D01*
G37*
G36*
X20288827Y-11848261D02*
G01*
X20292071Y-11850429D01*
X20294239Y-11853673D01*
X20295000Y-11857500D01*
X20295000Y-12002500D01*
X20294239Y-12006327D01*
X20292071Y-12009571D01*
X20288827Y-12011739D01*
X20285000Y-12012500D01*
X20185000Y-12012500D01*
X20181173Y-12011739D01*
X20177929Y-12009571D01*
X20175761Y-12006327D01*
X20175000Y-12002500D01*
X20175000Y-11857500D01*
X20175761Y-11853673D01*
X20177929Y-11850429D01*
X20181173Y-11848261D01*
X20185000Y-11847500D01*
X20285000Y-11847500D01*
X20288827Y-11848261D01*
G37*
G36*
X20478827Y-11848261D02*
G01*
X20482071Y-11850429D01*
X20484239Y-11853673D01*
X20485000Y-11857500D01*
X20485000Y-12002500D01*
X20484239Y-12006327D01*
X20482071Y-12009571D01*
X20478827Y-12011739D01*
X20475000Y-12012500D01*
X20375000Y-12012500D01*
X20371173Y-12011739D01*
X20367929Y-12009571D01*
X20365761Y-12006327D01*
X20365000Y-12002500D01*
X20365000Y-11857500D01*
X20365761Y-11853673D01*
X20367929Y-11850429D01*
X20371173Y-11848261D01*
X20375000Y-11847500D01*
X20475000Y-11847500D01*
X20478827Y-11848261D01*
G37*
G36*
X11964987Y-11676455D02*
G01*
X11965559Y-11676734D01*
X11965796Y-11676772D01*
X11969599Y-11678710D01*
X11975338Y-11681515D01*
X11983485Y-11689662D01*
X11986291Y-11695402D01*
X11988228Y-11699203D01*
X11988265Y-11699441D01*
X11988545Y-11700013D01*
X11990000Y-11710000D01*
X11990000Y-11950000D01*
X11988545Y-11959987D01*
X11988265Y-11960559D01*
X11988228Y-11960796D01*
X11986293Y-11964594D01*
X11983485Y-11970338D01*
X11975338Y-11978485D01*
X11969595Y-11981292D01*
X11965796Y-11983228D01*
X11965559Y-11983265D01*
X11964987Y-11983545D01*
X11955000Y-11985000D01*
X11465000Y-11985000D01*
X11455013Y-11983545D01*
X11454441Y-11983265D01*
X11454204Y-11983228D01*
X11450403Y-11981291D01*
X11444662Y-11978485D01*
X11436515Y-11970338D01*
X11433710Y-11964600D01*
X11431772Y-11960796D01*
X11431735Y-11960559D01*
X11431455Y-11959987D01*
X11430000Y-11950000D01*
X11430000Y-11710000D01*
X11431455Y-11700013D01*
X11431734Y-11699441D01*
X11431772Y-11699204D01*
X11433711Y-11695399D01*
X11436515Y-11689662D01*
X11444662Y-11681515D01*
X11450397Y-11678712D01*
X11454203Y-11676772D01*
X11454441Y-11676735D01*
X11455013Y-11676455D01*
X11465000Y-11675000D01*
X11955000Y-11675000D01*
X11964987Y-11676455D01*
G37*
G36*
X12846327Y-11865761D02*
G01*
X12849571Y-11867929D01*
X12851739Y-11871173D01*
X12852500Y-11875000D01*
X12852500Y-11975000D01*
X12851739Y-11978827D01*
X12849571Y-11982071D01*
X12846327Y-11984239D01*
X12842500Y-11985000D01*
X12697500Y-11985000D01*
X12693673Y-11984239D01*
X12690429Y-11982071D01*
X12688261Y-11978827D01*
X12687500Y-11975000D01*
X12687500Y-11875000D01*
X12688261Y-11871173D01*
X12690429Y-11867929D01*
X12693673Y-11865761D01*
X12697500Y-11865000D01*
X12842500Y-11865000D01*
X12846327Y-11865761D01*
G37*
G36*
X20774827Y-11858261D02*
G01*
X20778071Y-11860429D01*
X20780239Y-11863673D01*
X20781000Y-11867500D01*
X20781000Y-11957500D01*
X20780239Y-11961327D01*
X20778071Y-11964571D01*
X20774827Y-11966739D01*
X20771000Y-11967500D01*
X20621000Y-11967500D01*
X20617173Y-11966739D01*
X20613929Y-11964571D01*
X20611761Y-11961327D01*
X20611000Y-11957500D01*
X20611000Y-11867500D01*
X20611761Y-11863673D01*
X20613929Y-11860429D01*
X20617173Y-11858261D01*
X20621000Y-11857500D01*
X20771000Y-11857500D01*
X20774827Y-11858261D01*
G37*
G36*
X6027577Y-11735091D02*
G01*
X6044783Y-11742217D01*
X6060267Y-11752564D01*
X6073436Y-11765733D01*
X6083782Y-11781217D01*
X6090909Y-11798423D01*
X6094542Y-11816688D01*
X6094542Y-11835312D01*
X6090909Y-11853577D01*
X6083782Y-11870783D01*
X6073436Y-11886267D01*
X6060267Y-11899436D01*
X6044783Y-11909782D01*
X6027577Y-11916909D01*
X6009312Y-11920542D01*
X5990688Y-11920542D01*
X5972423Y-11916909D01*
X5955217Y-11909782D01*
X5939733Y-11899436D01*
X5926564Y-11886267D01*
X5916217Y-11870783D01*
X5909091Y-11853577D01*
X5905457Y-11835312D01*
X5905457Y-11816688D01*
X5909091Y-11798423D01*
X5916217Y-11781217D01*
X5926564Y-11765733D01*
X5939733Y-11752564D01*
X5955217Y-11742217D01*
X5972423Y-11735091D01*
X5990688Y-11731457D01*
X6009312Y-11731457D01*
X6027577Y-11735091D01*
G37*
G36*
X10027577Y-11735091D02*
G01*
X10044783Y-11742217D01*
X10060267Y-11752564D01*
X10073436Y-11765733D01*
X10083783Y-11781217D01*
X10090909Y-11798423D01*
X10094543Y-11816688D01*
X10094543Y-11835312D01*
X10090909Y-11853577D01*
X10083783Y-11870783D01*
X10073436Y-11886267D01*
X10060267Y-11899436D01*
X10044783Y-11909782D01*
X10027577Y-11916909D01*
X10009312Y-11920542D01*
X9990688Y-11920542D01*
X9972423Y-11916909D01*
X9955217Y-11909782D01*
X9939733Y-11899436D01*
X9926564Y-11886267D01*
X9916218Y-11870783D01*
X9909091Y-11853577D01*
X9905458Y-11835312D01*
X9905458Y-11816688D01*
X9909091Y-11798423D01*
X9916218Y-11781217D01*
X9926564Y-11765733D01*
X9939733Y-11752564D01*
X9955217Y-11742217D01*
X9972423Y-11735091D01*
X9990688Y-11731457D01*
X10009312Y-11731457D01*
X10027577Y-11735091D01*
G37*
G36*
X10527577Y-11735091D02*
G01*
X10544783Y-11742217D01*
X10560267Y-11752564D01*
X10573436Y-11765733D01*
X10583783Y-11781217D01*
X10590909Y-11798423D01*
X10594543Y-11816688D01*
X10594543Y-11835312D01*
X10590909Y-11853577D01*
X10583783Y-11870783D01*
X10573436Y-11886267D01*
X10560267Y-11899436D01*
X10544783Y-11909782D01*
X10527577Y-11916909D01*
X10509312Y-11920542D01*
X10490688Y-11920542D01*
X10472423Y-11916909D01*
X10455217Y-11909782D01*
X10439733Y-11899436D01*
X10426564Y-11886267D01*
X10416218Y-11870783D01*
X10409091Y-11853577D01*
X10405458Y-11835312D01*
X10405458Y-11816688D01*
X10409091Y-11798423D01*
X10416218Y-11781217D01*
X10426564Y-11765733D01*
X10439733Y-11752564D01*
X10455217Y-11742217D01*
X10472423Y-11735091D01*
X10490688Y-11731457D01*
X10509312Y-11731457D01*
X10527577Y-11735091D01*
G37*
G36*
X14527577Y-11735091D02*
G01*
X14544783Y-11742217D01*
X14560267Y-11752564D01*
X14573436Y-11765733D01*
X14583782Y-11781217D01*
X14590909Y-11798423D01*
X14594542Y-11816688D01*
X14594542Y-11835312D01*
X14590909Y-11853577D01*
X14583782Y-11870783D01*
X14573436Y-11886267D01*
X14560267Y-11899436D01*
X14544783Y-11909782D01*
X14527577Y-11916909D01*
X14509312Y-11920542D01*
X14490688Y-11920542D01*
X14472423Y-11916909D01*
X14455217Y-11909782D01*
X14439733Y-11899436D01*
X14426564Y-11886267D01*
X14416217Y-11870783D01*
X14409091Y-11853577D01*
X14405457Y-11835312D01*
X14405457Y-11816688D01*
X14409091Y-11798423D01*
X14416217Y-11781217D01*
X14426564Y-11765733D01*
X14439733Y-11752564D01*
X14455217Y-11742217D01*
X14472423Y-11735091D01*
X14490688Y-11731457D01*
X14509312Y-11731457D01*
X14527577Y-11735091D01*
G37*
G36*
X15027577Y-11735091D02*
G01*
X15044783Y-11742217D01*
X15060267Y-11752564D01*
X15073436Y-11765733D01*
X15083782Y-11781217D01*
X15090909Y-11798423D01*
X15094542Y-11816688D01*
X15094542Y-11835312D01*
X15090909Y-11853577D01*
X15083782Y-11870783D01*
X15073436Y-11886267D01*
X15060267Y-11899436D01*
X15044783Y-11909782D01*
X15027577Y-11916909D01*
X15009312Y-11920542D01*
X14990688Y-11920542D01*
X14972423Y-11916909D01*
X14955217Y-11909782D01*
X14939733Y-11899436D01*
X14926564Y-11886267D01*
X14916217Y-11870783D01*
X14909091Y-11853577D01*
X14905457Y-11835312D01*
X14905457Y-11816688D01*
X14909091Y-11798423D01*
X14916217Y-11781217D01*
X14926564Y-11765733D01*
X14939733Y-11752564D01*
X14955217Y-11742217D01*
X14972423Y-11735091D01*
X14990688Y-11731457D01*
X15009312Y-11731457D01*
X15027577Y-11735091D01*
G37*
G36*
X19027577Y-11735091D02*
G01*
X19044783Y-11742217D01*
X19060267Y-11752564D01*
X19073436Y-11765733D01*
X19083783Y-11781217D01*
X19090909Y-11798423D01*
X19094543Y-11816688D01*
X19094543Y-11835312D01*
X19090909Y-11853577D01*
X19083783Y-11870783D01*
X19073436Y-11886267D01*
X19060267Y-11899436D01*
X19044783Y-11909782D01*
X19027577Y-11916909D01*
X19009312Y-11920542D01*
X18990688Y-11920542D01*
X18972423Y-11916909D01*
X18955217Y-11909782D01*
X18939733Y-11899436D01*
X18926564Y-11886267D01*
X18916218Y-11870783D01*
X18909091Y-11853577D01*
X18905458Y-11835312D01*
X18905458Y-11816688D01*
X18909091Y-11798423D01*
X18916218Y-11781217D01*
X18926564Y-11765733D01*
X18939733Y-11752564D01*
X18955217Y-11742217D01*
X18972423Y-11735091D01*
X18990688Y-11731457D01*
X19009312Y-11731457D01*
X19027577Y-11735091D01*
G37*
G36*
X19527577Y-11735091D02*
G01*
X19544783Y-11742217D01*
X19560267Y-11752564D01*
X19573436Y-11765733D01*
X19583783Y-11781217D01*
X19590909Y-11798423D01*
X19594543Y-11816688D01*
X19594543Y-11835312D01*
X19590909Y-11853577D01*
X19583783Y-11870783D01*
X19573436Y-11886267D01*
X19560267Y-11899436D01*
X19544783Y-11909782D01*
X19527577Y-11916909D01*
X19509312Y-11920542D01*
X19490688Y-11920542D01*
X19472423Y-11916909D01*
X19455217Y-11909782D01*
X19439733Y-11899436D01*
X19426564Y-11886267D01*
X19416218Y-11870783D01*
X19409091Y-11853577D01*
X19405458Y-11835312D01*
X19405458Y-11816688D01*
X19409091Y-11798423D01*
X19416218Y-11781217D01*
X19426564Y-11765733D01*
X19439733Y-11752564D01*
X19455217Y-11742217D01*
X19472423Y-11735091D01*
X19490688Y-11731457D01*
X19509312Y-11731457D01*
X19527577Y-11735091D01*
G37*
G36*
X23527577Y-11735091D02*
G01*
X23544783Y-11742217D01*
X23560267Y-11752564D01*
X23573436Y-11765733D01*
X23583782Y-11781217D01*
X23590909Y-11798423D01*
X23594542Y-11816688D01*
X23594542Y-11835312D01*
X23590909Y-11853577D01*
X23583782Y-11870783D01*
X23573436Y-11886267D01*
X23560267Y-11899436D01*
X23544783Y-11909782D01*
X23527577Y-11916909D01*
X23509312Y-11920542D01*
X23490688Y-11920542D01*
X23472423Y-11916909D01*
X23455217Y-11909782D01*
X23439733Y-11899436D01*
X23426564Y-11886267D01*
X23416217Y-11870783D01*
X23409091Y-11853577D01*
X23405457Y-11835312D01*
X23405457Y-11816688D01*
X23409091Y-11798423D01*
X23416217Y-11781217D01*
X23426564Y-11765733D01*
X23439733Y-11752564D01*
X23455217Y-11742217D01*
X23472423Y-11735091D01*
X23490688Y-11731457D01*
X23509312Y-11731457D01*
X23527577Y-11735091D01*
G37*
G36*
X17226327Y-11765761D02*
G01*
X17229571Y-11767929D01*
X17231739Y-11771173D01*
X17232500Y-11775000D01*
X17232500Y-11875000D01*
X17231739Y-11878827D01*
X17229571Y-11882071D01*
X17226327Y-11884239D01*
X17222500Y-11885000D01*
X17077500Y-11885000D01*
X17073673Y-11884239D01*
X17070429Y-11882071D01*
X17068261Y-11878827D01*
X17067500Y-11875000D01*
X17067500Y-11775000D01*
X17068261Y-11771173D01*
X17070429Y-11767929D01*
X17073673Y-11765761D01*
X17077500Y-11765000D01*
X17222500Y-11765000D01*
X17226327Y-11765761D01*
G37*
G36*
X20774827Y-11731261D02*
G01*
X20778071Y-11733429D01*
X20780239Y-11736673D01*
X20781000Y-11740500D01*
X20781000Y-11830500D01*
X20780239Y-11834327D01*
X20778071Y-11837571D01*
X20774827Y-11839739D01*
X20771000Y-11840500D01*
X20621000Y-11840500D01*
X20617173Y-11839739D01*
X20613929Y-11837571D01*
X20611761Y-11834327D01*
X20611000Y-11830500D01*
X20611000Y-11740500D01*
X20611761Y-11736673D01*
X20613929Y-11733429D01*
X20617173Y-11731261D01*
X20621000Y-11730500D01*
X20771000Y-11730500D01*
X20774827Y-11731261D01*
G37*
G36*
X6897327Y-11599761D02*
G01*
X6900571Y-11601929D01*
X6902739Y-11605173D01*
X6903500Y-11609000D01*
X6903500Y-11791000D01*
X6902739Y-11794827D01*
X6900571Y-11798071D01*
X6897327Y-11800239D01*
X6893500Y-11801000D01*
X6788500Y-11801000D01*
X6784673Y-11800239D01*
X6781429Y-11798071D01*
X6779261Y-11794827D01*
X6778500Y-11791000D01*
X6778500Y-11609000D01*
X6779261Y-11605173D01*
X6781429Y-11601929D01*
X6784673Y-11599761D01*
X6788500Y-11599000D01*
X6893500Y-11599000D01*
X6897327Y-11599761D01*
G37*
G36*
X7175327Y-11599761D02*
G01*
X7178571Y-11601929D01*
X7180739Y-11605173D01*
X7181500Y-11609000D01*
X7181500Y-11791000D01*
X7180739Y-11794827D01*
X7178571Y-11798071D01*
X7175327Y-11800239D01*
X7171500Y-11801000D01*
X7066500Y-11801000D01*
X7062673Y-11800239D01*
X7059429Y-11798071D01*
X7057261Y-11794827D01*
X7056500Y-11791000D01*
X7056500Y-11609000D01*
X7057261Y-11605173D01*
X7059429Y-11601929D01*
X7062673Y-11599761D01*
X7066500Y-11599000D01*
X7171500Y-11599000D01*
X7175327Y-11599761D01*
G37*
G36*
X8287327Y-11599761D02*
G01*
X8290571Y-11601929D01*
X8292739Y-11605173D01*
X8293500Y-11609000D01*
X8293500Y-11791000D01*
X8292739Y-11794827D01*
X8290571Y-11798071D01*
X8287327Y-11800239D01*
X8283500Y-11801000D01*
X8178500Y-11801000D01*
X8174673Y-11800239D01*
X8171429Y-11798071D01*
X8169261Y-11794827D01*
X8168500Y-11791000D01*
X8168500Y-11609000D01*
X8169261Y-11605173D01*
X8171429Y-11601929D01*
X8174673Y-11599761D01*
X8178500Y-11599000D01*
X8283500Y-11599000D01*
X8287327Y-11599761D01*
G37*
G36*
X8565327Y-11599761D02*
G01*
X8568571Y-11601929D01*
X8570739Y-11605173D01*
X8571500Y-11609000D01*
X8571500Y-11791000D01*
X8570739Y-11794827D01*
X8568571Y-11798071D01*
X8565327Y-11800239D01*
X8561500Y-11801000D01*
X8456500Y-11801000D01*
X8452673Y-11800239D01*
X8449429Y-11798071D01*
X8447261Y-11794827D01*
X8446500Y-11791000D01*
X8446500Y-11609000D01*
X8447261Y-11605173D01*
X8449429Y-11601929D01*
X8452673Y-11599761D01*
X8456500Y-11599000D01*
X8561500Y-11599000D01*
X8565327Y-11599761D01*
G37*
G36*
X20774827Y-11604261D02*
G01*
X20778071Y-11606429D01*
X20780239Y-11609673D01*
X20781000Y-11613500D01*
X20781000Y-11703500D01*
X20780239Y-11707327D01*
X20778071Y-11710571D01*
X20774827Y-11712739D01*
X20771000Y-11713500D01*
X20621000Y-11713500D01*
X20617173Y-11712739D01*
X20613929Y-11710571D01*
X20611761Y-11707327D01*
X20611000Y-11703500D01*
X20611000Y-11613500D01*
X20611761Y-11609673D01*
X20613929Y-11606429D01*
X20617173Y-11604261D01*
X20621000Y-11603500D01*
X20771000Y-11603500D01*
X20774827Y-11604261D01*
G37*
G36*
X17226327Y-11575761D02*
G01*
X17229571Y-11577929D01*
X17231739Y-11581173D01*
X17232500Y-11585000D01*
X17232500Y-11685000D01*
X17231739Y-11688827D01*
X17229571Y-11692071D01*
X17226327Y-11694239D01*
X17222500Y-11695000D01*
X17077500Y-11695000D01*
X17073673Y-11694239D01*
X17070429Y-11692071D01*
X17068261Y-11688827D01*
X17067500Y-11685000D01*
X17067500Y-11585000D01*
X17068261Y-11581173D01*
X17070429Y-11577929D01*
X17073673Y-11575761D01*
X17077500Y-11575000D01*
X17222500Y-11575000D01*
X17226327Y-11575761D01*
G37*
G36*
X6027577Y-11481091D02*
G01*
X6044783Y-11488217D01*
X6060267Y-11498564D01*
X6073436Y-11511733D01*
X6083782Y-11527217D01*
X6090909Y-11544423D01*
X6094542Y-11562688D01*
X6094542Y-11581312D01*
X6090909Y-11599577D01*
X6083782Y-11616783D01*
X6073436Y-11632267D01*
X6060267Y-11645436D01*
X6044783Y-11655782D01*
X6027577Y-11662909D01*
X6009312Y-11666542D01*
X5990688Y-11666542D01*
X5972423Y-11662909D01*
X5955217Y-11655782D01*
X5939733Y-11645436D01*
X5926564Y-11632267D01*
X5916217Y-11616783D01*
X5909091Y-11599577D01*
X5905457Y-11581312D01*
X5905457Y-11562688D01*
X5909091Y-11544423D01*
X5916217Y-11527217D01*
X5926564Y-11511733D01*
X5939733Y-11498564D01*
X5955217Y-11488217D01*
X5972423Y-11481091D01*
X5990688Y-11477457D01*
X6009312Y-11477457D01*
X6027577Y-11481091D01*
G37*
G36*
X10027577Y-11481091D02*
G01*
X10044783Y-11488217D01*
X10060267Y-11498564D01*
X10073436Y-11511733D01*
X10083783Y-11527217D01*
X10090909Y-11544423D01*
X10094543Y-11562688D01*
X10094543Y-11581312D01*
X10090909Y-11599577D01*
X10083783Y-11616783D01*
X10073436Y-11632267D01*
X10060267Y-11645436D01*
X10044783Y-11655782D01*
X10027577Y-11662909D01*
X10009312Y-11666542D01*
X9990688Y-11666542D01*
X9972423Y-11662909D01*
X9955217Y-11655782D01*
X9939733Y-11645436D01*
X9926564Y-11632267D01*
X9916218Y-11616783D01*
X9909091Y-11599577D01*
X9905458Y-11581312D01*
X9905458Y-11562688D01*
X9909091Y-11544423D01*
X9916218Y-11527217D01*
X9926564Y-11511733D01*
X9939733Y-11498564D01*
X9955217Y-11488217D01*
X9972423Y-11481091D01*
X9990688Y-11477457D01*
X10009312Y-11477457D01*
X10027577Y-11481091D01*
G37*
G36*
X10527577Y-11481091D02*
G01*
X10544783Y-11488217D01*
X10560267Y-11498564D01*
X10573436Y-11511733D01*
X10583783Y-11527217D01*
X10590909Y-11544423D01*
X10594543Y-11562688D01*
X10594543Y-11581312D01*
X10590909Y-11599577D01*
X10583783Y-11616783D01*
X10573436Y-11632267D01*
X10560267Y-11645436D01*
X10544783Y-11655782D01*
X10527577Y-11662909D01*
X10509312Y-11666542D01*
X10490688Y-11666542D01*
X10472423Y-11662909D01*
X10455217Y-11655782D01*
X10439733Y-11645436D01*
X10426564Y-11632267D01*
X10416218Y-11616783D01*
X10409091Y-11599577D01*
X10405458Y-11581312D01*
X10405458Y-11562688D01*
X10409091Y-11544423D01*
X10416218Y-11527217D01*
X10426564Y-11511733D01*
X10439733Y-11498564D01*
X10455217Y-11488217D01*
X10472423Y-11481091D01*
X10490688Y-11477457D01*
X10509312Y-11477457D01*
X10527577Y-11481091D01*
G37*
G36*
X14527577Y-11481091D02*
G01*
X14544783Y-11488217D01*
X14560267Y-11498564D01*
X14573436Y-11511733D01*
X14583782Y-11527217D01*
X14590909Y-11544423D01*
X14594542Y-11562688D01*
X14594542Y-11581312D01*
X14590909Y-11599577D01*
X14583782Y-11616783D01*
X14573436Y-11632267D01*
X14560267Y-11645436D01*
X14544783Y-11655782D01*
X14527577Y-11662909D01*
X14509312Y-11666542D01*
X14490688Y-11666542D01*
X14472423Y-11662909D01*
X14455217Y-11655782D01*
X14439733Y-11645436D01*
X14426564Y-11632267D01*
X14416217Y-11616783D01*
X14409091Y-11599577D01*
X14405457Y-11581312D01*
X14405457Y-11562688D01*
X14409091Y-11544423D01*
X14416217Y-11527217D01*
X14426564Y-11511733D01*
X14439733Y-11498564D01*
X14455217Y-11488217D01*
X14472423Y-11481091D01*
X14490688Y-11477457D01*
X14509312Y-11477457D01*
X14527577Y-11481091D01*
G37*
G36*
X15027577Y-11481091D02*
G01*
X15044783Y-11488217D01*
X15060267Y-11498564D01*
X15073436Y-11511733D01*
X15083782Y-11527217D01*
X15090909Y-11544423D01*
X15094542Y-11562688D01*
X15094542Y-11581312D01*
X15090909Y-11599577D01*
X15083782Y-11616783D01*
X15073436Y-11632267D01*
X15060267Y-11645436D01*
X15044783Y-11655782D01*
X15027577Y-11662909D01*
X15009312Y-11666542D01*
X14990688Y-11666542D01*
X14972423Y-11662909D01*
X14955217Y-11655782D01*
X14939733Y-11645436D01*
X14926564Y-11632267D01*
X14916217Y-11616783D01*
X14909091Y-11599577D01*
X14905457Y-11581312D01*
X14905457Y-11562688D01*
X14909091Y-11544423D01*
X14916217Y-11527217D01*
X14926564Y-11511733D01*
X14939733Y-11498564D01*
X14955217Y-11488217D01*
X14972423Y-11481091D01*
X14990688Y-11477457D01*
X15009312Y-11477457D01*
X15027577Y-11481091D01*
G37*
G36*
X19027577Y-11481091D02*
G01*
X19044783Y-11488217D01*
X19060267Y-11498564D01*
X19073436Y-11511733D01*
X19083783Y-11527217D01*
X19090909Y-11544423D01*
X19094543Y-11562688D01*
X19094543Y-11581312D01*
X19090909Y-11599577D01*
X19083783Y-11616783D01*
X19073436Y-11632267D01*
X19060267Y-11645436D01*
X19044783Y-11655782D01*
X19027577Y-11662909D01*
X19009312Y-11666542D01*
X18990688Y-11666542D01*
X18972423Y-11662909D01*
X18955217Y-11655782D01*
X18939733Y-11645436D01*
X18926564Y-11632267D01*
X18916218Y-11616783D01*
X18909091Y-11599577D01*
X18905458Y-11581312D01*
X18905458Y-11562688D01*
X18909091Y-11544423D01*
X18916218Y-11527217D01*
X18926564Y-11511733D01*
X18939733Y-11498564D01*
X18955217Y-11488217D01*
X18972423Y-11481091D01*
X18990688Y-11477457D01*
X19009312Y-11477457D01*
X19027577Y-11481091D01*
G37*
G36*
X19527577Y-11481091D02*
G01*
X19544783Y-11488217D01*
X19560267Y-11498564D01*
X19573436Y-11511733D01*
X19583783Y-11527217D01*
X19590909Y-11544423D01*
X19594543Y-11562688D01*
X19594543Y-11581312D01*
X19590909Y-11599577D01*
X19583783Y-11616783D01*
X19573436Y-11632267D01*
X19560267Y-11645436D01*
X19544783Y-11655782D01*
X19527577Y-11662909D01*
X19509312Y-11666542D01*
X19490688Y-11666542D01*
X19472423Y-11662909D01*
X19455217Y-11655782D01*
X19439733Y-11645436D01*
X19426564Y-11632267D01*
X19416218Y-11616783D01*
X19409091Y-11599577D01*
X19405458Y-11581312D01*
X19405458Y-11562688D01*
X19409091Y-11544423D01*
X19416218Y-11527217D01*
X19426564Y-11511733D01*
X19439733Y-11498564D01*
X19455217Y-11488217D01*
X19472423Y-11481091D01*
X19490688Y-11477457D01*
X19509312Y-11477457D01*
X19527577Y-11481091D01*
G37*
G36*
X23527577Y-11481091D02*
G01*
X23544783Y-11488217D01*
X23560267Y-11498564D01*
X23573436Y-11511733D01*
X23583782Y-11527217D01*
X23590909Y-11544423D01*
X23594542Y-11562688D01*
X23594542Y-11581312D01*
X23590909Y-11599577D01*
X23583782Y-11616783D01*
X23573436Y-11632267D01*
X23560267Y-11645436D01*
X23544783Y-11655782D01*
X23527577Y-11662909D01*
X23509312Y-11666542D01*
X23490688Y-11666542D01*
X23472423Y-11662909D01*
X23455217Y-11655782D01*
X23439733Y-11645436D01*
X23426564Y-11632267D01*
X23416217Y-11616783D01*
X23409091Y-11599577D01*
X23405457Y-11581312D01*
X23405457Y-11562688D01*
X23409091Y-11544423D01*
X23416217Y-11527217D01*
X23426564Y-11511733D01*
X23439733Y-11498564D01*
X23455217Y-11488217D01*
X23472423Y-11481091D01*
X23490688Y-11477457D01*
X23509312Y-11477457D01*
X23527577Y-11481091D01*
G37*
G36*
X21375307Y-11583045D02*
G01*
X21384351Y-11588266D01*
X21391734Y-11595649D01*
X21396955Y-11604693D01*
X21399658Y-11614779D01*
X21399658Y-11625221D01*
X21396955Y-11635307D01*
X21391734Y-11644350D01*
X21384351Y-11651734D01*
X21375307Y-11656955D01*
X21365221Y-11659658D01*
X21354779Y-11659658D01*
X21344693Y-11656955D01*
X21335650Y-11651734D01*
X21328266Y-11644350D01*
X21323045Y-11635307D01*
X21320342Y-11625221D01*
X21320342Y-11614779D01*
X21323045Y-11604693D01*
X21328266Y-11595649D01*
X21335650Y-11588266D01*
X21344693Y-11583045D01*
X21354779Y-11580342D01*
X21365221Y-11580342D01*
X21375307Y-11583045D01*
G37*
G36*
X20774827Y-11477261D02*
G01*
X20778071Y-11479429D01*
X20780239Y-11482673D01*
X20781000Y-11486500D01*
X20781000Y-11576500D01*
X20780239Y-11580327D01*
X20778071Y-11583571D01*
X20774827Y-11585739D01*
X20771000Y-11586500D01*
X20621000Y-11586500D01*
X20617173Y-11585739D01*
X20613929Y-11583571D01*
X20611761Y-11580327D01*
X20611000Y-11576500D01*
X20611000Y-11486500D01*
X20611761Y-11482673D01*
X20613929Y-11479429D01*
X20617173Y-11477261D01*
X20621000Y-11476500D01*
X20771000Y-11476500D01*
X20774827Y-11477261D01*
G37*
G36*
X7052827Y-11443761D02*
G01*
X7056071Y-11445929D01*
X7058239Y-11449173D01*
X7059000Y-11453000D01*
X7059000Y-11547000D01*
X7058239Y-11550827D01*
X7056071Y-11554071D01*
X7052827Y-11556239D01*
X7049000Y-11557000D01*
X6966000Y-11557000D01*
X6962173Y-11556239D01*
X6958929Y-11554071D01*
X6956761Y-11550827D01*
X6956000Y-11547000D01*
X6956000Y-11453000D01*
X6956761Y-11449173D01*
X6958929Y-11445929D01*
X6962173Y-11443761D01*
X6966000Y-11443000D01*
X7049000Y-11443000D01*
X7052827Y-11443761D01*
G37*
G36*
X7184827Y-11443761D02*
G01*
X7188071Y-11445929D01*
X7190239Y-11449173D01*
X7191000Y-11453000D01*
X7191000Y-11547000D01*
X7190239Y-11550827D01*
X7188071Y-11554071D01*
X7184827Y-11556239D01*
X7181000Y-11557000D01*
X7098000Y-11557000D01*
X7094173Y-11556239D01*
X7090929Y-11554071D01*
X7088761Y-11550827D01*
X7088000Y-11547000D01*
X7088000Y-11453000D01*
X7088761Y-11449173D01*
X7090929Y-11445929D01*
X7094173Y-11443761D01*
X7098000Y-11443000D01*
X7181000Y-11443000D01*
X7184827Y-11443761D01*
G37*
G36*
X8287327Y-11349761D02*
G01*
X8290571Y-11351929D01*
X8292739Y-11355173D01*
X8293500Y-11359000D01*
X8293500Y-11541000D01*
X8292739Y-11544827D01*
X8290571Y-11548071D01*
X8287327Y-11550239D01*
X8283500Y-11551000D01*
X8178500Y-11551000D01*
X8174673Y-11550239D01*
X8171429Y-11548071D01*
X8169261Y-11544827D01*
X8168500Y-11541000D01*
X8168500Y-11359000D01*
X8169261Y-11355173D01*
X8171429Y-11351929D01*
X8174673Y-11349761D01*
X8178500Y-11349000D01*
X8283500Y-11349000D01*
X8287327Y-11349761D01*
G37*
G36*
X8565327Y-11349761D02*
G01*
X8568571Y-11351929D01*
X8570739Y-11355173D01*
X8571500Y-11359000D01*
X8571500Y-11541000D01*
X8570739Y-11544827D01*
X8568571Y-11548071D01*
X8565327Y-11550239D01*
X8561500Y-11551000D01*
X8456500Y-11551000D01*
X8452673Y-11550239D01*
X8449429Y-11548071D01*
X8447261Y-11544827D01*
X8446500Y-11541000D01*
X8446500Y-11359000D01*
X8447261Y-11355173D01*
X8449429Y-11351929D01*
X8452673Y-11349761D01*
X8456500Y-11349000D01*
X8561500Y-11349000D01*
X8565327Y-11349761D01*
G37*
G36*
X20869827Y-11270761D02*
G01*
X20873071Y-11272929D01*
X20875239Y-11276173D01*
X20876000Y-11280000D01*
X20876000Y-11430000D01*
X20875239Y-11433827D01*
X20873071Y-11437071D01*
X20869827Y-11439239D01*
X20866000Y-11440000D01*
X20776000Y-11440000D01*
X20772173Y-11439239D01*
X20768929Y-11437071D01*
X20766761Y-11433827D01*
X20766000Y-11430000D01*
X20766000Y-11280000D01*
X20766761Y-11276173D01*
X20768929Y-11272929D01*
X20772173Y-11270761D01*
X20776000Y-11270000D01*
X20866000Y-11270000D01*
X20869827Y-11270761D01*
G37*
G36*
X20996827Y-11270761D02*
G01*
X21000071Y-11272929D01*
X21002239Y-11276173D01*
X21003000Y-11280000D01*
X21003000Y-11430000D01*
X21002239Y-11433827D01*
X21000071Y-11437071D01*
X20996827Y-11439239D01*
X20993000Y-11440000D01*
X20903000Y-11440000D01*
X20899173Y-11439239D01*
X20895929Y-11437071D01*
X20893761Y-11433827D01*
X20893000Y-11430000D01*
X20893000Y-11280000D01*
X20893761Y-11276173D01*
X20895929Y-11272929D01*
X20899173Y-11270761D01*
X20903000Y-11270000D01*
X20993000Y-11270000D01*
X20996827Y-11270761D01*
G37*
G36*
X21123827Y-11270761D02*
G01*
X21127071Y-11272929D01*
X21129239Y-11276173D01*
X21130000Y-11280000D01*
X21130000Y-11430000D01*
X21129239Y-11433827D01*
X21127071Y-11437071D01*
X21123827Y-11439239D01*
X21120000Y-11440000D01*
X21030000Y-11440000D01*
X21026173Y-11439239D01*
X21022929Y-11437071D01*
X21020761Y-11433827D01*
X21020000Y-11430000D01*
X21020000Y-11280000D01*
X21020761Y-11276173D01*
X21022929Y-11272929D01*
X21026173Y-11270761D01*
X21030000Y-11270000D01*
X21120000Y-11270000D01*
X21123827Y-11270761D01*
G37*
G36*
X21250827Y-11270761D02*
G01*
X21254071Y-11272929D01*
X21256239Y-11276173D01*
X21257000Y-11280000D01*
X21257000Y-11430000D01*
X21256239Y-11433827D01*
X21254071Y-11437071D01*
X21250827Y-11439239D01*
X21247000Y-11440000D01*
X21157000Y-11440000D01*
X21153173Y-11439239D01*
X21149929Y-11437071D01*
X21147761Y-11433827D01*
X21147000Y-11430000D01*
X21147000Y-11280000D01*
X21147761Y-11276173D01*
X21149929Y-11272929D01*
X21153173Y-11270761D01*
X21157000Y-11270000D01*
X21247000Y-11270000D01*
X21250827Y-11270761D01*
G37*
G36*
X21377827Y-11270761D02*
G01*
X21381071Y-11272929D01*
X21383239Y-11276173D01*
X21384000Y-11280000D01*
X21384000Y-11430000D01*
X21383239Y-11433827D01*
X21381071Y-11437071D01*
X21377827Y-11439239D01*
X21374000Y-11440000D01*
X21284000Y-11440000D01*
X21280173Y-11439239D01*
X21276929Y-11437071D01*
X21274761Y-11433827D01*
X21274000Y-11430000D01*
X21274000Y-11280000D01*
X21274761Y-11276173D01*
X21276929Y-11272929D01*
X21280173Y-11270761D01*
X21284000Y-11270000D01*
X21374000Y-11270000D01*
X21377827Y-11270761D01*
G37*
G36*
X21504827Y-11270761D02*
G01*
X21508071Y-11272929D01*
X21510239Y-11276173D01*
X21511000Y-11280000D01*
X21511000Y-11430000D01*
X21510239Y-11433827D01*
X21508071Y-11437071D01*
X21504827Y-11439239D01*
X21501000Y-11440000D01*
X21411000Y-11440000D01*
X21407173Y-11439239D01*
X21403929Y-11437071D01*
X21401761Y-11433827D01*
X21401000Y-11430000D01*
X21401000Y-11280000D01*
X21401761Y-11276173D01*
X21403929Y-11272929D01*
X21407173Y-11270761D01*
X21411000Y-11270000D01*
X21501000Y-11270000D01*
X21504827Y-11270761D01*
G37*
G36*
X21631827Y-11270761D02*
G01*
X21635071Y-11272929D01*
X21637239Y-11276173D01*
X21638000Y-11280000D01*
X21638000Y-11430000D01*
X21637239Y-11433827D01*
X21635071Y-11437071D01*
X21631827Y-11439239D01*
X21628000Y-11440000D01*
X21538000Y-11440000D01*
X21534173Y-11439239D01*
X21530929Y-11437071D01*
X21528761Y-11433827D01*
X21528000Y-11430000D01*
X21528000Y-11280000D01*
X21528761Y-11276173D01*
X21530929Y-11272929D01*
X21534173Y-11270761D01*
X21538000Y-11270000D01*
X21628000Y-11270000D01*
X21631827Y-11270761D01*
G37*
G36*
X21758827Y-11270761D02*
G01*
X21762071Y-11272929D01*
X21764239Y-11276173D01*
X21765000Y-11280000D01*
X21765000Y-11430000D01*
X21764239Y-11433827D01*
X21762071Y-11437071D01*
X21758827Y-11439239D01*
X21755000Y-11440000D01*
X21665000Y-11440000D01*
X21661173Y-11439239D01*
X21657929Y-11437071D01*
X21655761Y-11433827D01*
X21655000Y-11430000D01*
X21655000Y-11280000D01*
X21655761Y-11276173D01*
X21657929Y-11272929D01*
X21661173Y-11270761D01*
X21665000Y-11270000D01*
X21755000Y-11270000D01*
X21758827Y-11270761D01*
G37*
G36*
X21885827Y-11270761D02*
G01*
X21889071Y-11272929D01*
X21891239Y-11276173D01*
X21892000Y-11280000D01*
X21892000Y-11430000D01*
X21891239Y-11433827D01*
X21889071Y-11437071D01*
X21885827Y-11439239D01*
X21882000Y-11440000D01*
X21792000Y-11440000D01*
X21788173Y-11439239D01*
X21784929Y-11437071D01*
X21782761Y-11433827D01*
X21782000Y-11430000D01*
X21782000Y-11280000D01*
X21782761Y-11276173D01*
X21784929Y-11272929D01*
X21788173Y-11270761D01*
X21792000Y-11270000D01*
X21882000Y-11270000D01*
X21885827Y-11270761D01*
G37*
G36*
X22012827Y-11270761D02*
G01*
X22016071Y-11272929D01*
X22018239Y-11276173D01*
X22019000Y-11280000D01*
X22019000Y-11430000D01*
X22018239Y-11433827D01*
X22016071Y-11437071D01*
X22012827Y-11439239D01*
X22009000Y-11440000D01*
X21919000Y-11440000D01*
X21915173Y-11439239D01*
X21911929Y-11437071D01*
X21909761Y-11433827D01*
X21909000Y-11430000D01*
X21909000Y-11280000D01*
X21909761Y-11276173D01*
X21911929Y-11272929D01*
X21915173Y-11270761D01*
X21919000Y-11270000D01*
X22009000Y-11270000D01*
X22012827Y-11270761D01*
G37*
G36*
X22139827Y-11270761D02*
G01*
X22143071Y-11272929D01*
X22145239Y-11276173D01*
X22146000Y-11280000D01*
X22146000Y-11430000D01*
X22145239Y-11433827D01*
X22143071Y-11437071D01*
X22139827Y-11439239D01*
X22136000Y-11440000D01*
X22046000Y-11440000D01*
X22042173Y-11439239D01*
X22038929Y-11437071D01*
X22036761Y-11433827D01*
X22036000Y-11430000D01*
X22036000Y-11280000D01*
X22036761Y-11276173D01*
X22038929Y-11272929D01*
X22042173Y-11270761D01*
X22046000Y-11270000D01*
X22136000Y-11270000D01*
X22139827Y-11270761D01*
G37*
G36*
X22266827Y-11270761D02*
G01*
X22270071Y-11272929D01*
X22272239Y-11276173D01*
X22273000Y-11280000D01*
X22273000Y-11430000D01*
X22272239Y-11433827D01*
X22270071Y-11437071D01*
X22266827Y-11439239D01*
X22263000Y-11440000D01*
X22173000Y-11440000D01*
X22169173Y-11439239D01*
X22165929Y-11437071D01*
X22163761Y-11433827D01*
X22163000Y-11430000D01*
X22163000Y-11280000D01*
X22163761Y-11276173D01*
X22165929Y-11272929D01*
X22169173Y-11270761D01*
X22173000Y-11270000D01*
X22263000Y-11270000D01*
X22266827Y-11270761D01*
G37*
G36*
X22393827Y-11270761D02*
G01*
X22397071Y-11272929D01*
X22399239Y-11276173D01*
X22400000Y-11280000D01*
X22400000Y-11430000D01*
X22399239Y-11433827D01*
X22397071Y-11437071D01*
X22393827Y-11439239D01*
X22390000Y-11440000D01*
X22300000Y-11440000D01*
X22296173Y-11439239D01*
X22292929Y-11437071D01*
X22290761Y-11433827D01*
X22290000Y-11430000D01*
X22290000Y-11280000D01*
X22290761Y-11276173D01*
X22292929Y-11272929D01*
X22296173Y-11270761D01*
X22300000Y-11270000D01*
X22390000Y-11270000D01*
X22393827Y-11270761D01*
G37*
G36*
X22520827Y-11270761D02*
G01*
X22524071Y-11272929D01*
X22526239Y-11276173D01*
X22527000Y-11280000D01*
X22527000Y-11430000D01*
X22526239Y-11433827D01*
X22524071Y-11437071D01*
X22520827Y-11439239D01*
X22517000Y-11440000D01*
X22427000Y-11440000D01*
X22423173Y-11439239D01*
X22419929Y-11437071D01*
X22417761Y-11433827D01*
X22417000Y-11430000D01*
X22417000Y-11280000D01*
X22417761Y-11276173D01*
X22419929Y-11272929D01*
X22423173Y-11270761D01*
X22427000Y-11270000D01*
X22517000Y-11270000D01*
X22520827Y-11270761D01*
G37*
G36*
X18128827Y-11268261D02*
G01*
X18132071Y-11270429D01*
X18134239Y-11273673D01*
X18135000Y-11277500D01*
X18135000Y-11422500D01*
X18134239Y-11426327D01*
X18132071Y-11429571D01*
X18128827Y-11431739D01*
X18125000Y-11432500D01*
X18025000Y-11432500D01*
X18021173Y-11431739D01*
X18017929Y-11429571D01*
X18015761Y-11426327D01*
X18015000Y-11422500D01*
X18015000Y-11277500D01*
X18015761Y-11273673D01*
X18017929Y-11270429D01*
X18021173Y-11268261D01*
X18025000Y-11267500D01*
X18125000Y-11267500D01*
X18128827Y-11268261D01*
G37*
G36*
X18318827Y-11268261D02*
G01*
X18322071Y-11270429D01*
X18324239Y-11273673D01*
X18325000Y-11277500D01*
X18325000Y-11422500D01*
X18324239Y-11426327D01*
X18322071Y-11429571D01*
X18318827Y-11431739D01*
X18315000Y-11432500D01*
X18215000Y-11432500D01*
X18211173Y-11431739D01*
X18207929Y-11429571D01*
X18205761Y-11426327D01*
X18205000Y-11422500D01*
X18205000Y-11277500D01*
X18205761Y-11273673D01*
X18207929Y-11270429D01*
X18211173Y-11268261D01*
X18215000Y-11267500D01*
X18315000Y-11267500D01*
X18318827Y-11268261D01*
G37*
G36*
X6027577Y-11227091D02*
G01*
X6044783Y-11234217D01*
X6060267Y-11244564D01*
X6073436Y-11257733D01*
X6083782Y-11273217D01*
X6090909Y-11290423D01*
X6094542Y-11308688D01*
X6094542Y-11327312D01*
X6090909Y-11345577D01*
X6083782Y-11362783D01*
X6073436Y-11378267D01*
X6060267Y-11391436D01*
X6044783Y-11401782D01*
X6027577Y-11408909D01*
X6009312Y-11412542D01*
X5990688Y-11412542D01*
X5972423Y-11408909D01*
X5955217Y-11401782D01*
X5939733Y-11391436D01*
X5926564Y-11378267D01*
X5916217Y-11362783D01*
X5909091Y-11345577D01*
X5905457Y-11327312D01*
X5905457Y-11308688D01*
X5909091Y-11290423D01*
X5916217Y-11273217D01*
X5926564Y-11257733D01*
X5939733Y-11244564D01*
X5955217Y-11234217D01*
X5972423Y-11227091D01*
X5990688Y-11223457D01*
X6009312Y-11223457D01*
X6027577Y-11227091D01*
G37*
G36*
X10027577Y-11227091D02*
G01*
X10044783Y-11234217D01*
X10060267Y-11244564D01*
X10073436Y-11257733D01*
X10083783Y-11273217D01*
X10090909Y-11290423D01*
X10094543Y-11308688D01*
X10094543Y-11327312D01*
X10090909Y-11345577D01*
X10083783Y-11362783D01*
X10073436Y-11378267D01*
X10060267Y-11391436D01*
X10044783Y-11401782D01*
X10027577Y-11408909D01*
X10009312Y-11412542D01*
X9990688Y-11412542D01*
X9972423Y-11408909D01*
X9955217Y-11401782D01*
X9939733Y-11391436D01*
X9926564Y-11378267D01*
X9916218Y-11362783D01*
X9909091Y-11345577D01*
X9905458Y-11327312D01*
X9905458Y-11308688D01*
X9909091Y-11290423D01*
X9916218Y-11273217D01*
X9926564Y-11257733D01*
X9939733Y-11244564D01*
X9955217Y-11234217D01*
X9972423Y-11227091D01*
X9990688Y-11223457D01*
X10009312Y-11223457D01*
X10027577Y-11227091D01*
G37*
G36*
X10527577Y-11227091D02*
G01*
X10544783Y-11234217D01*
X10560267Y-11244564D01*
X10573436Y-11257733D01*
X10583783Y-11273217D01*
X10590909Y-11290423D01*
X10594543Y-11308688D01*
X10594543Y-11327312D01*
X10590909Y-11345577D01*
X10583783Y-11362783D01*
X10573436Y-11378267D01*
X10560267Y-11391436D01*
X10544783Y-11401782D01*
X10527577Y-11408909D01*
X10509312Y-11412542D01*
X10490688Y-11412542D01*
X10472423Y-11408909D01*
X10455217Y-11401782D01*
X10439733Y-11391436D01*
X10426564Y-11378267D01*
X10416218Y-11362783D01*
X10409091Y-11345577D01*
X10405458Y-11327312D01*
X10405458Y-11308688D01*
X10409091Y-11290423D01*
X10416218Y-11273217D01*
X10426564Y-11257733D01*
X10439733Y-11244564D01*
X10455217Y-11234217D01*
X10472423Y-11227091D01*
X10490688Y-11223457D01*
X10509312Y-11223457D01*
X10527577Y-11227091D01*
G37*
G36*
X14527577Y-11227091D02*
G01*
X14544783Y-11234217D01*
X14560267Y-11244564D01*
X14573436Y-11257733D01*
X14583782Y-11273217D01*
X14590909Y-11290423D01*
X14594542Y-11308688D01*
X14594542Y-11327312D01*
X14590909Y-11345577D01*
X14583782Y-11362783D01*
X14573436Y-11378267D01*
X14560267Y-11391436D01*
X14544783Y-11401782D01*
X14527577Y-11408909D01*
X14509312Y-11412542D01*
X14490688Y-11412542D01*
X14472423Y-11408909D01*
X14455217Y-11401782D01*
X14439733Y-11391436D01*
X14426564Y-11378267D01*
X14416217Y-11362783D01*
X14409091Y-11345577D01*
X14405457Y-11327312D01*
X14405457Y-11308688D01*
X14409091Y-11290423D01*
X14416217Y-11273217D01*
X14426564Y-11257733D01*
X14439733Y-11244564D01*
X14455217Y-11234217D01*
X14472423Y-11227091D01*
X14490688Y-11223457D01*
X14509312Y-11223457D01*
X14527577Y-11227091D01*
G37*
G36*
X15027577Y-11227091D02*
G01*
X15044783Y-11234217D01*
X15060267Y-11244564D01*
X15073436Y-11257733D01*
X15083782Y-11273217D01*
X15090909Y-11290423D01*
X15094542Y-11308688D01*
X15094542Y-11327312D01*
X15090909Y-11345577D01*
X15083782Y-11362783D01*
X15073436Y-11378267D01*
X15060267Y-11391436D01*
X15044783Y-11401782D01*
X15027577Y-11408909D01*
X15009312Y-11412542D01*
X14990688Y-11412542D01*
X14972423Y-11408909D01*
X14955217Y-11401782D01*
X14939733Y-11391436D01*
X14926564Y-11378267D01*
X14916217Y-11362783D01*
X14909091Y-11345577D01*
X14905457Y-11327312D01*
X14905457Y-11308688D01*
X14909091Y-11290423D01*
X14916217Y-11273217D01*
X14926564Y-11257733D01*
X14939733Y-11244564D01*
X14955217Y-11234217D01*
X14972423Y-11227091D01*
X14990688Y-11223457D01*
X15009312Y-11223457D01*
X15027577Y-11227091D01*
G37*
G36*
X19027577Y-11227091D02*
G01*
X19044783Y-11234217D01*
X19060267Y-11244564D01*
X19073436Y-11257733D01*
X19083783Y-11273217D01*
X19090909Y-11290423D01*
X19094543Y-11308688D01*
X19094543Y-11327312D01*
X19090909Y-11345577D01*
X19083783Y-11362783D01*
X19073436Y-11378267D01*
X19060267Y-11391436D01*
X19044783Y-11401782D01*
X19027577Y-11408909D01*
X19009312Y-11412542D01*
X18990688Y-11412542D01*
X18972423Y-11408909D01*
X18955217Y-11401782D01*
X18939733Y-11391436D01*
X18926564Y-11378267D01*
X18916218Y-11362783D01*
X18909091Y-11345577D01*
X18905458Y-11327312D01*
X18905458Y-11308688D01*
X18909091Y-11290423D01*
X18916218Y-11273217D01*
X18926564Y-11257733D01*
X18939733Y-11244564D01*
X18955217Y-11234217D01*
X18972423Y-11227091D01*
X18990688Y-11223457D01*
X19009312Y-11223457D01*
X19027577Y-11227091D01*
G37*
G36*
X19527577Y-11227091D02*
G01*
X19544783Y-11234217D01*
X19560267Y-11244564D01*
X19573436Y-11257733D01*
X19583783Y-11273217D01*
X19590909Y-11290423D01*
X19594543Y-11308688D01*
X19594543Y-11327312D01*
X19590909Y-11345577D01*
X19583783Y-11362783D01*
X19573436Y-11378267D01*
X19560267Y-11391436D01*
X19544783Y-11401782D01*
X19527577Y-11408909D01*
X19509312Y-11412542D01*
X19490688Y-11412542D01*
X19472423Y-11408909D01*
X19455217Y-11401782D01*
X19439733Y-11391436D01*
X19426564Y-11378267D01*
X19416218Y-11362783D01*
X19409091Y-11345577D01*
X19405458Y-11327312D01*
X19405458Y-11308688D01*
X19409091Y-11290423D01*
X19416218Y-11273217D01*
X19426564Y-11257733D01*
X19439733Y-11244564D01*
X19455217Y-11234217D01*
X19472423Y-11227091D01*
X19490688Y-11223457D01*
X19509312Y-11223457D01*
X19527577Y-11227091D01*
G37*
G36*
X23527577Y-11227091D02*
G01*
X23544783Y-11234217D01*
X23560267Y-11244564D01*
X23573436Y-11257733D01*
X23583782Y-11273217D01*
X23590909Y-11290423D01*
X23594542Y-11308688D01*
X23594542Y-11327312D01*
X23590909Y-11345577D01*
X23583782Y-11362783D01*
X23573436Y-11378267D01*
X23560267Y-11391436D01*
X23544783Y-11401782D01*
X23527577Y-11408909D01*
X23509312Y-11412542D01*
X23490688Y-11412542D01*
X23472423Y-11408909D01*
X23455217Y-11401782D01*
X23439733Y-11391436D01*
X23426564Y-11378267D01*
X23416217Y-11362783D01*
X23409091Y-11345577D01*
X23405457Y-11327312D01*
X23405457Y-11308688D01*
X23409091Y-11290423D01*
X23416217Y-11273217D01*
X23426564Y-11257733D01*
X23439733Y-11244564D01*
X23455217Y-11234217D01*
X23472423Y-11227091D01*
X23490688Y-11223457D01*
X23509312Y-11223457D01*
X23527577Y-11227091D01*
G37*
G36*
X6912327Y-11305761D02*
G01*
X6915571Y-11307929D01*
X6917739Y-11311173D01*
X6918500Y-11315000D01*
X6918500Y-11375000D01*
X6917739Y-11378827D01*
X6915571Y-11382071D01*
X6912327Y-11384239D01*
X6908500Y-11385000D01*
X6788500Y-11385000D01*
X6784673Y-11384239D01*
X6781429Y-11382071D01*
X6779261Y-11378827D01*
X6778500Y-11375000D01*
X6778500Y-11315000D01*
X6779261Y-11311173D01*
X6781429Y-11307929D01*
X6784673Y-11305761D01*
X6788500Y-11305000D01*
X6908500Y-11305000D01*
X6912327Y-11305761D01*
G37*
G36*
X7162327Y-11305761D02*
G01*
X7165571Y-11307929D01*
X7167739Y-11311173D01*
X7168500Y-11315000D01*
X7168500Y-11375000D01*
X7167739Y-11378827D01*
X7165571Y-11382071D01*
X7162327Y-11384239D01*
X7158500Y-11385000D01*
X7038500Y-11385000D01*
X7034673Y-11384239D01*
X7031429Y-11382071D01*
X7029261Y-11378827D01*
X7028500Y-11375000D01*
X7028500Y-11315000D01*
X7029261Y-11311173D01*
X7031429Y-11307929D01*
X7034673Y-11305761D01*
X7038500Y-11305000D01*
X7158500Y-11305000D01*
X7162327Y-11305761D01*
G37*
G36*
X6912327Y-11210761D02*
G01*
X6915571Y-11212929D01*
X6917739Y-11216173D01*
X6918500Y-11220000D01*
X6918500Y-11280000D01*
X6917739Y-11283827D01*
X6915571Y-11287071D01*
X6912327Y-11289239D01*
X6908500Y-11290000D01*
X6788500Y-11290000D01*
X6784673Y-11289239D01*
X6781429Y-11287071D01*
X6779261Y-11283827D01*
X6778500Y-11280000D01*
X6778500Y-11220000D01*
X6779261Y-11216173D01*
X6781429Y-11212929D01*
X6784673Y-11210761D01*
X6788500Y-11210000D01*
X6908500Y-11210000D01*
X6912327Y-11210761D01*
G37*
G36*
X7162327Y-11210761D02*
G01*
X7165571Y-11212929D01*
X7167739Y-11216173D01*
X7168500Y-11220000D01*
X7168500Y-11280000D01*
X7167739Y-11283827D01*
X7165571Y-11287071D01*
X7162327Y-11289239D01*
X7158500Y-11290000D01*
X7038500Y-11290000D01*
X7034673Y-11289239D01*
X7031429Y-11287071D01*
X7029261Y-11283827D01*
X7028500Y-11280000D01*
X7028500Y-11220000D01*
X7029261Y-11216173D01*
X7031429Y-11212929D01*
X7034673Y-11210761D01*
X7038500Y-11210000D01*
X7158500Y-11210000D01*
X7162327Y-11210761D01*
G37*
G36*
X22395327Y-11103761D02*
G01*
X22398571Y-11105929D01*
X22400739Y-11109173D01*
X22401500Y-11113000D01*
X22401500Y-11207000D01*
X22400739Y-11210827D01*
X22398571Y-11214071D01*
X22395327Y-11216239D01*
X22391500Y-11217000D01*
X22308500Y-11217000D01*
X22304673Y-11216239D01*
X22301429Y-11214071D01*
X22299261Y-11210827D01*
X22298500Y-11207000D01*
X22298500Y-11113000D01*
X22299261Y-11109173D01*
X22301429Y-11105929D01*
X22304673Y-11103761D01*
X22308500Y-11103000D01*
X22391500Y-11103000D01*
X22395327Y-11103761D01*
G37*
G36*
X22527327Y-11103761D02*
G01*
X22530571Y-11105929D01*
X22532739Y-11109173D01*
X22533500Y-11113000D01*
X22533500Y-11207000D01*
X22532739Y-11210827D01*
X22530571Y-11214071D01*
X22527327Y-11216239D01*
X22523500Y-11217000D01*
X22440500Y-11217000D01*
X22436673Y-11216239D01*
X22433429Y-11214071D01*
X22431261Y-11210827D01*
X22430500Y-11207000D01*
X22430500Y-11113000D01*
X22431261Y-11109173D01*
X22433429Y-11105929D01*
X22436673Y-11103761D01*
X22440500Y-11103000D01*
X22523500Y-11103000D01*
X22527327Y-11103761D01*
G37*
G36*
X20862327Y-11093261D02*
G01*
X20865571Y-11095429D01*
X20867739Y-11098673D01*
X20868500Y-11102500D01*
X20868500Y-11202500D01*
X20867739Y-11206327D01*
X20865571Y-11209571D01*
X20862327Y-11211739D01*
X20858500Y-11212500D01*
X20713500Y-11212500D01*
X20709673Y-11211739D01*
X20706429Y-11209571D01*
X20704261Y-11206327D01*
X20703500Y-11202500D01*
X20703500Y-11102500D01*
X20704261Y-11098673D01*
X20706429Y-11095429D01*
X20709673Y-11093261D01*
X20713500Y-11092500D01*
X20858500Y-11092500D01*
X20862327Y-11093261D01*
G37*
G36*
X21062327Y-11093261D02*
G01*
X21065571Y-11095429D01*
X21067739Y-11098673D01*
X21068500Y-11102500D01*
X21068500Y-11202500D01*
X21067739Y-11206327D01*
X21065571Y-11209571D01*
X21062327Y-11211739D01*
X21058500Y-11212500D01*
X20913500Y-11212500D01*
X20909673Y-11211739D01*
X20906429Y-11209571D01*
X20904261Y-11206327D01*
X20903500Y-11202500D01*
X20903500Y-11102500D01*
X20904261Y-11098673D01*
X20906429Y-11095429D01*
X20909673Y-11093261D01*
X20913500Y-11092500D01*
X21058500Y-11092500D01*
X21062327Y-11093261D01*
G37*
G36*
X7555327Y-10883361D02*
G01*
X7558571Y-10885529D01*
X7560739Y-10888773D01*
X7561500Y-10892600D01*
X7561500Y-11192600D01*
X7560739Y-11196427D01*
X7558571Y-11199671D01*
X7555327Y-11201839D01*
X7551500Y-11202600D01*
X7391500Y-11202600D01*
X7387673Y-11201839D01*
X7384429Y-11199671D01*
X7382261Y-11196427D01*
X7381500Y-11192600D01*
X7381500Y-10892600D01*
X7382261Y-10888773D01*
X7384429Y-10885529D01*
X7387673Y-10883361D01*
X7391500Y-10882600D01*
X7551500Y-10882600D01*
X7555327Y-10883361D01*
G37*
G36*
X8012327Y-10883361D02*
G01*
X8015571Y-10885529D01*
X8017739Y-10888773D01*
X8018500Y-10892600D01*
X8018500Y-11192600D01*
X8017739Y-11196427D01*
X8015571Y-11199671D01*
X8012327Y-11201839D01*
X8008500Y-11202600D01*
X7848500Y-11202600D01*
X7844673Y-11201839D01*
X7841429Y-11199671D01*
X7839261Y-11196427D01*
X7838500Y-11192600D01*
X7838500Y-10892600D01*
X7839261Y-10888773D01*
X7841429Y-10885529D01*
X7844673Y-10883361D01*
X7848500Y-10882600D01*
X8008500Y-10882600D01*
X8012327Y-10883361D01*
G37*
G36*
X6912327Y-11115761D02*
G01*
X6915571Y-11117929D01*
X6917739Y-11121173D01*
X6918500Y-11125000D01*
X6918500Y-11185000D01*
X6917739Y-11188827D01*
X6915571Y-11192071D01*
X6912327Y-11194239D01*
X6908500Y-11195000D01*
X6788500Y-11195000D01*
X6784673Y-11194239D01*
X6781429Y-11192071D01*
X6779261Y-11188827D01*
X6778500Y-11185000D01*
X6778500Y-11125000D01*
X6779261Y-11121173D01*
X6781429Y-11117929D01*
X6784673Y-11115761D01*
X6788500Y-11115000D01*
X6908500Y-11115000D01*
X6912327Y-11115761D01*
G37*
G36*
X7162327Y-11115761D02*
G01*
X7165571Y-11117929D01*
X7167739Y-11121173D01*
X7168500Y-11125000D01*
X7168500Y-11185000D01*
X7167739Y-11188827D01*
X7165571Y-11192071D01*
X7162327Y-11194239D01*
X7158500Y-11195000D01*
X7038500Y-11195000D01*
X7034673Y-11194239D01*
X7031429Y-11192071D01*
X7029261Y-11188827D01*
X7028500Y-11185000D01*
X7028500Y-11125000D01*
X7029261Y-11121173D01*
X7031429Y-11117929D01*
X7034673Y-11115761D01*
X7038500Y-11115000D01*
X7158500Y-11115000D01*
X7162327Y-11115761D01*
G37*
G36*
X6027577Y-10973091D02*
G01*
X6044783Y-10980218D01*
X6060267Y-10990564D01*
X6073436Y-11003733D01*
X6083782Y-11019217D01*
X6090909Y-11036423D01*
X6094542Y-11054688D01*
X6094542Y-11073312D01*
X6090909Y-11091577D01*
X6083782Y-11108783D01*
X6073436Y-11124267D01*
X6060267Y-11137436D01*
X6044783Y-11147783D01*
X6027577Y-11154909D01*
X6009312Y-11158543D01*
X5990688Y-11158543D01*
X5972423Y-11154909D01*
X5955217Y-11147783D01*
X5939733Y-11137436D01*
X5926564Y-11124267D01*
X5916217Y-11108783D01*
X5909091Y-11091577D01*
X5905457Y-11073312D01*
X5905457Y-11054688D01*
X5909091Y-11036423D01*
X5916217Y-11019217D01*
X5926564Y-11003733D01*
X5939733Y-10990564D01*
X5955217Y-10980218D01*
X5972423Y-10973091D01*
X5990688Y-10969458D01*
X6009312Y-10969458D01*
X6027577Y-10973091D01*
G37*
G36*
X10027577Y-10973091D02*
G01*
X10044783Y-10980218D01*
X10060267Y-10990564D01*
X10073436Y-11003733D01*
X10083783Y-11019217D01*
X10090909Y-11036423D01*
X10094543Y-11054688D01*
X10094543Y-11073312D01*
X10090909Y-11091577D01*
X10083783Y-11108783D01*
X10073436Y-11124267D01*
X10060267Y-11137436D01*
X10044783Y-11147783D01*
X10027577Y-11154909D01*
X10009312Y-11158543D01*
X9990688Y-11158543D01*
X9972423Y-11154909D01*
X9955217Y-11147783D01*
X9939733Y-11137436D01*
X9926564Y-11124267D01*
X9916218Y-11108783D01*
X9909091Y-11091577D01*
X9905458Y-11073312D01*
X9905458Y-11054688D01*
X9909091Y-11036423D01*
X9916218Y-11019217D01*
X9926564Y-11003733D01*
X9939733Y-10990564D01*
X9955217Y-10980218D01*
X9972423Y-10973091D01*
X9990688Y-10969458D01*
X10009312Y-10969458D01*
X10027577Y-10973091D01*
G37*
G36*
X10527577Y-10973091D02*
G01*
X10544783Y-10980218D01*
X10560267Y-10990564D01*
X10573436Y-11003733D01*
X10583783Y-11019217D01*
X10590909Y-11036423D01*
X10594543Y-11054688D01*
X10594543Y-11073312D01*
X10590909Y-11091577D01*
X10583783Y-11108783D01*
X10573436Y-11124267D01*
X10560267Y-11137436D01*
X10544783Y-11147783D01*
X10527577Y-11154909D01*
X10509312Y-11158543D01*
X10490688Y-11158543D01*
X10472423Y-11154909D01*
X10455217Y-11147783D01*
X10439733Y-11137436D01*
X10426564Y-11124267D01*
X10416218Y-11108783D01*
X10409091Y-11091577D01*
X10405458Y-11073312D01*
X10405458Y-11054688D01*
X10409091Y-11036423D01*
X10416218Y-11019217D01*
X10426564Y-11003733D01*
X10439733Y-10990564D01*
X10455217Y-10980218D01*
X10472423Y-10973091D01*
X10490688Y-10969458D01*
X10509312Y-10969458D01*
X10527577Y-10973091D01*
G37*
G36*
X14527577Y-10973091D02*
G01*
X14544783Y-10980218D01*
X14560267Y-10990564D01*
X14573436Y-11003733D01*
X14583782Y-11019217D01*
X14590909Y-11036423D01*
X14594542Y-11054688D01*
X14594542Y-11073312D01*
X14590909Y-11091577D01*
X14583782Y-11108783D01*
X14573436Y-11124267D01*
X14560267Y-11137436D01*
X14544783Y-11147783D01*
X14527577Y-11154909D01*
X14509312Y-11158543D01*
X14490688Y-11158543D01*
X14472423Y-11154909D01*
X14455217Y-11147783D01*
X14439733Y-11137436D01*
X14426564Y-11124267D01*
X14416217Y-11108783D01*
X14409091Y-11091577D01*
X14405457Y-11073312D01*
X14405457Y-11054688D01*
X14409091Y-11036423D01*
X14416217Y-11019217D01*
X14426564Y-11003733D01*
X14439733Y-10990564D01*
X14455217Y-10980218D01*
X14472423Y-10973091D01*
X14490688Y-10969458D01*
X14509312Y-10969458D01*
X14527577Y-10973091D01*
G37*
G36*
X15027577Y-10973091D02*
G01*
X15044783Y-10980218D01*
X15060267Y-10990564D01*
X15073436Y-11003733D01*
X15083782Y-11019217D01*
X15090909Y-11036423D01*
X15094542Y-11054688D01*
X15094542Y-11073312D01*
X15090909Y-11091577D01*
X15083782Y-11108783D01*
X15073436Y-11124267D01*
X15060267Y-11137436D01*
X15044783Y-11147783D01*
X15027577Y-11154909D01*
X15009312Y-11158543D01*
X14990688Y-11158543D01*
X14972423Y-11154909D01*
X14955217Y-11147783D01*
X14939733Y-11137436D01*
X14926564Y-11124267D01*
X14916217Y-11108783D01*
X14909091Y-11091577D01*
X14905457Y-11073312D01*
X14905457Y-11054688D01*
X14909091Y-11036423D01*
X14916217Y-11019217D01*
X14926564Y-11003733D01*
X14939733Y-10990564D01*
X14955217Y-10980218D01*
X14972423Y-10973091D01*
X14990688Y-10969458D01*
X15009312Y-10969458D01*
X15027577Y-10973091D01*
G37*
G36*
X19027577Y-10973091D02*
G01*
X19044783Y-10980218D01*
X19060267Y-10990564D01*
X19073436Y-11003733D01*
X19083783Y-11019217D01*
X19090909Y-11036423D01*
X19094543Y-11054688D01*
X19094543Y-11073312D01*
X19090909Y-11091577D01*
X19083783Y-11108783D01*
X19073436Y-11124267D01*
X19060267Y-11137436D01*
X19044783Y-11147783D01*
X19027577Y-11154909D01*
X19009312Y-11158543D01*
X18990688Y-11158543D01*
X18972423Y-11154909D01*
X18955217Y-11147783D01*
X18939733Y-11137436D01*
X18926564Y-11124267D01*
X18916218Y-11108783D01*
X18909091Y-11091577D01*
X18905458Y-11073312D01*
X18905458Y-11054688D01*
X18909091Y-11036423D01*
X18916218Y-11019217D01*
X18926564Y-11003733D01*
X18939733Y-10990564D01*
X18955217Y-10980218D01*
X18972423Y-10973091D01*
X18990688Y-10969458D01*
X19009312Y-10969458D01*
X19027577Y-10973091D01*
G37*
G36*
X19527577Y-10973091D02*
G01*
X19544783Y-10980218D01*
X19560267Y-10990564D01*
X19573436Y-11003733D01*
X19583783Y-11019217D01*
X19590909Y-11036423D01*
X19594543Y-11054688D01*
X19594543Y-11073312D01*
X19590909Y-11091577D01*
X19583783Y-11108783D01*
X19573436Y-11124267D01*
X19560267Y-11137436D01*
X19544783Y-11147783D01*
X19527577Y-11154909D01*
X19509312Y-11158543D01*
X19490688Y-11158543D01*
X19472423Y-11154909D01*
X19455217Y-11147783D01*
X19439733Y-11137436D01*
X19426564Y-11124267D01*
X19416218Y-11108783D01*
X19409091Y-11091577D01*
X19405458Y-11073312D01*
X19405458Y-11054688D01*
X19409091Y-11036423D01*
X19416218Y-11019217D01*
X19426564Y-11003733D01*
X19439733Y-10990564D01*
X19455217Y-10980218D01*
X19472423Y-10973091D01*
X19490688Y-10969458D01*
X19509312Y-10969458D01*
X19527577Y-10973091D01*
G37*
G36*
X23527577Y-10973091D02*
G01*
X23544783Y-10980218D01*
X23560267Y-10990564D01*
X23573436Y-11003733D01*
X23583782Y-11019217D01*
X23590909Y-11036423D01*
X23594542Y-11054688D01*
X23594542Y-11073312D01*
X23590909Y-11091577D01*
X23583782Y-11108783D01*
X23573436Y-11124267D01*
X23560267Y-11137436D01*
X23544783Y-11147783D01*
X23527577Y-11154909D01*
X23509312Y-11158543D01*
X23490688Y-11158543D01*
X23472423Y-11154909D01*
X23455217Y-11147783D01*
X23439733Y-11137436D01*
X23426564Y-11124267D01*
X23416217Y-11108783D01*
X23409091Y-11091577D01*
X23405457Y-11073312D01*
X23405457Y-11054688D01*
X23409091Y-11036423D01*
X23416217Y-11019217D01*
X23426564Y-11003733D01*
X23439733Y-10990564D01*
X23455217Y-10980218D01*
X23472423Y-10973091D01*
X23490688Y-10969458D01*
X23509312Y-10969458D01*
X23527577Y-10973091D01*
G37*
G36*
X17938827Y-10978261D02*
G01*
X17942071Y-10980429D01*
X17944239Y-10983673D01*
X17945000Y-10987500D01*
X17945000Y-11132500D01*
X17944239Y-11136327D01*
X17942071Y-11139571D01*
X17938827Y-11141739D01*
X17935000Y-11142500D01*
X17835000Y-11142500D01*
X17831173Y-11141739D01*
X17827929Y-11139571D01*
X17825761Y-11136327D01*
X17825000Y-11132500D01*
X17825000Y-10987500D01*
X17825761Y-10983673D01*
X17827929Y-10980429D01*
X17831173Y-10978261D01*
X17835000Y-10977500D01*
X17935000Y-10977500D01*
X17938827Y-10978261D01*
G37*
G36*
X18128827Y-10978261D02*
G01*
X18132071Y-10980429D01*
X18134239Y-10983673D01*
X18135000Y-10987500D01*
X18135000Y-11132500D01*
X18134239Y-11136327D01*
X18132071Y-11139571D01*
X18128827Y-11141739D01*
X18125000Y-11142500D01*
X18025000Y-11142500D01*
X18021173Y-11141739D01*
X18017929Y-11139571D01*
X18015761Y-11136327D01*
X18015000Y-11132500D01*
X18015000Y-10987500D01*
X18015761Y-10983673D01*
X18017929Y-10980429D01*
X18021173Y-10978261D01*
X18025000Y-10977500D01*
X18125000Y-10977500D01*
X18128827Y-10978261D01*
G37*
G36*
X22417327Y-10859761D02*
G01*
X22420571Y-10861929D01*
X22422739Y-10865173D01*
X22423500Y-10869000D01*
X22423500Y-11051000D01*
X22422739Y-11054827D01*
X22420571Y-11058071D01*
X22417327Y-11060239D01*
X22413500Y-11061000D01*
X22308500Y-11061000D01*
X22304673Y-11060239D01*
X22301429Y-11058071D01*
X22299261Y-11054827D01*
X22298500Y-11051000D01*
X22298500Y-10869000D01*
X22299261Y-10865173D01*
X22301429Y-10861929D01*
X22304673Y-10859761D01*
X22308500Y-10859000D01*
X22413500Y-10859000D01*
X22417327Y-10859761D01*
G37*
G36*
X22695327Y-10859761D02*
G01*
X22698571Y-10861929D01*
X22700739Y-10865173D01*
X22701500Y-10869000D01*
X22701500Y-11051000D01*
X22700739Y-11054827D01*
X22698571Y-11058071D01*
X22695327Y-11060239D01*
X22691500Y-11061000D01*
X22586500Y-11061000D01*
X22582673Y-11060239D01*
X22579429Y-11058071D01*
X22577261Y-11054827D01*
X22576500Y-11051000D01*
X22576500Y-10869000D01*
X22577261Y-10865173D01*
X22579429Y-10861929D01*
X22582673Y-10859761D01*
X22586500Y-10859000D01*
X22691500Y-10859000D01*
X22695327Y-10859761D01*
G37*
G36*
X22918827Y-10888261D02*
G01*
X22922071Y-10890429D01*
X22924239Y-10893673D01*
X22925000Y-10897500D01*
X22925000Y-11042500D01*
X22924239Y-11046327D01*
X22922071Y-11049571D01*
X22918827Y-11051739D01*
X22915000Y-11052500D01*
X22815000Y-11052500D01*
X22811173Y-11051739D01*
X22807929Y-11049571D01*
X22805761Y-11046327D01*
X22805000Y-11042500D01*
X22805000Y-10897500D01*
X22805761Y-10893673D01*
X22807929Y-10890429D01*
X22811173Y-10888261D01*
X22815000Y-10887500D01*
X22915000Y-10887500D01*
X22918827Y-10888261D01*
G37*
G36*
X23108827Y-10888261D02*
G01*
X23112071Y-10890429D01*
X23114239Y-10893673D01*
X23115000Y-10897500D01*
X23115000Y-11042500D01*
X23114239Y-11046327D01*
X23112071Y-11049571D01*
X23108827Y-11051739D01*
X23105000Y-11052500D01*
X23005000Y-11052500D01*
X23001173Y-11051739D01*
X22997929Y-11049571D01*
X22995761Y-11046327D01*
X22995000Y-11042500D01*
X22995000Y-10897500D01*
X22995761Y-10893673D01*
X22997929Y-10890429D01*
X23001173Y-10888261D01*
X23005000Y-10887500D01*
X23105000Y-10887500D01*
X23108827Y-10888261D01*
G37*
G36*
X6940827Y-10871261D02*
G01*
X6944071Y-10873429D01*
X6946239Y-10876673D01*
X6947000Y-10880500D01*
X6947000Y-11019500D01*
X6946239Y-11023327D01*
X6944071Y-11026571D01*
X6940827Y-11028739D01*
X6937000Y-11029500D01*
X6846000Y-11029500D01*
X6842173Y-11028739D01*
X6838929Y-11026571D01*
X6836761Y-11023327D01*
X6836000Y-11019500D01*
X6836000Y-10880500D01*
X6836761Y-10876673D01*
X6838929Y-10873429D01*
X6842173Y-10871261D01*
X6846000Y-10870500D01*
X6937000Y-10870500D01*
X6940827Y-10871261D01*
G37*
G36*
X7104827Y-10871261D02*
G01*
X7108071Y-10873429D01*
X7110239Y-10876673D01*
X7111000Y-10880500D01*
X7111000Y-11019500D01*
X7110239Y-11023327D01*
X7108071Y-11026571D01*
X7104827Y-11028739D01*
X7101000Y-11029500D01*
X7010000Y-11029500D01*
X7006173Y-11028739D01*
X7002929Y-11026571D01*
X7000761Y-11023327D01*
X7000000Y-11019500D01*
X7000000Y-10880500D01*
X7000761Y-10876673D01*
X7002929Y-10873429D01*
X7006173Y-10871261D01*
X7010000Y-10870500D01*
X7101000Y-10870500D01*
X7104827Y-10871261D01*
G37*
G36*
X20862327Y-10903261D02*
G01*
X20865571Y-10905429D01*
X20867739Y-10908673D01*
X20868500Y-10912500D01*
X20868500Y-11012500D01*
X20867739Y-11016327D01*
X20865571Y-11019571D01*
X20862327Y-11021739D01*
X20858500Y-11022500D01*
X20713500Y-11022500D01*
X20709673Y-11021739D01*
X20706429Y-11019571D01*
X20704261Y-11016327D01*
X20703500Y-11012500D01*
X20703500Y-10912500D01*
X20704261Y-10908673D01*
X20706429Y-10905429D01*
X20709673Y-10903261D01*
X20713500Y-10902500D01*
X20858500Y-10902500D01*
X20862327Y-10903261D01*
G37*
G36*
X21062327Y-10903261D02*
G01*
X21065571Y-10905429D01*
X21067739Y-10908673D01*
X21068500Y-10912500D01*
X21068500Y-11012500D01*
X21067739Y-11016327D01*
X21065571Y-11019571D01*
X21062327Y-11021739D01*
X21058500Y-11022500D01*
X20913500Y-11022500D01*
X20909673Y-11021739D01*
X20906429Y-11019571D01*
X20904261Y-11016327D01*
X20903500Y-11012500D01*
X20903500Y-10912500D01*
X20904261Y-10908673D01*
X20906429Y-10905429D01*
X20909673Y-10903261D01*
X20913500Y-10902500D01*
X21058500Y-10902500D01*
X21062327Y-10903261D01*
G37*
G36*
X11964987Y-10686455D02*
G01*
X11965559Y-10686735D01*
X11965796Y-10686772D01*
X11969599Y-10688710D01*
X11975338Y-10691515D01*
X11983485Y-10699662D01*
X11986291Y-10705402D01*
X11988228Y-10709203D01*
X11988265Y-10709441D01*
X11988545Y-10710013D01*
X11990000Y-10720000D01*
X11990000Y-10960000D01*
X11988545Y-10969987D01*
X11988265Y-10970559D01*
X11988228Y-10970796D01*
X11986293Y-10974594D01*
X11983485Y-10980338D01*
X11975338Y-10988485D01*
X11969595Y-10991292D01*
X11965796Y-10993228D01*
X11965559Y-10993265D01*
X11964987Y-10993545D01*
X11955000Y-10995000D01*
X11465000Y-10995000D01*
X11455013Y-10993545D01*
X11454441Y-10993265D01*
X11454204Y-10993228D01*
X11450403Y-10991291D01*
X11444662Y-10988485D01*
X11436515Y-10980338D01*
X11433710Y-10974600D01*
X11431772Y-10970797D01*
X11431735Y-10970559D01*
X11431455Y-10969987D01*
X11430000Y-10960000D01*
X11430000Y-10720000D01*
X11431455Y-10710013D01*
X11431734Y-10709441D01*
X11431772Y-10709204D01*
X11433711Y-10705399D01*
X11436515Y-10699662D01*
X11444662Y-10691515D01*
X11450397Y-10688712D01*
X11454203Y-10686772D01*
X11454441Y-10686735D01*
X11455013Y-10686455D01*
X11465000Y-10685000D01*
X11955000Y-10685000D01*
X11964987Y-10686455D01*
G37*
G36*
X20612327Y-10741261D02*
G01*
X20615571Y-10743429D01*
X20617739Y-10746673D01*
X20618500Y-10750500D01*
X20618500Y-10844500D01*
X20617739Y-10848327D01*
X20615571Y-10851571D01*
X20612327Y-10853739D01*
X20608500Y-10854500D01*
X20525500Y-10854500D01*
X20521673Y-10853739D01*
X20518429Y-10851571D01*
X20516261Y-10848327D01*
X20515500Y-10844500D01*
X20515500Y-10750500D01*
X20516261Y-10746673D01*
X20518429Y-10743429D01*
X20521673Y-10741261D01*
X20525500Y-10740500D01*
X20608500Y-10740500D01*
X20612327Y-10741261D01*
G37*
G36*
X20744327Y-10741261D02*
G01*
X20747571Y-10743429D01*
X20749739Y-10746673D01*
X20750500Y-10750500D01*
X20750500Y-10844500D01*
X20749739Y-10848327D01*
X20747571Y-10851571D01*
X20744327Y-10853739D01*
X20740500Y-10854500D01*
X20657500Y-10854500D01*
X20653673Y-10853739D01*
X20650429Y-10851571D01*
X20648261Y-10848327D01*
X20647500Y-10844500D01*
X20647500Y-10750500D01*
X20648261Y-10746673D01*
X20650429Y-10743429D01*
X20653673Y-10741261D01*
X20657500Y-10740500D01*
X20740500Y-10740500D01*
X20744327Y-10741261D01*
G37*
G36*
X21112327Y-10741261D02*
G01*
X21115571Y-10743429D01*
X21117739Y-10746673D01*
X21118500Y-10750500D01*
X21118500Y-10844500D01*
X21117739Y-10848327D01*
X21115571Y-10851571D01*
X21112327Y-10853739D01*
X21108500Y-10854500D01*
X21025500Y-10854500D01*
X21021673Y-10853739D01*
X21018429Y-10851571D01*
X21016261Y-10848327D01*
X21015500Y-10844500D01*
X21015500Y-10750500D01*
X21016261Y-10746673D01*
X21018429Y-10743429D01*
X21021673Y-10741261D01*
X21025500Y-10740500D01*
X21108500Y-10740500D01*
X21112327Y-10741261D01*
G37*
G36*
X21244327Y-10741261D02*
G01*
X21247571Y-10743429D01*
X21249739Y-10746673D01*
X21250500Y-10750500D01*
X21250500Y-10844500D01*
X21249739Y-10848327D01*
X21247571Y-10851571D01*
X21244327Y-10853739D01*
X21240500Y-10854500D01*
X21157500Y-10854500D01*
X21153673Y-10853739D01*
X21150429Y-10851571D01*
X21148261Y-10848327D01*
X21147500Y-10844500D01*
X21147500Y-10750500D01*
X21148261Y-10746673D01*
X21150429Y-10743429D01*
X21153673Y-10741261D01*
X21157500Y-10740500D01*
X21240500Y-10740500D01*
X21244327Y-10741261D01*
G37*
G36*
X22918827Y-10678261D02*
G01*
X22922071Y-10680429D01*
X22924239Y-10683673D01*
X22925000Y-10687500D01*
X22925000Y-10832500D01*
X22924239Y-10836327D01*
X22922071Y-10839571D01*
X22918827Y-10841739D01*
X22915000Y-10842500D01*
X22815000Y-10842500D01*
X22811173Y-10841739D01*
X22807929Y-10839571D01*
X22805761Y-10836327D01*
X22805000Y-10832500D01*
X22805000Y-10687500D01*
X22805761Y-10683673D01*
X22807929Y-10680429D01*
X22811173Y-10678261D01*
X22815000Y-10677500D01*
X22915000Y-10677500D01*
X22918827Y-10678261D01*
G37*
G36*
X23108827Y-10678261D02*
G01*
X23112071Y-10680429D01*
X23114239Y-10683673D01*
X23115000Y-10687500D01*
X23115000Y-10832500D01*
X23114239Y-10836327D01*
X23112071Y-10839571D01*
X23108827Y-10841739D01*
X23105000Y-10842500D01*
X23005000Y-10842500D01*
X23001173Y-10841739D01*
X22997929Y-10839571D01*
X22995761Y-10836327D01*
X22995000Y-10832500D01*
X22995000Y-10687500D01*
X22995761Y-10683673D01*
X22997929Y-10680429D01*
X23001173Y-10678261D01*
X23005000Y-10677500D01*
X23105000Y-10677500D01*
X23108827Y-10678261D01*
G37*
G36*
X6952827Y-10693761D02*
G01*
X6956071Y-10695929D01*
X6958239Y-10699173D01*
X6959000Y-10703000D01*
X6959000Y-10797000D01*
X6958239Y-10800827D01*
X6956071Y-10804071D01*
X6952827Y-10806239D01*
X6949000Y-10807000D01*
X6866000Y-10807000D01*
X6862173Y-10806239D01*
X6858929Y-10804071D01*
X6856761Y-10800827D01*
X6856000Y-10797000D01*
X6856000Y-10703000D01*
X6856761Y-10699173D01*
X6858929Y-10695929D01*
X6862173Y-10693761D01*
X6866000Y-10693000D01*
X6949000Y-10693000D01*
X6952827Y-10693761D01*
G37*
G36*
X7084827Y-10693761D02*
G01*
X7088071Y-10695929D01*
X7090239Y-10699173D01*
X7091000Y-10703000D01*
X7091000Y-10797000D01*
X7090239Y-10800827D01*
X7088071Y-10804071D01*
X7084827Y-10806239D01*
X7081000Y-10807000D01*
X6998000Y-10807000D01*
X6994173Y-10806239D01*
X6990929Y-10804071D01*
X6988761Y-10800827D01*
X6988000Y-10797000D01*
X6988000Y-10703000D01*
X6988761Y-10699173D01*
X6990929Y-10695929D01*
X6994173Y-10693761D01*
X6998000Y-10693000D01*
X7081000Y-10693000D01*
X7084827Y-10693761D01*
G37*
G36*
X13554827Y-10627261D02*
G01*
X13558071Y-10629429D01*
X13560239Y-10632673D01*
X13561000Y-10636500D01*
X13561000Y-10741500D01*
X13560239Y-10745327D01*
X13558071Y-10748571D01*
X13554827Y-10750739D01*
X13551000Y-10751500D01*
X13369000Y-10751500D01*
X13365173Y-10750739D01*
X13361929Y-10748571D01*
X13359761Y-10745327D01*
X13359000Y-10741500D01*
X13359000Y-10636500D01*
X13359761Y-10632673D01*
X13361929Y-10629429D01*
X13365173Y-10627261D01*
X13369000Y-10626500D01*
X13551000Y-10626500D01*
X13554827Y-10627261D01*
G37*
G36*
X12618827Y-10585761D02*
G01*
X12622071Y-10587929D01*
X12624239Y-10591173D01*
X12625000Y-10595000D01*
X12625000Y-10715000D01*
X12624239Y-10718827D01*
X12622071Y-10722071D01*
X12618827Y-10724239D01*
X12615000Y-10725000D01*
X12555000Y-10725000D01*
X12551173Y-10724239D01*
X12547929Y-10722071D01*
X12545761Y-10718827D01*
X12545000Y-10715000D01*
X12545000Y-10595000D01*
X12545761Y-10591173D01*
X12547929Y-10587929D01*
X12551173Y-10585761D01*
X12555000Y-10585000D01*
X12615000Y-10585000D01*
X12618827Y-10585761D01*
G37*
G36*
X12713827Y-10585761D02*
G01*
X12717071Y-10587929D01*
X12719239Y-10591173D01*
X12720000Y-10595000D01*
X12720000Y-10715000D01*
X12719239Y-10718827D01*
X12717071Y-10722071D01*
X12713827Y-10724239D01*
X12710000Y-10725000D01*
X12650000Y-10725000D01*
X12646173Y-10724239D01*
X12642929Y-10722071D01*
X12640761Y-10718827D01*
X12640000Y-10715000D01*
X12640000Y-10595000D01*
X12640761Y-10591173D01*
X12642929Y-10587929D01*
X12646173Y-10585761D01*
X12650000Y-10585000D01*
X12710000Y-10585000D01*
X12713827Y-10585761D01*
G37*
G36*
X12808827Y-10585761D02*
G01*
X12812071Y-10587929D01*
X12814239Y-10591173D01*
X12815000Y-10595000D01*
X12815000Y-10715000D01*
X12814239Y-10718827D01*
X12812071Y-10722071D01*
X12808827Y-10724239D01*
X12805000Y-10725000D01*
X12745000Y-10725000D01*
X12741173Y-10724239D01*
X12737929Y-10722071D01*
X12735761Y-10718827D01*
X12735000Y-10715000D01*
X12735000Y-10595000D01*
X12735761Y-10591173D01*
X12737929Y-10587929D01*
X12741173Y-10585761D01*
X12745000Y-10585000D01*
X12805000Y-10585000D01*
X12808827Y-10585761D01*
G37*
G36*
X8733827Y-10430761D02*
G01*
X8737071Y-10432929D01*
X8739239Y-10436173D01*
X8740000Y-10440000D01*
X8740000Y-10640000D01*
X8739239Y-10643827D01*
X8737071Y-10647071D01*
X8733827Y-10649239D01*
X8730000Y-10650000D01*
X8530000Y-10650000D01*
X8526173Y-10649239D01*
X8522929Y-10647071D01*
X8520761Y-10643827D01*
X8520000Y-10640000D01*
X8520000Y-10440000D01*
X8520761Y-10436173D01*
X8522929Y-10432929D01*
X8526173Y-10430761D01*
X8530000Y-10430000D01*
X8730000Y-10430000D01*
X8733827Y-10430761D01*
G37*
G36*
X12453327Y-10527261D02*
G01*
X12456571Y-10529429D01*
X12458739Y-10532673D01*
X12459500Y-10536500D01*
X12459500Y-10627500D01*
X12458739Y-10631327D01*
X12456571Y-10634571D01*
X12453327Y-10636739D01*
X12449500Y-10637500D01*
X12310500Y-10637500D01*
X12306673Y-10636739D01*
X12303429Y-10634571D01*
X12301261Y-10631327D01*
X12300500Y-10627500D01*
X12300500Y-10536500D01*
X12301261Y-10532673D01*
X12303429Y-10529429D01*
X12306673Y-10527261D01*
X12310500Y-10526500D01*
X12449500Y-10526500D01*
X12453327Y-10527261D01*
G37*
G36*
X7553827Y-10375761D02*
G01*
X7557071Y-10377929D01*
X7559239Y-10381173D01*
X7560000Y-10385000D01*
X7560000Y-10615000D01*
X7559239Y-10618827D01*
X7557071Y-10622071D01*
X7553827Y-10624239D01*
X7550000Y-10625000D01*
X7310000Y-10625000D01*
X7306173Y-10624239D01*
X7302929Y-10622071D01*
X7300761Y-10618827D01*
X7300000Y-10615000D01*
X7300000Y-10385000D01*
X7300761Y-10381173D01*
X7302929Y-10377929D01*
X7306173Y-10375761D01*
X7310000Y-10375000D01*
X7550000Y-10375000D01*
X7553827Y-10375761D01*
G37*
G36*
X8033827Y-10375761D02*
G01*
X8037071Y-10377929D01*
X8039239Y-10381173D01*
X8040000Y-10385000D01*
X8040000Y-10615000D01*
X8039239Y-10618827D01*
X8037071Y-10622071D01*
X8033827Y-10624239D01*
X8030000Y-10625000D01*
X7790000Y-10625000D01*
X7786173Y-10624239D01*
X7782929Y-10622071D01*
X7780761Y-10618827D01*
X7780000Y-10615000D01*
X7780000Y-10385000D01*
X7780761Y-10381173D01*
X7782929Y-10377929D01*
X7786173Y-10375761D01*
X7790000Y-10375000D01*
X8030000Y-10375000D01*
X8033827Y-10375761D01*
G37*
G36*
X13280827Y-10505261D02*
G01*
X13284071Y-10507429D01*
X13286239Y-10510673D01*
X13287000Y-10514500D01*
X13287000Y-10597500D01*
X13286239Y-10601327D01*
X13284071Y-10604571D01*
X13280827Y-10606739D01*
X13277000Y-10607500D01*
X13183000Y-10607500D01*
X13179173Y-10606739D01*
X13175929Y-10604571D01*
X13173761Y-10601327D01*
X13173000Y-10597500D01*
X13173000Y-10514500D01*
X13173761Y-10510673D01*
X13175929Y-10507429D01*
X13179173Y-10505261D01*
X13183000Y-10504500D01*
X13277000Y-10504500D01*
X13280827Y-10505261D01*
G37*
G36*
X6903827Y-10383361D02*
G01*
X6907071Y-10385529D01*
X6909239Y-10388773D01*
X6910000Y-10392600D01*
X6910000Y-10592600D01*
X6909239Y-10596427D01*
X6907071Y-10599671D01*
X6903827Y-10601839D01*
X6900000Y-10602600D01*
X6700000Y-10602600D01*
X6696173Y-10601839D01*
X6692929Y-10599671D01*
X6690761Y-10596427D01*
X6690000Y-10592600D01*
X6690000Y-10392600D01*
X6690761Y-10388773D01*
X6692929Y-10385529D01*
X6696173Y-10383361D01*
X6700000Y-10382600D01*
X6900000Y-10382600D01*
X6903827Y-10383361D01*
G37*
G36*
X13280827Y-10373261D02*
G01*
X13284071Y-10375429D01*
X13286239Y-10378673D01*
X13287000Y-10382500D01*
X13287000Y-10465500D01*
X13286239Y-10469327D01*
X13284071Y-10472571D01*
X13280827Y-10474739D01*
X13277000Y-10475500D01*
X13183000Y-10475500D01*
X13179173Y-10474739D01*
X13175929Y-10472571D01*
X13173761Y-10469327D01*
X13173000Y-10465500D01*
X13173000Y-10382500D01*
X13173761Y-10378673D01*
X13175929Y-10375429D01*
X13179173Y-10373261D01*
X13183000Y-10372500D01*
X13277000Y-10372500D01*
X13280827Y-10373261D01*
G37*
G36*
X12618827Y-10335761D02*
G01*
X12622071Y-10337929D01*
X12624239Y-10341173D01*
X12625000Y-10345000D01*
X12625000Y-10465000D01*
X12624239Y-10468827D01*
X12622071Y-10472071D01*
X12618827Y-10474239D01*
X12615000Y-10475000D01*
X12555000Y-10475000D01*
X12551173Y-10474239D01*
X12547929Y-10472071D01*
X12545761Y-10468827D01*
X12545000Y-10465000D01*
X12545000Y-10345000D01*
X12545761Y-10341173D01*
X12547929Y-10337929D01*
X12551173Y-10335761D01*
X12555000Y-10335000D01*
X12615000Y-10335000D01*
X12618827Y-10335761D01*
G37*
G36*
X12713827Y-10335761D02*
G01*
X12717071Y-10337929D01*
X12719239Y-10341173D01*
X12720000Y-10345000D01*
X12720000Y-10465000D01*
X12719239Y-10468827D01*
X12717071Y-10472071D01*
X12713827Y-10474239D01*
X12710000Y-10475000D01*
X12650000Y-10475000D01*
X12646173Y-10474239D01*
X12642929Y-10472071D01*
X12640761Y-10468827D01*
X12640000Y-10465000D01*
X12640000Y-10345000D01*
X12640761Y-10341173D01*
X12642929Y-10337929D01*
X12646173Y-10335761D01*
X12650000Y-10335000D01*
X12710000Y-10335000D01*
X12713827Y-10335761D01*
G37*
G36*
X12808827Y-10335761D02*
G01*
X12812071Y-10337929D01*
X12814239Y-10341173D01*
X12815000Y-10345000D01*
X12815000Y-10465000D01*
X12814239Y-10468827D01*
X12812071Y-10472071D01*
X12808827Y-10474239D01*
X12805000Y-10475000D01*
X12745000Y-10475000D01*
X12741173Y-10474239D01*
X12737929Y-10472071D01*
X12735761Y-10468827D01*
X12735000Y-10465000D01*
X12735000Y-10345000D01*
X12735761Y-10341173D01*
X12737929Y-10337929D01*
X12741173Y-10335761D01*
X12745000Y-10335000D01*
X12805000Y-10335000D01*
X12808827Y-10335761D01*
G37*
G36*
X12453327Y-10363261D02*
G01*
X12456571Y-10365429D01*
X12458739Y-10368673D01*
X12459500Y-10372500D01*
X12459500Y-10463500D01*
X12458739Y-10467327D01*
X12456571Y-10470571D01*
X12453327Y-10472739D01*
X12449500Y-10473500D01*
X12310500Y-10473500D01*
X12306673Y-10472739D01*
X12303429Y-10470571D01*
X12301261Y-10467327D01*
X12300500Y-10463500D01*
X12300500Y-10372500D01*
X12301261Y-10368673D01*
X12303429Y-10365429D01*
X12306673Y-10363261D01*
X12310500Y-10362500D01*
X12449500Y-10362500D01*
X12453327Y-10363261D01*
G37*
G36*
X13554827Y-10349261D02*
G01*
X13558071Y-10351429D01*
X13560239Y-10354673D01*
X13561000Y-10358500D01*
X13561000Y-10463500D01*
X13560239Y-10467327D01*
X13558071Y-10470571D01*
X13554827Y-10472739D01*
X13551000Y-10473500D01*
X13369000Y-10473500D01*
X13365173Y-10472739D01*
X13361929Y-10470571D01*
X13359761Y-10467327D01*
X13359000Y-10463500D01*
X13359000Y-10358500D01*
X13359761Y-10354673D01*
X13361929Y-10351429D01*
X13365173Y-10349261D01*
X13369000Y-10348500D01*
X13551000Y-10348500D01*
X13554827Y-10349261D01*
G37*
G36*
X17561327Y-10330791D02*
G01*
X17564571Y-10332959D01*
X17566739Y-10336203D01*
X17567500Y-10340030D01*
X17567500Y-10415030D01*
X17566739Y-10418857D01*
X17564571Y-10422101D01*
X17561327Y-10424269D01*
X17557500Y-10425030D01*
X17482500Y-10425030D01*
X17478673Y-10424269D01*
X17475429Y-10422101D01*
X17473261Y-10418857D01*
X17472500Y-10415030D01*
X17472500Y-10340030D01*
X17473261Y-10336203D01*
X17475429Y-10332959D01*
X17478673Y-10330791D01*
X17482500Y-10330030D01*
X17557500Y-10330030D01*
X17561327Y-10330791D01*
G37*
G36*
X11653827Y-10190761D02*
G01*
X11657071Y-10192929D01*
X11659239Y-10196173D01*
X11660000Y-10200000D01*
X11660000Y-10400000D01*
X11659239Y-10403827D01*
X11657071Y-10407071D01*
X11653827Y-10409239D01*
X11650000Y-10410000D01*
X11450000Y-10410000D01*
X11446173Y-10409239D01*
X11442929Y-10407071D01*
X11440761Y-10403827D01*
X11440000Y-10400000D01*
X11440000Y-10200000D01*
X11440761Y-10196173D01*
X11442929Y-10192929D01*
X11446173Y-10190761D01*
X11450000Y-10190000D01*
X11650000Y-10190000D01*
X11653827Y-10190761D01*
G37*
G36*
X17561327Y-10110791D02*
G01*
X17564571Y-10112959D01*
X17566739Y-10116203D01*
X17567500Y-10120030D01*
X17567500Y-10195030D01*
X17566739Y-10198857D01*
X17564571Y-10202101D01*
X17561327Y-10204269D01*
X17557500Y-10205030D01*
X17482500Y-10205030D01*
X17478673Y-10204269D01*
X17475429Y-10202101D01*
X17473261Y-10198857D01*
X17472500Y-10195030D01*
X17472500Y-10120030D01*
X17473261Y-10116203D01*
X17475429Y-10112959D01*
X17478673Y-10110791D01*
X17482500Y-10110030D01*
X17557500Y-10110030D01*
X17561327Y-10110791D01*
G37*
G36*
X12616427Y-9994261D02*
G01*
X12619671Y-9996429D01*
X12621839Y-9999673D01*
X12622600Y-10003500D01*
X12622600Y-10163500D01*
X12621839Y-10167327D01*
X12619671Y-10170571D01*
X12616427Y-10172739D01*
X12612600Y-10173500D01*
X12312600Y-10173500D01*
X12308773Y-10172739D01*
X12305529Y-10170571D01*
X12303361Y-10167327D01*
X12302600Y-10163500D01*
X12302600Y-10003500D01*
X12303361Y-9999673D01*
X12305529Y-9996429D01*
X12308773Y-9994261D01*
X12312600Y-9993500D01*
X12612600Y-9993500D01*
X12616427Y-9994261D01*
G37*
G36*
X13494427Y-9555761D02*
G01*
X13497671Y-9557929D01*
X13499839Y-9561173D01*
X13500600Y-9565000D01*
X13500600Y-10145000D01*
X13499839Y-10148827D01*
X13497671Y-10152071D01*
X13494427Y-10154239D01*
X13490600Y-10155000D01*
X12870600Y-10155000D01*
X12866773Y-10154239D01*
X12863529Y-10152071D01*
X12861361Y-10148827D01*
X12860600Y-10145000D01*
X12860600Y-9565000D01*
X12861361Y-9561173D01*
X12863529Y-9557929D01*
X12866773Y-9555761D01*
X12870600Y-9555000D01*
X13490600Y-9555000D01*
X13494427Y-9555761D01*
G37*
G36*
X17941193Y-10013127D02*
G01*
X17944437Y-10015295D01*
X17946605Y-10018539D01*
X17947366Y-10022366D01*
X17947366Y-10142366D01*
X17946605Y-10146193D01*
X17944437Y-10149437D01*
X17941193Y-10151605D01*
X17937366Y-10152366D01*
X17877366Y-10152366D01*
X17873539Y-10151605D01*
X17870295Y-10149437D01*
X17868127Y-10146193D01*
X17867366Y-10142366D01*
X17867366Y-10022366D01*
X17868127Y-10018539D01*
X17870295Y-10015295D01*
X17873539Y-10013127D01*
X17877366Y-10012366D01*
X17937366Y-10012366D01*
X17941193Y-10013127D01*
G37*
G36*
X18036193Y-10013127D02*
G01*
X18039437Y-10015295D01*
X18041605Y-10018539D01*
X18042366Y-10022366D01*
X18042366Y-10142366D01*
X18041605Y-10146193D01*
X18039437Y-10149437D01*
X18036193Y-10151605D01*
X18032366Y-10152366D01*
X17972366Y-10152366D01*
X17968539Y-10151605D01*
X17965295Y-10149437D01*
X17963127Y-10146193D01*
X17962366Y-10142366D01*
X17962366Y-10022366D01*
X17963127Y-10018539D01*
X17965295Y-10015295D01*
X17968539Y-10013127D01*
X17972366Y-10012366D01*
X18032366Y-10012366D01*
X18036193Y-10013127D01*
G37*
G36*
X18131193Y-10013127D02*
G01*
X18134437Y-10015295D01*
X18136605Y-10018539D01*
X18137366Y-10022366D01*
X18137366Y-10142366D01*
X18136605Y-10146193D01*
X18134437Y-10149437D01*
X18131193Y-10151605D01*
X18127366Y-10152366D01*
X18067366Y-10152366D01*
X18063539Y-10151605D01*
X18060295Y-10149437D01*
X18058127Y-10146193D01*
X18057366Y-10142366D01*
X18057366Y-10022366D01*
X18058127Y-10018539D01*
X18060295Y-10015295D01*
X18063539Y-10013127D01*
X18067366Y-10012366D01*
X18127366Y-10012366D01*
X18131193Y-10013127D01*
G37*
G36*
X11639827Y-9994761D02*
G01*
X11643071Y-9996929D01*
X11645239Y-10000173D01*
X11646000Y-10004000D01*
X11646000Y-10116000D01*
X11645239Y-10119827D01*
X11643071Y-10123071D01*
X11639827Y-10125239D01*
X11636000Y-10126000D01*
X11444000Y-10126000D01*
X11440173Y-10125239D01*
X11436929Y-10123071D01*
X11434761Y-10119827D01*
X11434000Y-10116000D01*
X11434000Y-10004000D01*
X11434761Y-10000173D01*
X11436929Y-9996929D01*
X11440173Y-9994761D01*
X11444000Y-9994000D01*
X11636000Y-9994000D01*
X11639827Y-9994761D01*
G37*
G36*
X17723827Y-9828291D02*
G01*
X17727071Y-9830459D01*
X17729239Y-9833703D01*
X17730000Y-9837530D01*
X17730000Y-10037530D01*
X17729239Y-10041357D01*
X17727071Y-10044601D01*
X17723827Y-10046769D01*
X17720000Y-10047530D01*
X17520000Y-10047530D01*
X17516173Y-10046769D01*
X17512929Y-10044601D01*
X17510761Y-10041357D01*
X17510000Y-10037530D01*
X17510000Y-9837530D01*
X17510761Y-9833703D01*
X17512929Y-9830459D01*
X17516173Y-9828291D01*
X17520000Y-9827530D01*
X17720000Y-9827530D01*
X17723827Y-9828291D01*
G37*
G36*
X20258827Y-9858261D02*
G01*
X20262071Y-9860429D01*
X20264239Y-9863673D01*
X20265000Y-9867500D01*
X20265000Y-10012500D01*
X20264239Y-10016327D01*
X20262071Y-10019571D01*
X20258827Y-10021739D01*
X20255000Y-10022500D01*
X20155000Y-10022500D01*
X20151173Y-10021739D01*
X20147929Y-10019571D01*
X20145761Y-10016327D01*
X20145000Y-10012500D01*
X20145000Y-9867500D01*
X20145761Y-9863673D01*
X20147929Y-9860429D01*
X20151173Y-9858261D01*
X20155000Y-9857500D01*
X20255000Y-9857500D01*
X20258827Y-9858261D01*
G37*
G36*
X20448827Y-9858261D02*
G01*
X20452071Y-9860429D01*
X20454239Y-9863673D01*
X20455000Y-9867500D01*
X20455000Y-10012500D01*
X20454239Y-10016327D01*
X20452071Y-10019571D01*
X20448827Y-10021739D01*
X20445000Y-10022500D01*
X20345000Y-10022500D01*
X20341173Y-10021739D01*
X20337929Y-10019571D01*
X20335761Y-10016327D01*
X20335000Y-10012500D01*
X20335000Y-9867500D01*
X20335761Y-9863673D01*
X20337929Y-9860429D01*
X20341173Y-9858261D01*
X20345000Y-9857500D01*
X20445000Y-9857500D01*
X20448827Y-9858261D01*
G37*
G36*
X5386092Y-9568555D02*
G01*
X5409466Y-9574818D01*
X5431823Y-9584079D01*
X5452781Y-9596178D01*
X5471979Y-9610910D01*
X5489090Y-9628021D01*
X5503822Y-9647220D01*
X5515922Y-9668177D01*
X5525182Y-9690534D01*
X5531445Y-9713908D01*
X5534604Y-9737900D01*
X5534604Y-9762100D01*
X5531445Y-9786092D01*
X5525182Y-9809466D01*
X5515922Y-9831823D01*
X5503822Y-9852781D01*
X5489090Y-9871979D01*
X5471979Y-9889090D01*
X5452781Y-9903822D01*
X5431823Y-9915922D01*
X5409466Y-9925182D01*
X5386092Y-9931445D01*
X5362100Y-9934604D01*
X5337900Y-9934604D01*
X5313908Y-9931445D01*
X5290534Y-9925182D01*
X5268177Y-9915922D01*
X5247220Y-9903822D01*
X5228021Y-9889090D01*
X5210910Y-9871979D01*
X5196178Y-9852781D01*
X5184079Y-9831823D01*
X5174818Y-9809466D01*
X5168555Y-9786092D01*
X5165396Y-9762100D01*
X5165396Y-9737900D01*
X5168555Y-9713908D01*
X5174818Y-9690534D01*
X5184079Y-9668177D01*
X5196178Y-9647220D01*
X5210910Y-9628021D01*
X5228021Y-9610910D01*
X5247220Y-9596178D01*
X5268177Y-9584079D01*
X5290534Y-9574818D01*
X5313908Y-9568555D01*
X5337900Y-9565396D01*
X5362100Y-9565396D01*
X5386092Y-9568555D01*
G37*
G36*
X24186092Y-9568555D02*
G01*
X24209466Y-9574818D01*
X24231823Y-9584079D01*
X24252780Y-9596178D01*
X24271979Y-9610910D01*
X24289090Y-9628021D01*
X24303822Y-9647220D01*
X24315921Y-9668177D01*
X24325182Y-9690534D01*
X24331445Y-9713908D01*
X24334604Y-9737900D01*
X24334604Y-9762100D01*
X24331445Y-9786092D01*
X24325182Y-9809466D01*
X24315921Y-9831823D01*
X24303822Y-9852781D01*
X24289090Y-9871979D01*
X24271979Y-9889090D01*
X24252780Y-9903822D01*
X24231823Y-9915922D01*
X24209466Y-9925182D01*
X24186092Y-9931445D01*
X24162100Y-9934604D01*
X24137900Y-9934604D01*
X24113908Y-9931445D01*
X24090534Y-9925182D01*
X24068177Y-9915922D01*
X24047219Y-9903822D01*
X24028021Y-9889090D01*
X24010910Y-9871979D01*
X23996178Y-9852781D01*
X23984078Y-9831823D01*
X23974818Y-9809466D01*
X23968555Y-9786092D01*
X23965396Y-9762100D01*
X23965396Y-9737900D01*
X23968555Y-9713908D01*
X23974818Y-9690534D01*
X23984078Y-9668177D01*
X23996178Y-9647220D01*
X24010910Y-9628021D01*
X24028021Y-9610910D01*
X24047219Y-9596178D01*
X24068177Y-9584079D01*
X24090534Y-9574818D01*
X24113908Y-9568555D01*
X24137900Y-9565396D01*
X24162100Y-9565396D01*
X24186092Y-9568555D01*
G37*
G36*
X17941193Y-9763127D02*
G01*
X17944437Y-9765295D01*
X17946605Y-9768539D01*
X17947366Y-9772366D01*
X17947366Y-9892366D01*
X17946605Y-9896193D01*
X17944437Y-9899437D01*
X17941193Y-9901605D01*
X17937366Y-9902366D01*
X17877366Y-9902366D01*
X17873539Y-9901605D01*
X17870295Y-9899437D01*
X17868127Y-9896193D01*
X17867366Y-9892366D01*
X17867366Y-9772366D01*
X17868127Y-9768539D01*
X17870295Y-9765295D01*
X17873539Y-9763127D01*
X17877366Y-9762366D01*
X17937366Y-9762366D01*
X17941193Y-9763127D01*
G37*
G36*
X18036193Y-9763127D02*
G01*
X18039437Y-9765295D01*
X18041605Y-9768539D01*
X18042366Y-9772366D01*
X18042366Y-9892366D01*
X18041605Y-9896193D01*
X18039437Y-9899437D01*
X18036193Y-9901605D01*
X18032366Y-9902366D01*
X17972366Y-9902366D01*
X17968539Y-9901605D01*
X17965295Y-9899437D01*
X17963127Y-9896193D01*
X17962366Y-9892366D01*
X17962366Y-9772366D01*
X17963127Y-9768539D01*
X17965295Y-9765295D01*
X17968539Y-9763127D01*
X17972366Y-9762366D01*
X18032366Y-9762366D01*
X18036193Y-9763127D01*
G37*
G36*
X18131193Y-9763127D02*
G01*
X18134437Y-9765295D01*
X18136605Y-9768539D01*
X18137366Y-9772366D01*
X18137366Y-9892366D01*
X18136605Y-9896193D01*
X18134437Y-9899437D01*
X18131193Y-9901605D01*
X18127366Y-9902366D01*
X18067366Y-9902366D01*
X18063539Y-9901605D01*
X18060295Y-9899437D01*
X18058127Y-9896193D01*
X18057366Y-9892366D01*
X18057366Y-9772366D01*
X18058127Y-9768539D01*
X18060295Y-9765295D01*
X18063539Y-9763127D01*
X18067366Y-9762366D01*
X18127366Y-9762366D01*
X18131193Y-9763127D01*
G37*
G36*
X23263827Y-9720761D02*
G01*
X23267071Y-9722929D01*
X23269239Y-9726173D01*
X23270000Y-9730000D01*
X23270000Y-9865000D01*
X23269239Y-9868827D01*
X23267071Y-9872071D01*
X23263827Y-9874239D01*
X23260000Y-9875000D01*
X23060000Y-9875000D01*
X23056173Y-9874239D01*
X23052929Y-9872071D01*
X23050761Y-9868827D01*
X23050000Y-9865000D01*
X23050000Y-9730000D01*
X23050761Y-9726173D01*
X23052929Y-9722929D01*
X23056173Y-9720761D01*
X23060000Y-9720000D01*
X23260000Y-9720000D01*
X23263827Y-9720761D01*
G37*
G36*
X11639827Y-9714761D02*
G01*
X11643071Y-9716929D01*
X11645239Y-9720173D01*
X11646000Y-9724000D01*
X11646000Y-9836000D01*
X11645239Y-9839827D01*
X11643071Y-9843071D01*
X11639827Y-9845239D01*
X11636000Y-9846000D01*
X11444000Y-9846000D01*
X11440173Y-9845239D01*
X11436929Y-9843071D01*
X11434761Y-9839827D01*
X11434000Y-9836000D01*
X11434000Y-9724000D01*
X11434761Y-9720173D01*
X11436929Y-9716929D01*
X11440173Y-9714761D01*
X11444000Y-9714000D01*
X11636000Y-9714000D01*
X11639827Y-9714761D01*
G37*
G36*
X19723827Y-9690761D02*
G01*
X19727071Y-9692929D01*
X19729239Y-9696173D01*
X19730000Y-9700000D01*
X19730000Y-9835000D01*
X19729239Y-9838827D01*
X19727071Y-9842071D01*
X19723827Y-9844239D01*
X19720000Y-9845000D01*
X19520000Y-9845000D01*
X19516173Y-9844239D01*
X19512929Y-9842071D01*
X19510761Y-9838827D01*
X19510000Y-9835000D01*
X19510000Y-9700000D01*
X19510761Y-9696173D01*
X19512929Y-9692929D01*
X19516173Y-9690761D01*
X19520000Y-9690000D01*
X19720000Y-9690000D01*
X19723827Y-9690761D01*
G37*
G36*
X11363827Y-9610761D02*
G01*
X11367071Y-9612929D01*
X11369239Y-9616173D01*
X11370000Y-9620000D01*
X11370000Y-9820000D01*
X11369239Y-9823827D01*
X11367071Y-9827071D01*
X11363827Y-9829239D01*
X11360000Y-9830000D01*
X11160000Y-9830000D01*
X11156173Y-9829239D01*
X11152929Y-9827071D01*
X11150761Y-9823827D01*
X11150000Y-9820000D01*
X11150000Y-9620000D01*
X11150761Y-9616173D01*
X11152929Y-9612929D01*
X11156173Y-9610761D01*
X11160000Y-9610000D01*
X11360000Y-9610000D01*
X11363827Y-9610761D01*
G37*
G36*
X6892577Y-9613861D02*
G01*
X6895821Y-9616029D01*
X6897989Y-9619273D01*
X6898750Y-9623100D01*
X6898750Y-9818100D01*
X6897989Y-9821927D01*
X6895821Y-9825171D01*
X6892577Y-9827339D01*
X6888750Y-9828100D01*
X6693750Y-9828100D01*
X6689923Y-9827339D01*
X6686679Y-9825171D01*
X6684511Y-9821927D01*
X6683750Y-9818100D01*
X6683750Y-9623100D01*
X6684511Y-9619273D01*
X6686679Y-9616029D01*
X6689923Y-9613861D01*
X6693750Y-9613100D01*
X6888750Y-9613100D01*
X6892577Y-9613861D01*
G37*
G36*
X6308345Y-9616070D02*
G01*
X6324388Y-9621283D01*
X6339419Y-9628941D01*
X6353066Y-9638856D01*
X6364994Y-9650784D01*
X6374909Y-9664431D01*
X6382567Y-9679462D01*
X6387780Y-9695505D01*
X6390419Y-9712166D01*
X6390419Y-9729034D01*
X6387780Y-9745695D01*
X6382567Y-9761739D01*
X6374909Y-9776769D01*
X6364994Y-9790416D01*
X6353066Y-9802344D01*
X6339419Y-9812259D01*
X6324388Y-9819917D01*
X6308345Y-9825130D01*
X6291684Y-9827769D01*
X6274816Y-9827769D01*
X6258155Y-9825130D01*
X6242111Y-9819917D01*
X6227081Y-9812259D01*
X6213434Y-9802344D01*
X6201506Y-9790416D01*
X6191591Y-9776769D01*
X6183933Y-9761739D01*
X6178720Y-9745695D01*
X6176081Y-9729034D01*
X6176081Y-9712166D01*
X6178720Y-9695505D01*
X6183933Y-9679462D01*
X6191591Y-9664431D01*
X6201506Y-9650784D01*
X6213434Y-9638856D01*
X6227081Y-9628941D01*
X6242111Y-9621283D01*
X6258155Y-9616070D01*
X6274816Y-9613431D01*
X6291684Y-9613431D01*
X6308345Y-9616070D01*
G37*
G36*
X20113327Y-9687261D02*
G01*
X20116571Y-9689429D01*
X20118739Y-9692673D01*
X20119500Y-9696500D01*
X20119500Y-9787500D01*
X20118739Y-9791327D01*
X20116571Y-9794571D01*
X20113327Y-9796739D01*
X20109500Y-9797500D01*
X19970500Y-9797500D01*
X19966673Y-9796739D01*
X19963429Y-9794571D01*
X19961261Y-9791327D01*
X19960500Y-9787500D01*
X19960500Y-9696500D01*
X19961261Y-9692673D01*
X19963429Y-9689429D01*
X19966673Y-9687261D01*
X19970500Y-9686500D01*
X20109500Y-9686500D01*
X20113327Y-9687261D01*
G37*
G36*
X19910827Y-9685261D02*
G01*
X19914071Y-9687429D01*
X19916239Y-9690673D01*
X19917000Y-9694500D01*
X19917000Y-9777500D01*
X19916239Y-9781327D01*
X19914071Y-9784571D01*
X19910827Y-9786739D01*
X19907000Y-9787500D01*
X19813000Y-9787500D01*
X19809173Y-9786739D01*
X19805929Y-9784571D01*
X19803761Y-9781327D01*
X19803000Y-9777500D01*
X19803000Y-9694500D01*
X19803761Y-9690673D01*
X19805929Y-9687429D01*
X19809173Y-9685261D01*
X19813000Y-9684500D01*
X19907000Y-9684500D01*
X19910827Y-9685261D01*
G37*
G36*
X13963827Y-9560761D02*
G01*
X13967071Y-9562929D01*
X13969239Y-9566173D01*
X13970000Y-9570000D01*
X13970000Y-9770000D01*
X13969239Y-9773827D01*
X13967071Y-9777071D01*
X13963827Y-9779239D01*
X13960000Y-9780000D01*
X13760000Y-9780000D01*
X13756173Y-9779239D01*
X13752929Y-9777071D01*
X13750761Y-9773827D01*
X13750000Y-9770000D01*
X13750000Y-9570000D01*
X13750761Y-9566173D01*
X13752929Y-9562929D01*
X13756173Y-9560761D01*
X13760000Y-9560000D01*
X13960000Y-9560000D01*
X13963827Y-9560761D01*
G37*
G36*
X12616427Y-9537261D02*
G01*
X12619671Y-9539429D01*
X12621839Y-9542673D01*
X12622600Y-9546500D01*
X12622600Y-9706500D01*
X12621839Y-9710327D01*
X12619671Y-9713571D01*
X12616427Y-9715739D01*
X12612600Y-9716500D01*
X12312600Y-9716500D01*
X12308773Y-9715739D01*
X12305529Y-9713571D01*
X12303361Y-9710327D01*
X12302600Y-9706500D01*
X12302600Y-9546500D01*
X12303361Y-9542673D01*
X12305529Y-9539429D01*
X12308773Y-9537261D01*
X12312600Y-9536500D01*
X12612600Y-9536500D01*
X12616427Y-9537261D01*
G37*
G36*
X23450827Y-9595261D02*
G01*
X23454071Y-9597429D01*
X23456239Y-9600673D01*
X23457000Y-9604500D01*
X23457000Y-9687500D01*
X23456239Y-9691327D01*
X23454071Y-9694571D01*
X23450827Y-9696739D01*
X23447000Y-9697500D01*
X23353000Y-9697500D01*
X23349173Y-9696739D01*
X23345929Y-9694571D01*
X23343761Y-9691327D01*
X23343000Y-9687500D01*
X23343000Y-9604500D01*
X23343761Y-9600673D01*
X23345929Y-9597429D01*
X23349173Y-9595261D01*
X23353000Y-9594500D01*
X23447000Y-9594500D01*
X23450827Y-9595261D01*
G37*
G36*
X19910827Y-9553261D02*
G01*
X19914071Y-9555429D01*
X19916239Y-9558673D01*
X19917000Y-9562500D01*
X19917000Y-9645500D01*
X19916239Y-9649327D01*
X19914071Y-9652571D01*
X19910827Y-9654739D01*
X19907000Y-9655500D01*
X19813000Y-9655500D01*
X19809173Y-9654739D01*
X19805929Y-9652571D01*
X19803761Y-9649327D01*
X19803000Y-9645500D01*
X19803000Y-9562500D01*
X19803761Y-9558673D01*
X19805929Y-9555429D01*
X19809173Y-9553261D01*
X19813000Y-9552500D01*
X19907000Y-9552500D01*
X19910827Y-9553261D01*
G37*
G36*
X17863697Y-9460821D02*
G01*
X17866941Y-9462989D01*
X17869109Y-9466233D01*
X17869870Y-9470060D01*
X17869870Y-9625000D01*
X17869109Y-9628827D01*
X17866941Y-9632071D01*
X17863697Y-9634239D01*
X17859870Y-9635000D01*
X17717630Y-9635000D01*
X17713803Y-9634239D01*
X17710559Y-9632071D01*
X17708391Y-9628827D01*
X17707630Y-9625000D01*
X17707630Y-9470060D01*
X17708391Y-9466233D01*
X17710559Y-9462989D01*
X17713803Y-9460821D01*
X17717630Y-9460060D01*
X17859870Y-9460060D01*
X17863697Y-9460821D01*
G37*
G36*
X18356197Y-9460821D02*
G01*
X18359441Y-9462989D01*
X18361609Y-9466233D01*
X18362370Y-9470060D01*
X18362370Y-9625000D01*
X18361609Y-9628827D01*
X18359441Y-9632071D01*
X18356197Y-9634239D01*
X18352370Y-9635000D01*
X18210130Y-9635000D01*
X18206303Y-9634239D01*
X18203059Y-9632071D01*
X18201552Y-9629816D01*
X18196438Y-9629816D01*
X18194931Y-9632071D01*
X18191687Y-9634239D01*
X18187860Y-9635000D01*
X18142140Y-9635000D01*
X18138313Y-9634239D01*
X18135069Y-9632071D01*
X18132901Y-9628827D01*
X18132140Y-9625000D01*
X18132140Y-9624508D01*
X18131603Y-9621807D01*
X18123392Y-9621811D01*
X18122860Y-9624500D01*
X18122860Y-9625000D01*
X18077140Y-9625000D01*
X18077140Y-9487840D01*
X18122860Y-9487840D01*
X18122860Y-9488336D01*
X18123395Y-9491030D01*
X18131603Y-9491032D01*
X18132140Y-9488332D01*
X18132140Y-9487840D01*
X18132901Y-9484013D01*
X18135069Y-9480769D01*
X18138313Y-9478601D01*
X18142140Y-9477840D01*
X18187860Y-9477840D01*
X18191687Y-9478601D01*
X18194931Y-9480769D01*
X18194936Y-9480777D01*
X18200130Y-9478001D01*
X18200130Y-9470552D01*
X18200130Y-9470060D01*
X18200891Y-9466233D01*
X18203059Y-9462989D01*
X18206303Y-9460821D01*
X18210130Y-9460060D01*
X18352370Y-9460060D01*
X18356197Y-9460821D01*
G37*
G36*
X20113327Y-9523261D02*
G01*
X20116571Y-9525429D01*
X20118739Y-9528673D01*
X20119500Y-9532500D01*
X20119500Y-9623500D01*
X20118739Y-9627327D01*
X20116571Y-9630571D01*
X20113327Y-9632739D01*
X20109500Y-9633500D01*
X19970500Y-9633500D01*
X19966673Y-9632739D01*
X19963429Y-9630571D01*
X19961261Y-9627327D01*
X19960500Y-9623500D01*
X19960500Y-9532500D01*
X19961261Y-9528673D01*
X19963429Y-9525429D01*
X19966673Y-9523261D01*
X19970500Y-9522500D01*
X20109500Y-9522500D01*
X20113327Y-9523261D01*
G37*
G36*
X17927860Y-9625000D02*
G01*
X17882140Y-9625000D01*
X17882140Y-9487840D01*
X17927860Y-9487840D01*
X17927860Y-9625000D01*
G37*
G36*
X17992860Y-9625000D02*
G01*
X17947140Y-9625000D01*
X17947140Y-9487840D01*
X17992860Y-9487840D01*
X17992860Y-9625000D01*
G37*
G36*
X18057860Y-9625000D02*
G01*
X18012140Y-9625000D01*
X18012140Y-9487840D01*
X18057860Y-9487840D01*
X18057860Y-9625000D01*
G37*
G36*
X17201327Y-9515761D02*
G01*
X17204571Y-9517929D01*
X17206739Y-9521173D01*
X17207500Y-9525000D01*
X17207500Y-9612500D01*
X17206739Y-9616327D01*
X17204571Y-9619571D01*
X17201327Y-9621739D01*
X17197500Y-9622500D01*
X17102500Y-9622500D01*
X17098673Y-9621739D01*
X17095429Y-9619571D01*
X17093261Y-9616327D01*
X17092500Y-9612500D01*
X17092500Y-9525000D01*
X17093261Y-9521173D01*
X17095429Y-9517929D01*
X17098673Y-9515761D01*
X17102500Y-9515000D01*
X17197500Y-9515000D01*
X17201327Y-9515761D01*
G37*
G36*
X21506327Y-9480761D02*
G01*
X21509571Y-9482929D01*
X21511739Y-9486173D01*
X21512500Y-9490000D01*
X21512500Y-9590000D01*
X21511739Y-9593827D01*
X21509571Y-9597071D01*
X21506327Y-9599239D01*
X21502500Y-9600000D01*
X21357500Y-9600000D01*
X21353673Y-9599239D01*
X21350429Y-9597071D01*
X21348261Y-9593827D01*
X21347500Y-9590000D01*
X21347500Y-9490000D01*
X21348261Y-9486173D01*
X21350429Y-9482929D01*
X21353673Y-9480761D01*
X21357500Y-9480000D01*
X21502500Y-9480000D01*
X21506327Y-9480761D01*
G37*
G36*
X21716327Y-9480761D02*
G01*
X21719571Y-9482929D01*
X21721739Y-9486173D01*
X21722500Y-9490000D01*
X21722500Y-9590000D01*
X21721739Y-9593827D01*
X21719571Y-9597071D01*
X21716327Y-9599239D01*
X21712500Y-9600000D01*
X21567500Y-9600000D01*
X21563673Y-9599239D01*
X21560429Y-9597071D01*
X21558261Y-9593827D01*
X21557500Y-9590000D01*
X21557500Y-9490000D01*
X21558261Y-9486173D01*
X21560429Y-9482929D01*
X21563673Y-9480761D01*
X21567500Y-9480000D01*
X21712500Y-9480000D01*
X21716327Y-9480761D01*
G37*
G36*
X21926327Y-9480761D02*
G01*
X21929571Y-9482929D01*
X21931739Y-9486173D01*
X21932500Y-9490000D01*
X21932500Y-9590000D01*
X21931739Y-9593827D01*
X21929571Y-9597071D01*
X21926327Y-9599239D01*
X21922500Y-9600000D01*
X21777500Y-9600000D01*
X21773673Y-9599239D01*
X21770429Y-9597071D01*
X21768261Y-9593827D01*
X21767500Y-9590000D01*
X21767500Y-9490000D01*
X21768261Y-9486173D01*
X21770429Y-9482929D01*
X21773673Y-9480761D01*
X21777500Y-9480000D01*
X21922500Y-9480000D01*
X21926327Y-9480761D01*
G37*
G36*
X22136327Y-9480761D02*
G01*
X22139571Y-9482929D01*
X22141739Y-9486173D01*
X22142500Y-9490000D01*
X22142500Y-9590000D01*
X22141739Y-9593827D01*
X22139571Y-9597071D01*
X22136327Y-9599239D01*
X22132500Y-9600000D01*
X21987500Y-9600000D01*
X21983673Y-9599239D01*
X21980429Y-9597071D01*
X21978261Y-9593827D01*
X21977500Y-9590000D01*
X21977500Y-9490000D01*
X21978261Y-9486173D01*
X21980429Y-9482929D01*
X21983673Y-9480761D01*
X21987500Y-9480000D01*
X22132500Y-9480000D01*
X22136327Y-9480761D01*
G37*
G36*
X23450827Y-9463261D02*
G01*
X23454071Y-9465429D01*
X23456239Y-9468673D01*
X23457000Y-9472500D01*
X23457000Y-9555500D01*
X23456239Y-9559327D01*
X23454071Y-9562571D01*
X23450827Y-9564739D01*
X23447000Y-9565500D01*
X23353000Y-9565500D01*
X23349173Y-9564739D01*
X23345929Y-9562571D01*
X23343761Y-9559327D01*
X23343000Y-9555500D01*
X23343000Y-9472500D01*
X23343761Y-9468673D01*
X23345929Y-9465429D01*
X23349173Y-9463261D01*
X23353000Y-9462500D01*
X23447000Y-9462500D01*
X23450827Y-9463261D01*
G37*
G36*
X17201327Y-9358261D02*
G01*
X17204571Y-9360429D01*
X17206739Y-9363673D01*
X17207500Y-9367500D01*
X17207500Y-9455000D01*
X17206739Y-9458827D01*
X17204571Y-9462071D01*
X17201327Y-9464239D01*
X17197500Y-9465000D01*
X17102500Y-9465000D01*
X17098673Y-9464239D01*
X17095429Y-9462071D01*
X17093261Y-9458827D01*
X17092500Y-9455000D01*
X17092500Y-9367500D01*
X17093261Y-9363673D01*
X17095429Y-9360429D01*
X17098673Y-9358261D01*
X17102500Y-9357500D01*
X17197500Y-9357500D01*
X17201327Y-9358261D01*
G37*
G36*
X23263827Y-9305761D02*
G01*
X23267071Y-9307929D01*
X23269239Y-9311173D01*
X23270000Y-9315000D01*
X23270000Y-9450000D01*
X23269239Y-9453827D01*
X23267071Y-9457071D01*
X23263827Y-9459239D01*
X23260000Y-9460000D01*
X23060000Y-9460000D01*
X23056173Y-9459239D01*
X23052929Y-9457071D01*
X23050761Y-9453827D01*
X23050000Y-9450000D01*
X23050000Y-9315000D01*
X23050761Y-9311173D01*
X23052929Y-9307929D01*
X23056173Y-9305761D01*
X23060000Y-9305000D01*
X23260000Y-9305000D01*
X23263827Y-9305761D01*
G37*
G36*
X19723827Y-9275761D02*
G01*
X19727071Y-9277929D01*
X19729239Y-9281173D01*
X19730000Y-9285000D01*
X19730000Y-9420000D01*
X19729239Y-9423827D01*
X19727071Y-9427071D01*
X19723827Y-9429239D01*
X19720000Y-9430000D01*
X19520000Y-9430000D01*
X19516173Y-9429239D01*
X19512929Y-9427071D01*
X19510761Y-9423827D01*
X19510000Y-9420000D01*
X19510000Y-9285000D01*
X19510761Y-9281173D01*
X19512929Y-9277929D01*
X19516173Y-9275761D01*
X19520000Y-9275000D01*
X19720000Y-9275000D01*
X19723827Y-9275761D01*
G37*
G36*
X21506327Y-9290761D02*
G01*
X21509571Y-9292929D01*
X21511739Y-9296173D01*
X21512500Y-9300000D01*
X21512500Y-9400000D01*
X21511739Y-9403827D01*
X21509571Y-9407071D01*
X21506327Y-9409239D01*
X21502500Y-9410000D01*
X21357500Y-9410000D01*
X21353673Y-9409239D01*
X21350429Y-9407071D01*
X21348261Y-9403827D01*
X21347500Y-9400000D01*
X21347500Y-9300000D01*
X21348261Y-9296173D01*
X21350429Y-9292929D01*
X21353673Y-9290761D01*
X21357500Y-9290000D01*
X21502500Y-9290000D01*
X21506327Y-9290761D01*
G37*
G36*
X21716327Y-9290761D02*
G01*
X21719571Y-9292929D01*
X21721739Y-9296173D01*
X21722500Y-9300000D01*
X21722500Y-9400000D01*
X21721739Y-9403827D01*
X21719571Y-9407071D01*
X21716327Y-9409239D01*
X21712500Y-9410000D01*
X21567500Y-9410000D01*
X21563673Y-9409239D01*
X21560429Y-9407071D01*
X21558261Y-9403827D01*
X21557500Y-9400000D01*
X21557500Y-9300000D01*
X21558261Y-9296173D01*
X21560429Y-9292929D01*
X21563673Y-9290761D01*
X21567500Y-9290000D01*
X21712500Y-9290000D01*
X21716327Y-9290761D01*
G37*
G36*
X21926327Y-9290761D02*
G01*
X21929571Y-9292929D01*
X21931739Y-9296173D01*
X21932500Y-9300000D01*
X21932500Y-9400000D01*
X21931739Y-9403827D01*
X21929571Y-9407071D01*
X21926327Y-9409239D01*
X21922500Y-9410000D01*
X21777500Y-9410000D01*
X21773673Y-9409239D01*
X21770429Y-9407071D01*
X21768261Y-9403827D01*
X21767500Y-9400000D01*
X21767500Y-9300000D01*
X21768261Y-9296173D01*
X21770429Y-9292929D01*
X21773673Y-9290761D01*
X21777500Y-9290000D01*
X21922500Y-9290000D01*
X21926327Y-9290761D01*
G37*
G36*
X22136327Y-9290761D02*
G01*
X22139571Y-9292929D01*
X22141739Y-9296173D01*
X22142500Y-9300000D01*
X22142500Y-9400000D01*
X22141739Y-9403827D01*
X22139571Y-9407071D01*
X22136327Y-9409239D01*
X22132500Y-9410000D01*
X21987500Y-9410000D01*
X21983673Y-9409239D01*
X21980429Y-9407071D01*
X21978261Y-9403827D01*
X21977500Y-9400000D01*
X21977500Y-9300000D01*
X21978261Y-9296173D01*
X21980429Y-9292929D01*
X21983673Y-9290761D01*
X21987500Y-9290000D01*
X22132500Y-9290000D01*
X22136327Y-9290761D01*
G37*
G36*
X17663548Y-9178083D02*
G01*
X17678240Y-9184169D01*
X17691462Y-9193003D01*
X17702707Y-9204248D01*
X17711542Y-9217470D01*
X17717627Y-9232162D01*
X17720729Y-9247759D01*
X17721120Y-9255710D01*
X17721120Y-9324290D01*
X17720729Y-9332241D01*
X17717627Y-9347838D01*
X17711542Y-9362530D01*
X17702707Y-9375752D01*
X17691462Y-9386997D01*
X17678240Y-9395832D01*
X17663548Y-9401917D01*
X17647951Y-9405019D01*
X17632049Y-9405019D01*
X17616452Y-9401917D01*
X17601760Y-9395832D01*
X17588538Y-9386997D01*
X17577293Y-9375752D01*
X17568459Y-9362530D01*
X17562373Y-9347838D01*
X17559271Y-9332241D01*
X17558880Y-9324290D01*
X17558880Y-9255710D01*
X17559271Y-9247759D01*
X17562373Y-9232162D01*
X17568459Y-9217470D01*
X17577293Y-9204248D01*
X17588538Y-9193003D01*
X17601760Y-9184169D01*
X17616452Y-9178083D01*
X17632049Y-9174981D01*
X17647951Y-9174981D01*
X17663548Y-9178083D01*
G37*
G36*
X18453548Y-9178083D02*
G01*
X18468240Y-9184169D01*
X18481462Y-9193003D01*
X18492707Y-9204248D01*
X18501542Y-9217470D01*
X18507627Y-9232162D01*
X18510729Y-9247759D01*
X18511120Y-9255710D01*
X18511120Y-9324290D01*
X18510729Y-9332241D01*
X18507627Y-9347838D01*
X18501542Y-9362530D01*
X18492707Y-9375752D01*
X18481462Y-9386997D01*
X18468240Y-9395832D01*
X18453548Y-9401917D01*
X18437951Y-9405019D01*
X18422049Y-9405019D01*
X18406452Y-9401917D01*
X18391760Y-9395832D01*
X18378538Y-9386997D01*
X18367293Y-9375752D01*
X18358459Y-9362530D01*
X18352373Y-9347838D01*
X18349271Y-9332241D01*
X18348880Y-9324290D01*
X18348880Y-9255710D01*
X18349271Y-9247759D01*
X18352373Y-9232162D01*
X18358459Y-9217470D01*
X18367293Y-9204248D01*
X18378538Y-9193003D01*
X18391760Y-9184169D01*
X18406452Y-9178083D01*
X18422049Y-9174981D01*
X18437951Y-9174981D01*
X18453548Y-9178083D01*
G37*
G36*
X17964527Y-9185511D02*
G01*
X17967771Y-9187679D01*
X17969939Y-9190923D01*
X17970700Y-9194750D01*
X17970700Y-9385250D01*
X17969939Y-9389077D01*
X17967771Y-9392321D01*
X17964527Y-9394489D01*
X17960700Y-9395250D01*
X17871800Y-9395250D01*
X17867973Y-9394489D01*
X17864729Y-9392321D01*
X17862561Y-9389077D01*
X17861800Y-9385250D01*
X17861800Y-9194750D01*
X17862561Y-9190923D01*
X17864729Y-9187679D01*
X17867973Y-9185511D01*
X17871800Y-9184750D01*
X17960700Y-9184750D01*
X17964527Y-9185511D01*
G37*
G36*
X18202027Y-9185511D02*
G01*
X18205271Y-9187679D01*
X18207439Y-9190923D01*
X18208200Y-9194750D01*
X18208200Y-9385250D01*
X18207439Y-9389077D01*
X18205271Y-9392321D01*
X18202027Y-9394489D01*
X18198200Y-9395250D01*
X18109300Y-9395250D01*
X18105473Y-9394489D01*
X18102229Y-9392321D01*
X18100061Y-9389077D01*
X18099300Y-9385250D01*
X18099300Y-9194750D01*
X18100061Y-9190923D01*
X18102229Y-9187679D01*
X18105473Y-9185511D01*
X18109300Y-9184750D01*
X18198200Y-9184750D01*
X18202027Y-9185511D01*
G37*
M02*
