%TF.GenerationSoftware,KiCad,Pcbnew,9.0.6*%
%TF.CreationDate,2026-07-12T08:03:15+08:00*%
%TF.ProjectId,MQTT-ModularControllerBoard,4d515454-2d4d-46f6-9475-6c6172436f6e,1.0*%
%TF.SameCoordinates,Original*%
%TF.FileFunction,Soldermask,Bot*%
%TF.FilePolarity,Negative*%
%FSLAX45Y45*%
G04 Gerber Fmt 4.5, Leading zero omitted, Abs format (unit mm)*
G04 Created by KiCad (PCBNEW 9.0.6) date 2026-07-12 08:03:15*
%MOMM*%
%LPD*%
G01*
G04 APERTURE LIST*
G04 APERTURE END LIST*
G36*
X6088827Y-13255761D02*
G01*
X6092071Y-13257929D01*
X6094239Y-13261173D01*
X6095000Y-13265000D01*
X6095000Y-13435000D01*
X6094239Y-13438827D01*
X6092071Y-13442071D01*
X6088827Y-13444239D01*
X6085000Y-13445000D01*
X5915000Y-13445000D01*
X5911173Y-13444239D01*
X5907929Y-13442071D01*
X5905761Y-13438827D01*
X5905000Y-13435000D01*
X5905000Y-13265000D01*
X5905761Y-13261173D01*
X5907929Y-13257929D01*
X5911173Y-13255761D01*
X5915000Y-13255000D01*
X6085000Y-13255000D01*
X6088827Y-13255761D01*
G37*
G36*
X10088827Y-13255761D02*
G01*
X10092071Y-13257929D01*
X10094239Y-13261173D01*
X10095000Y-13265000D01*
X10095000Y-13435000D01*
X10094239Y-13438827D01*
X10092071Y-13442071D01*
X10088827Y-13444239D01*
X10085000Y-13445000D01*
X9915000Y-13445000D01*
X9911173Y-13444239D01*
X9907929Y-13442071D01*
X9905761Y-13438827D01*
X9905000Y-13435000D01*
X9905000Y-13265000D01*
X9905761Y-13261173D01*
X9907929Y-13257929D01*
X9911173Y-13255761D01*
X9915000Y-13255000D01*
X10085000Y-13255000D01*
X10088827Y-13255761D01*
G37*
G36*
X10588827Y-13255761D02*
G01*
X10592071Y-13257929D01*
X10594239Y-13261173D01*
X10595000Y-13265000D01*
X10595000Y-13435000D01*
X10594239Y-13438827D01*
X10592071Y-13442071D01*
X10588827Y-13444239D01*
X10585000Y-13445000D01*
X10415000Y-13445000D01*
X10411173Y-13444239D01*
X10407929Y-13442071D01*
X10405761Y-13438827D01*
X10405000Y-13435000D01*
X10405000Y-13265000D01*
X10405761Y-13261173D01*
X10407929Y-13257929D01*
X10411173Y-13255761D01*
X10415000Y-13255000D01*
X10585000Y-13255000D01*
X10588827Y-13255761D01*
G37*
G36*
X14588827Y-13255761D02*
G01*
X14592071Y-13257929D01*
X14594239Y-13261173D01*
X14595000Y-13265000D01*
X14595000Y-13435000D01*
X14594239Y-13438827D01*
X14592071Y-13442071D01*
X14588827Y-13444239D01*
X14585000Y-13445000D01*
X14415000Y-13445000D01*
X14411173Y-13444239D01*
X14407929Y-13442071D01*
X14405761Y-13438827D01*
X14405000Y-13435000D01*
X14405000Y-13265000D01*
X14405761Y-13261173D01*
X14407929Y-13257929D01*
X14411173Y-13255761D01*
X14415000Y-13255000D01*
X14585000Y-13255000D01*
X14588827Y-13255761D01*
G37*
G36*
X15088827Y-13255761D02*
G01*
X15092071Y-13257929D01*
X15094239Y-13261173D01*
X15095000Y-13265000D01*
X15095000Y-13435000D01*
X15094239Y-13438827D01*
X15092071Y-13442071D01*
X15088827Y-13444239D01*
X15085000Y-13445000D01*
X14915000Y-13445000D01*
X14911173Y-13444239D01*
X14907929Y-13442071D01*
X14905761Y-13438827D01*
X14905000Y-13435000D01*
X14905000Y-13265000D01*
X14905761Y-13261173D01*
X14907929Y-13257929D01*
X14911173Y-13255761D01*
X14915000Y-13255000D01*
X15085000Y-13255000D01*
X15088827Y-13255761D01*
G37*
G36*
X19088827Y-13255761D02*
G01*
X19092071Y-13257929D01*
X19094239Y-13261173D01*
X19095000Y-13265000D01*
X19095000Y-13435000D01*
X19094239Y-13438827D01*
X19092071Y-13442071D01*
X19088827Y-13444239D01*
X19085000Y-13445000D01*
X18915000Y-13445000D01*
X18911173Y-13444239D01*
X18907929Y-13442071D01*
X18905761Y-13438827D01*
X18905000Y-13435000D01*
X18905000Y-13265000D01*
X18905761Y-13261173D01*
X18907929Y-13257929D01*
X18911173Y-13255761D01*
X18915000Y-13255000D01*
X19085000Y-13255000D01*
X19088827Y-13255761D01*
G37*
G36*
X19588827Y-13255761D02*
G01*
X19592071Y-13257929D01*
X19594239Y-13261173D01*
X19595000Y-13265000D01*
X19595000Y-13435000D01*
X19594239Y-13438827D01*
X19592071Y-13442071D01*
X19588827Y-13444239D01*
X19585000Y-13445000D01*
X19415000Y-13445000D01*
X19411173Y-13444239D01*
X19407929Y-13442071D01*
X19405761Y-13438827D01*
X19405000Y-13435000D01*
X19405000Y-13265000D01*
X19405761Y-13261173D01*
X19407929Y-13257929D01*
X19411173Y-13255761D01*
X19415000Y-13255000D01*
X19585000Y-13255000D01*
X19588827Y-13255761D01*
G37*
G36*
X23588827Y-13255761D02*
G01*
X23592071Y-13257929D01*
X23594239Y-13261173D01*
X23595000Y-13265000D01*
X23595000Y-13435000D01*
X23594239Y-13438827D01*
X23592071Y-13442071D01*
X23588827Y-13444239D01*
X23585000Y-13445000D01*
X23415000Y-13445000D01*
X23411173Y-13444239D01*
X23407929Y-13442071D01*
X23405761Y-13438827D01*
X23405000Y-13435000D01*
X23405000Y-13265000D01*
X23405761Y-13261173D01*
X23407929Y-13257929D01*
X23411173Y-13255761D01*
X23415000Y-13255000D01*
X23585000Y-13255000D01*
X23588827Y-13255761D01*
G37*
G36*
X5386092Y-12868555D02*
G01*
X5409466Y-12874818D01*
X5431823Y-12884078D01*
X5452781Y-12896178D01*
X5471979Y-12910910D01*
X5489090Y-12928021D01*
X5503822Y-12947219D01*
X5515922Y-12968177D01*
X5525182Y-12990534D01*
X5531445Y-13013908D01*
X5534604Y-13037900D01*
X5534604Y-13062100D01*
X5531445Y-13086092D01*
X5525182Y-13109466D01*
X5515922Y-13131823D01*
X5503822Y-13152780D01*
X5489090Y-13171979D01*
X5471979Y-13189090D01*
X5452781Y-13203822D01*
X5431823Y-13215921D01*
X5409466Y-13225182D01*
X5386092Y-13231445D01*
X5362100Y-13234604D01*
X5337900Y-13234604D01*
X5313908Y-13231445D01*
X5290534Y-13225182D01*
X5268177Y-13215921D01*
X5247220Y-13203822D01*
X5228021Y-13189090D01*
X5210910Y-13171979D01*
X5196178Y-13152780D01*
X5184079Y-13131823D01*
X5174818Y-13109466D01*
X5168555Y-13086092D01*
X5165396Y-13062100D01*
X5165396Y-13037900D01*
X5168555Y-13013908D01*
X5174818Y-12990534D01*
X5184079Y-12968177D01*
X5196178Y-12947219D01*
X5210910Y-12928021D01*
X5228021Y-12910910D01*
X5247220Y-12896178D01*
X5268177Y-12884078D01*
X5290534Y-12874818D01*
X5313908Y-12868555D01*
X5337900Y-12865396D01*
X5362100Y-12865396D01*
X5386092Y-12868555D01*
G37*
G36*
X24186092Y-12868555D02*
G01*
X24209466Y-12874818D01*
X24231823Y-12884078D01*
X24252780Y-12896178D01*
X24271979Y-12910910D01*
X24289090Y-12928021D01*
X24303822Y-12947219D01*
X24315921Y-12968177D01*
X24325182Y-12990534D01*
X24331445Y-13013908D01*
X24334604Y-13037900D01*
X24334604Y-13062100D01*
X24331445Y-13086092D01*
X24325182Y-13109466D01*
X24315921Y-13131823D01*
X24303822Y-13152780D01*
X24289090Y-13171979D01*
X24271979Y-13189090D01*
X24252780Y-13203822D01*
X24231823Y-13215921D01*
X24209466Y-13225182D01*
X24186092Y-13231445D01*
X24162100Y-13234604D01*
X24137900Y-13234604D01*
X24113908Y-13231445D01*
X24090534Y-13225182D01*
X24068177Y-13215921D01*
X24047219Y-13203822D01*
X24028021Y-13189090D01*
X24010910Y-13171979D01*
X23996178Y-13152780D01*
X23984078Y-13131823D01*
X23974818Y-13109466D01*
X23968555Y-13086092D01*
X23965396Y-13062100D01*
X23965396Y-13037900D01*
X23968555Y-13013908D01*
X23974818Y-12990534D01*
X23984078Y-12968177D01*
X23996178Y-12947219D01*
X24010910Y-12928021D01*
X24028021Y-12910910D01*
X24047219Y-12896178D01*
X24068177Y-12884078D01*
X24090534Y-12874818D01*
X24113908Y-12868555D01*
X24137900Y-12865396D01*
X24162100Y-12865396D01*
X24186092Y-12868555D01*
G37*
G36*
X6027577Y-13005091D02*
G01*
X6044783Y-13012217D01*
X6060267Y-13022564D01*
X6073436Y-13035733D01*
X6083782Y-13051217D01*
X6090909Y-13068423D01*
X6094542Y-13086688D01*
X6094542Y-13105312D01*
X6090909Y-13123577D01*
X6083782Y-13140783D01*
X6073436Y-13156267D01*
X6060267Y-13169436D01*
X6044783Y-13179782D01*
X6027577Y-13186909D01*
X6009312Y-13190542D01*
X5990688Y-13190542D01*
X5972423Y-13186909D01*
X5955217Y-13179782D01*
X5939733Y-13169436D01*
X5926564Y-13156267D01*
X5916217Y-13140783D01*
X5909091Y-13123577D01*
X5905457Y-13105312D01*
X5905457Y-13086688D01*
X5909091Y-13068423D01*
X5916217Y-13051217D01*
X5926564Y-13035733D01*
X5939733Y-13022564D01*
X5955217Y-13012217D01*
X5972423Y-13005091D01*
X5990688Y-13001457D01*
X6009312Y-13001457D01*
X6027577Y-13005091D01*
G37*
G36*
X10027577Y-13005091D02*
G01*
X10044783Y-13012217D01*
X10060267Y-13022564D01*
X10073436Y-13035733D01*
X10083783Y-13051217D01*
X10090909Y-13068423D01*
X10094543Y-13086688D01*
X10094543Y-13105312D01*
X10090909Y-13123577D01*
X10083783Y-13140783D01*
X10073436Y-13156267D01*
X10060267Y-13169436D01*
X10044783Y-13179782D01*
X10027577Y-13186909D01*
X10009312Y-13190542D01*
X9990688Y-13190542D01*
X9972423Y-13186909D01*
X9955217Y-13179782D01*
X9939733Y-13169436D01*
X9926564Y-13156267D01*
X9916218Y-13140783D01*
X9909091Y-13123577D01*
X9905458Y-13105312D01*
X9905458Y-13086688D01*
X9909091Y-13068423D01*
X9916218Y-13051217D01*
X9926564Y-13035733D01*
X9939733Y-13022564D01*
X9955217Y-13012217D01*
X9972423Y-13005091D01*
X9990688Y-13001457D01*
X10009312Y-13001457D01*
X10027577Y-13005091D01*
G37*
G36*
X10527577Y-13005091D02*
G01*
X10544783Y-13012217D01*
X10560267Y-13022564D01*
X10573436Y-13035733D01*
X10583783Y-13051217D01*
X10590909Y-13068423D01*
X10594543Y-13086688D01*
X10594543Y-13105312D01*
X10590909Y-13123577D01*
X10583783Y-13140783D01*
X10573436Y-13156267D01*
X10560267Y-13169436D01*
X10544783Y-13179782D01*
X10527577Y-13186909D01*
X10509312Y-13190542D01*
X10490688Y-13190542D01*
X10472423Y-13186909D01*
X10455217Y-13179782D01*
X10439733Y-13169436D01*
X10426564Y-13156267D01*
X10416218Y-13140783D01*
X10409091Y-13123577D01*
X10405458Y-13105312D01*
X10405458Y-13086688D01*
X10409091Y-13068423D01*
X10416218Y-13051217D01*
X10426564Y-13035733D01*
X10439733Y-13022564D01*
X10455217Y-13012217D01*
X10472423Y-13005091D01*
X10490688Y-13001457D01*
X10509312Y-13001457D01*
X10527577Y-13005091D01*
G37*
G36*
X14527577Y-13005091D02*
G01*
X14544783Y-13012217D01*
X14560267Y-13022564D01*
X14573436Y-13035733D01*
X14583782Y-13051217D01*
X14590909Y-13068423D01*
X14594542Y-13086688D01*
X14594542Y-13105312D01*
X14590909Y-13123577D01*
X14583782Y-13140783D01*
X14573436Y-13156267D01*
X14560267Y-13169436D01*
X14544783Y-13179782D01*
X14527577Y-13186909D01*
X14509312Y-13190542D01*
X14490688Y-13190542D01*
X14472423Y-13186909D01*
X14455217Y-13179782D01*
X14439733Y-13169436D01*
X14426564Y-13156267D01*
X14416217Y-13140783D01*
X14409091Y-13123577D01*
X14405457Y-13105312D01*
X14405457Y-13086688D01*
X14409091Y-13068423D01*
X14416217Y-13051217D01*
X14426564Y-13035733D01*
X14439733Y-13022564D01*
X14455217Y-13012217D01*
X14472423Y-13005091D01*
X14490688Y-13001457D01*
X14509312Y-13001457D01*
X14527577Y-13005091D01*
G37*
G36*
X15027577Y-13005091D02*
G01*
X15044783Y-13012217D01*
X15060267Y-13022564D01*
X15073436Y-13035733D01*
X15083782Y-13051217D01*
X15090909Y-13068423D01*
X15094542Y-13086688D01*
X15094542Y-13105312D01*
X15090909Y-13123577D01*
X15083782Y-13140783D01*
X15073436Y-13156267D01*
X15060267Y-13169436D01*
X15044783Y-13179782D01*
X15027577Y-13186909D01*
X15009312Y-13190542D01*
X14990688Y-13190542D01*
X14972423Y-13186909D01*
X14955217Y-13179782D01*
X14939733Y-13169436D01*
X14926564Y-13156267D01*
X14916217Y-13140783D01*
X14909091Y-13123577D01*
X14905457Y-13105312D01*
X14905457Y-13086688D01*
X14909091Y-13068423D01*
X14916217Y-13051217D01*
X14926564Y-13035733D01*
X14939733Y-13022564D01*
X14955217Y-13012217D01*
X14972423Y-13005091D01*
X14990688Y-13001457D01*
X15009312Y-13001457D01*
X15027577Y-13005091D01*
G37*
G36*
X19027577Y-13005091D02*
G01*
X19044783Y-13012217D01*
X19060267Y-13022564D01*
X19073436Y-13035733D01*
X19083783Y-13051217D01*
X19090909Y-13068423D01*
X19094543Y-13086688D01*
X19094543Y-13105312D01*
X19090909Y-13123577D01*
X19083783Y-13140783D01*
X19073436Y-13156267D01*
X19060267Y-13169436D01*
X19044783Y-13179782D01*
X19027577Y-13186909D01*
X19009312Y-13190542D01*
X18990688Y-13190542D01*
X18972423Y-13186909D01*
X18955217Y-13179782D01*
X18939733Y-13169436D01*
X18926564Y-13156267D01*
X18916218Y-13140783D01*
X18909091Y-13123577D01*
X18905458Y-13105312D01*
X18905458Y-13086688D01*
X18909091Y-13068423D01*
X18916218Y-13051217D01*
X18926564Y-13035733D01*
X18939733Y-13022564D01*
X18955217Y-13012217D01*
X18972423Y-13005091D01*
X18990688Y-13001457D01*
X19009312Y-13001457D01*
X19027577Y-13005091D01*
G37*
G36*
X19527577Y-13005091D02*
G01*
X19544783Y-13012217D01*
X19560267Y-13022564D01*
X19573436Y-13035733D01*
X19583783Y-13051217D01*
X19590909Y-13068423D01*
X19594543Y-13086688D01*
X19594543Y-13105312D01*
X19590909Y-13123577D01*
X19583783Y-13140783D01*
X19573436Y-13156267D01*
X19560267Y-13169436D01*
X19544783Y-13179782D01*
X19527577Y-13186909D01*
X19509312Y-13190542D01*
X19490688Y-13190542D01*
X19472423Y-13186909D01*
X19455217Y-13179782D01*
X19439733Y-13169436D01*
X19426564Y-13156267D01*
X19416218Y-13140783D01*
X19409091Y-13123577D01*
X19405458Y-13105312D01*
X19405458Y-13086688D01*
X19409091Y-13068423D01*
X19416218Y-13051217D01*
X19426564Y-13035733D01*
X19439733Y-13022564D01*
X19455217Y-13012217D01*
X19472423Y-13005091D01*
X19490688Y-13001457D01*
X19509312Y-13001457D01*
X19527577Y-13005091D01*
G37*
G36*
X23527577Y-13005091D02*
G01*
X23544783Y-13012217D01*
X23560267Y-13022564D01*
X23573436Y-13035733D01*
X23583782Y-13051217D01*
X23590909Y-13068423D01*
X23594542Y-13086688D01*
X23594542Y-13105312D01*
X23590909Y-13123577D01*
X23583782Y-13140783D01*
X23573436Y-13156267D01*
X23560267Y-13169436D01*
X23544783Y-13179782D01*
X23527577Y-13186909D01*
X23509312Y-13190542D01*
X23490688Y-13190542D01*
X23472423Y-13186909D01*
X23455217Y-13179782D01*
X23439733Y-13169436D01*
X23426564Y-13156267D01*
X23416217Y-13140783D01*
X23409091Y-13123577D01*
X23405457Y-13105312D01*
X23405457Y-13086688D01*
X23409091Y-13068423D01*
X23416217Y-13051217D01*
X23426564Y-13035733D01*
X23439733Y-13022564D01*
X23455217Y-13012217D01*
X23472423Y-13005091D01*
X23490688Y-13001457D01*
X23509312Y-13001457D01*
X23527577Y-13005091D01*
G37*
G36*
X6027577Y-12751091D02*
G01*
X6044783Y-12758217D01*
X6060267Y-12768564D01*
X6073436Y-12781733D01*
X6083782Y-12797217D01*
X6090909Y-12814423D01*
X6094542Y-12832688D01*
X6094542Y-12851312D01*
X6090909Y-12869577D01*
X6083782Y-12886783D01*
X6073436Y-12902267D01*
X6060267Y-12915436D01*
X6044783Y-12925782D01*
X6027577Y-12932909D01*
X6009312Y-12936542D01*
X5990688Y-12936542D01*
X5972423Y-12932909D01*
X5955217Y-12925782D01*
X5939733Y-12915436D01*
X5926564Y-12902267D01*
X5916217Y-12886783D01*
X5909091Y-12869577D01*
X5905457Y-12851312D01*
X5905457Y-12832688D01*
X5909091Y-12814423D01*
X5916217Y-12797217D01*
X5926564Y-12781733D01*
X5939733Y-12768564D01*
X5955217Y-12758217D01*
X5972423Y-12751091D01*
X5990688Y-12747457D01*
X6009312Y-12747457D01*
X6027577Y-12751091D01*
G37*
G36*
X10027577Y-12751091D02*
G01*
X10044783Y-12758217D01*
X10060267Y-12768564D01*
X10073436Y-12781733D01*
X10083783Y-12797217D01*
X10090909Y-12814423D01*
X10094543Y-12832688D01*
X10094543Y-12851312D01*
X10090909Y-12869577D01*
X10083783Y-12886783D01*
X10073436Y-12902267D01*
X10060267Y-12915436D01*
X10044783Y-12925782D01*
X10027577Y-12932909D01*
X10009312Y-12936542D01*
X9990688Y-12936542D01*
X9972423Y-12932909D01*
X9955217Y-12925782D01*
X9939733Y-12915436D01*
X9926564Y-12902267D01*
X9916218Y-12886783D01*
X9909091Y-12869577D01*
X9905458Y-12851312D01*
X9905458Y-12832688D01*
X9909091Y-12814423D01*
X9916218Y-12797217D01*
X9926564Y-12781733D01*
X9939733Y-12768564D01*
X9955217Y-12758217D01*
X9972423Y-12751091D01*
X9990688Y-12747457D01*
X10009312Y-12747457D01*
X10027577Y-12751091D01*
G37*
G36*
X10527577Y-12751091D02*
G01*
X10544783Y-12758217D01*
X10560267Y-12768564D01*
X10573436Y-12781733D01*
X10583783Y-12797217D01*
X10590909Y-12814423D01*
X10594543Y-12832688D01*
X10594543Y-12851312D01*
X10590909Y-12869577D01*
X10583783Y-12886783D01*
X10573436Y-12902267D01*
X10560267Y-12915436D01*
X10544783Y-12925782D01*
X10527577Y-12932909D01*
X10509312Y-12936542D01*
X10490688Y-12936542D01*
X10472423Y-12932909D01*
X10455217Y-12925782D01*
X10439733Y-12915436D01*
X10426564Y-12902267D01*
X10416218Y-12886783D01*
X10409091Y-12869577D01*
X10405458Y-12851312D01*
X10405458Y-12832688D01*
X10409091Y-12814423D01*
X10416218Y-12797217D01*
X10426564Y-12781733D01*
X10439733Y-12768564D01*
X10455217Y-12758217D01*
X10472423Y-12751091D01*
X10490688Y-12747457D01*
X10509312Y-12747457D01*
X10527577Y-12751091D01*
G37*
G36*
X14527577Y-12751091D02*
G01*
X14544783Y-12758217D01*
X14560267Y-12768564D01*
X14573436Y-12781733D01*
X14583782Y-12797217D01*
X14590909Y-12814423D01*
X14594542Y-12832688D01*
X14594542Y-12851312D01*
X14590909Y-12869577D01*
X14583782Y-12886783D01*
X14573436Y-12902267D01*
X14560267Y-12915436D01*
X14544783Y-12925782D01*
X14527577Y-12932909D01*
X14509312Y-12936542D01*
X14490688Y-12936542D01*
X14472423Y-12932909D01*
X14455217Y-12925782D01*
X14439733Y-12915436D01*
X14426564Y-12902267D01*
X14416217Y-12886783D01*
X14409091Y-12869577D01*
X14405457Y-12851312D01*
X14405457Y-12832688D01*
X14409091Y-12814423D01*
X14416217Y-12797217D01*
X14426564Y-12781733D01*
X14439733Y-12768564D01*
X14455217Y-12758217D01*
X14472423Y-12751091D01*
X14490688Y-12747457D01*
X14509312Y-12747457D01*
X14527577Y-12751091D01*
G37*
G36*
X15027577Y-12751091D02*
G01*
X15044783Y-12758217D01*
X15060267Y-12768564D01*
X15073436Y-12781733D01*
X15083782Y-12797217D01*
X15090909Y-12814423D01*
X15094542Y-12832688D01*
X15094542Y-12851312D01*
X15090909Y-12869577D01*
X15083782Y-12886783D01*
X15073436Y-12902267D01*
X15060267Y-12915436D01*
X15044783Y-12925782D01*
X15027577Y-12932909D01*
X15009312Y-12936542D01*
X14990688Y-12936542D01*
X14972423Y-12932909D01*
X14955217Y-12925782D01*
X14939733Y-12915436D01*
X14926564Y-12902267D01*
X14916217Y-12886783D01*
X14909091Y-12869577D01*
X14905457Y-12851312D01*
X14905457Y-12832688D01*
X14909091Y-12814423D01*
X14916217Y-12797217D01*
X14926564Y-12781733D01*
X14939733Y-12768564D01*
X14955217Y-12758217D01*
X14972423Y-12751091D01*
X14990688Y-12747457D01*
X15009312Y-12747457D01*
X15027577Y-12751091D01*
G37*
G36*
X19027577Y-12751091D02*
G01*
X19044783Y-12758217D01*
X19060267Y-12768564D01*
X19073436Y-12781733D01*
X19083783Y-12797217D01*
X19090909Y-12814423D01*
X19094543Y-12832688D01*
X19094543Y-12851312D01*
X19090909Y-12869577D01*
X19083783Y-12886783D01*
X19073436Y-12902267D01*
X19060267Y-12915436D01*
X19044783Y-12925782D01*
X19027577Y-12932909D01*
X19009312Y-12936542D01*
X18990688Y-12936542D01*
X18972423Y-12932909D01*
X18955217Y-12925782D01*
X18939733Y-12915436D01*
X18926564Y-12902267D01*
X18916218Y-12886783D01*
X18909091Y-12869577D01*
X18905458Y-12851312D01*
X18905458Y-12832688D01*
X18909091Y-12814423D01*
X18916218Y-12797217D01*
X18926564Y-12781733D01*
X18939733Y-12768564D01*
X18955217Y-12758217D01*
X18972423Y-12751091D01*
X18990688Y-12747457D01*
X19009312Y-12747457D01*
X19027577Y-12751091D01*
G37*
G36*
X19527577Y-12751091D02*
G01*
X19544783Y-12758217D01*
X19560267Y-12768564D01*
X19573436Y-12781733D01*
X19583783Y-12797217D01*
X19590909Y-12814423D01*
X19594543Y-12832688D01*
X19594543Y-12851312D01*
X19590909Y-12869577D01*
X19583783Y-12886783D01*
X19573436Y-12902267D01*
X19560267Y-12915436D01*
X19544783Y-12925782D01*
X19527577Y-12932909D01*
X19509312Y-12936542D01*
X19490688Y-12936542D01*
X19472423Y-12932909D01*
X19455217Y-12925782D01*
X19439733Y-12915436D01*
X19426564Y-12902267D01*
X19416218Y-12886783D01*
X19409091Y-12869577D01*
X19405458Y-12851312D01*
X19405458Y-12832688D01*
X19409091Y-12814423D01*
X19416218Y-12797217D01*
X19426564Y-12781733D01*
X19439733Y-12768564D01*
X19455217Y-12758217D01*
X19472423Y-12751091D01*
X19490688Y-12747457D01*
X19509312Y-12747457D01*
X19527577Y-12751091D01*
G37*
G36*
X23527577Y-12751091D02*
G01*
X23544783Y-12758217D01*
X23560267Y-12768564D01*
X23573436Y-12781733D01*
X23583782Y-12797217D01*
X23590909Y-12814423D01*
X23594542Y-12832688D01*
X23594542Y-12851312D01*
X23590909Y-12869577D01*
X23583782Y-12886783D01*
X23573436Y-12902267D01*
X23560267Y-12915436D01*
X23544783Y-12925782D01*
X23527577Y-12932909D01*
X23509312Y-12936542D01*
X23490688Y-12936542D01*
X23472423Y-12932909D01*
X23455217Y-12925782D01*
X23439733Y-12915436D01*
X23426564Y-12902267D01*
X23416217Y-12886783D01*
X23409091Y-12869577D01*
X23405457Y-12851312D01*
X23405457Y-12832688D01*
X23409091Y-12814423D01*
X23416217Y-12797217D01*
X23426564Y-12781733D01*
X23439733Y-12768564D01*
X23455217Y-12758217D01*
X23472423Y-12751091D01*
X23490688Y-12747457D01*
X23509312Y-12747457D01*
X23527577Y-12751091D01*
G37*
G36*
X6027577Y-12497091D02*
G01*
X6044783Y-12504217D01*
X6060267Y-12514564D01*
X6073436Y-12527733D01*
X6083782Y-12543217D01*
X6090909Y-12560423D01*
X6094542Y-12578688D01*
X6094542Y-12597312D01*
X6090909Y-12615577D01*
X6083782Y-12632783D01*
X6073436Y-12648267D01*
X6060267Y-12661436D01*
X6044783Y-12671782D01*
X6027577Y-12678909D01*
X6009312Y-12682542D01*
X5990688Y-12682542D01*
X5972423Y-12678909D01*
X5955217Y-12671782D01*
X5939733Y-12661436D01*
X5926564Y-12648267D01*
X5916217Y-12632783D01*
X5909091Y-12615577D01*
X5905457Y-12597312D01*
X5905457Y-12578688D01*
X5909091Y-12560423D01*
X5916217Y-12543217D01*
X5926564Y-12527733D01*
X5939733Y-12514564D01*
X5955217Y-12504217D01*
X5972423Y-12497091D01*
X5990688Y-12493457D01*
X6009312Y-12493457D01*
X6027577Y-12497091D01*
G37*
G36*
X10027577Y-12497091D02*
G01*
X10044783Y-12504217D01*
X10060267Y-12514564D01*
X10073436Y-12527733D01*
X10083783Y-12543217D01*
X10090909Y-12560423D01*
X10094543Y-12578688D01*
X10094543Y-12597312D01*
X10090909Y-12615577D01*
X10083783Y-12632783D01*
X10073436Y-12648267D01*
X10060267Y-12661436D01*
X10044783Y-12671782D01*
X10027577Y-12678909D01*
X10009312Y-12682542D01*
X9990688Y-12682542D01*
X9972423Y-12678909D01*
X9955217Y-12671782D01*
X9939733Y-12661436D01*
X9926564Y-12648267D01*
X9916218Y-12632783D01*
X9909091Y-12615577D01*
X9905458Y-12597312D01*
X9905458Y-12578688D01*
X9909091Y-12560423D01*
X9916218Y-12543217D01*
X9926564Y-12527733D01*
X9939733Y-12514564D01*
X9955217Y-12504217D01*
X9972423Y-12497091D01*
X9990688Y-12493457D01*
X10009312Y-12493457D01*
X10027577Y-12497091D01*
G37*
G36*
X10527577Y-12497091D02*
G01*
X10544783Y-12504217D01*
X10560267Y-12514564D01*
X10573436Y-12527733D01*
X10583783Y-12543217D01*
X10590909Y-12560423D01*
X10594543Y-12578688D01*
X10594543Y-12597312D01*
X10590909Y-12615577D01*
X10583783Y-12632783D01*
X10573436Y-12648267D01*
X10560267Y-12661436D01*
X10544783Y-12671782D01*
X10527577Y-12678909D01*
X10509312Y-12682542D01*
X10490688Y-12682542D01*
X10472423Y-12678909D01*
X10455217Y-12671782D01*
X10439733Y-12661436D01*
X10426564Y-12648267D01*
X10416218Y-12632783D01*
X10409091Y-12615577D01*
X10405458Y-12597312D01*
X10405458Y-12578688D01*
X10409091Y-12560423D01*
X10416218Y-12543217D01*
X10426564Y-12527733D01*
X10439733Y-12514564D01*
X10455217Y-12504217D01*
X10472423Y-12497091D01*
X10490688Y-12493457D01*
X10509312Y-12493457D01*
X10527577Y-12497091D01*
G37*
G36*
X14527577Y-12497091D02*
G01*
X14544783Y-12504217D01*
X14560267Y-12514564D01*
X14573436Y-12527733D01*
X14583782Y-12543217D01*
X14590909Y-12560423D01*
X14594542Y-12578688D01*
X14594542Y-12597312D01*
X14590909Y-12615577D01*
X14583782Y-12632783D01*
X14573436Y-12648267D01*
X14560267Y-12661436D01*
X14544783Y-12671782D01*
X14527577Y-12678909D01*
X14509312Y-12682542D01*
X14490688Y-12682542D01*
X14472423Y-12678909D01*
X14455217Y-12671782D01*
X14439733Y-12661436D01*
X14426564Y-12648267D01*
X14416217Y-12632783D01*
X14409091Y-12615577D01*
X14405457Y-12597312D01*
X14405457Y-12578688D01*
X14409091Y-12560423D01*
X14416217Y-12543217D01*
X14426564Y-12527733D01*
X14439733Y-12514564D01*
X14455217Y-12504217D01*
X14472423Y-12497091D01*
X14490688Y-12493457D01*
X14509312Y-12493457D01*
X14527577Y-12497091D01*
G37*
G36*
X15027577Y-12497091D02*
G01*
X15044783Y-12504217D01*
X15060267Y-12514564D01*
X15073436Y-12527733D01*
X15083782Y-12543217D01*
X15090909Y-12560423D01*
X15094542Y-12578688D01*
X15094542Y-12597312D01*
X15090909Y-12615577D01*
X15083782Y-12632783D01*
X15073436Y-12648267D01*
X15060267Y-12661436D01*
X15044783Y-12671782D01*
X15027577Y-12678909D01*
X15009312Y-12682542D01*
X14990688Y-12682542D01*
X14972423Y-12678909D01*
X14955217Y-12671782D01*
X14939733Y-12661436D01*
X14926564Y-12648267D01*
X14916217Y-12632783D01*
X14909091Y-12615577D01*
X14905457Y-12597312D01*
X14905457Y-12578688D01*
X14909091Y-12560423D01*
X14916217Y-12543217D01*
X14926564Y-12527733D01*
X14939733Y-12514564D01*
X14955217Y-12504217D01*
X14972423Y-12497091D01*
X14990688Y-12493457D01*
X15009312Y-12493457D01*
X15027577Y-12497091D01*
G37*
G36*
X19027577Y-12497091D02*
G01*
X19044783Y-12504217D01*
X19060267Y-12514564D01*
X19073436Y-12527733D01*
X19083783Y-12543217D01*
X19090909Y-12560423D01*
X19094543Y-12578688D01*
X19094543Y-12597312D01*
X19090909Y-12615577D01*
X19083783Y-12632783D01*
X19073436Y-12648267D01*
X19060267Y-12661436D01*
X19044783Y-12671782D01*
X19027577Y-12678909D01*
X19009312Y-12682542D01*
X18990688Y-12682542D01*
X18972423Y-12678909D01*
X18955217Y-12671782D01*
X18939733Y-12661436D01*
X18926564Y-12648267D01*
X18916218Y-12632783D01*
X18909091Y-12615577D01*
X18905458Y-12597312D01*
X18905458Y-12578688D01*
X18909091Y-12560423D01*
X18916218Y-12543217D01*
X18926564Y-12527733D01*
X18939733Y-12514564D01*
X18955217Y-12504217D01*
X18972423Y-12497091D01*
X18990688Y-12493457D01*
X19009312Y-12493457D01*
X19027577Y-12497091D01*
G37*
G36*
X19527577Y-12497091D02*
G01*
X19544783Y-12504217D01*
X19560267Y-12514564D01*
X19573436Y-12527733D01*
X19583783Y-12543217D01*
X19590909Y-12560423D01*
X19594543Y-12578688D01*
X19594543Y-12597312D01*
X19590909Y-12615577D01*
X19583783Y-12632783D01*
X19573436Y-12648267D01*
X19560267Y-12661436D01*
X19544783Y-12671782D01*
X19527577Y-12678909D01*
X19509312Y-12682542D01*
X19490688Y-12682542D01*
X19472423Y-12678909D01*
X19455217Y-12671782D01*
X19439733Y-12661436D01*
X19426564Y-12648267D01*
X19416218Y-12632783D01*
X19409091Y-12615577D01*
X19405458Y-12597312D01*
X19405458Y-12578688D01*
X19409091Y-12560423D01*
X19416218Y-12543217D01*
X19426564Y-12527733D01*
X19439733Y-12514564D01*
X19455217Y-12504217D01*
X19472423Y-12497091D01*
X19490688Y-12493457D01*
X19509312Y-12493457D01*
X19527577Y-12497091D01*
G37*
G36*
X23527577Y-12497091D02*
G01*
X23544783Y-12504217D01*
X23560267Y-12514564D01*
X23573436Y-12527733D01*
X23583782Y-12543217D01*
X23590909Y-12560423D01*
X23594542Y-12578688D01*
X23594542Y-12597312D01*
X23590909Y-12615577D01*
X23583782Y-12632783D01*
X23573436Y-12648267D01*
X23560267Y-12661436D01*
X23544783Y-12671782D01*
X23527577Y-12678909D01*
X23509312Y-12682542D01*
X23490688Y-12682542D01*
X23472423Y-12678909D01*
X23455217Y-12671782D01*
X23439733Y-12661436D01*
X23426564Y-12648267D01*
X23416217Y-12632783D01*
X23409091Y-12615577D01*
X23405457Y-12597312D01*
X23405457Y-12578688D01*
X23409091Y-12560423D01*
X23416217Y-12543217D01*
X23426564Y-12527733D01*
X23439733Y-12514564D01*
X23455217Y-12504217D01*
X23472423Y-12497091D01*
X23490688Y-12493457D01*
X23509312Y-12493457D01*
X23527577Y-12497091D01*
G37*
G36*
X6027577Y-12243091D02*
G01*
X6044783Y-12250217D01*
X6060267Y-12260564D01*
X6073436Y-12273733D01*
X6083782Y-12289217D01*
X6090909Y-12306423D01*
X6094542Y-12324688D01*
X6094542Y-12343312D01*
X6090909Y-12361577D01*
X6083782Y-12378783D01*
X6073436Y-12394267D01*
X6060267Y-12407436D01*
X6044783Y-12417782D01*
X6027577Y-12424909D01*
X6009312Y-12428542D01*
X5990688Y-12428542D01*
X5972423Y-12424909D01*
X5955217Y-12417782D01*
X5939733Y-12407436D01*
X5926564Y-12394267D01*
X5916217Y-12378783D01*
X5909091Y-12361577D01*
X5905457Y-12343312D01*
X5905457Y-12324688D01*
X5909091Y-12306423D01*
X5916217Y-12289217D01*
X5926564Y-12273733D01*
X5939733Y-12260564D01*
X5955217Y-12250217D01*
X5972423Y-12243091D01*
X5990688Y-12239457D01*
X6009312Y-12239457D01*
X6027577Y-12243091D01*
G37*
G36*
X10027577Y-12243091D02*
G01*
X10044783Y-12250217D01*
X10060267Y-12260564D01*
X10073436Y-12273733D01*
X10083783Y-12289217D01*
X10090909Y-12306423D01*
X10094543Y-12324688D01*
X10094543Y-12343312D01*
X10090909Y-12361577D01*
X10083783Y-12378783D01*
X10073436Y-12394267D01*
X10060267Y-12407436D01*
X10044783Y-12417782D01*
X10027577Y-12424909D01*
X10009312Y-12428542D01*
X9990688Y-12428542D01*
X9972423Y-12424909D01*
X9955217Y-12417782D01*
X9939733Y-12407436D01*
X9926564Y-12394267D01*
X9916218Y-12378783D01*
X9909091Y-12361577D01*
X9905458Y-12343312D01*
X9905458Y-12324688D01*
X9909091Y-12306423D01*
X9916218Y-12289217D01*
X9926564Y-12273733D01*
X9939733Y-12260564D01*
X9955217Y-12250217D01*
X9972423Y-12243091D01*
X9990688Y-12239457D01*
X10009312Y-12239457D01*
X10027577Y-12243091D01*
G37*
G36*
X10527577Y-12243091D02*
G01*
X10544783Y-12250217D01*
X10560267Y-12260564D01*
X10573436Y-12273733D01*
X10583783Y-12289217D01*
X10590909Y-12306423D01*
X10594543Y-12324688D01*
X10594543Y-12343312D01*
X10590909Y-12361577D01*
X10583783Y-12378783D01*
X10573436Y-12394267D01*
X10560267Y-12407436D01*
X10544783Y-12417782D01*
X10527577Y-12424909D01*
X10509312Y-12428542D01*
X10490688Y-12428542D01*
X10472423Y-12424909D01*
X10455217Y-12417782D01*
X10439733Y-12407436D01*
X10426564Y-12394267D01*
X10416218Y-12378783D01*
X10409091Y-12361577D01*
X10405458Y-12343312D01*
X10405458Y-12324688D01*
X10409091Y-12306423D01*
X10416218Y-12289217D01*
X10426564Y-12273733D01*
X10439733Y-12260564D01*
X10455217Y-12250217D01*
X10472423Y-12243091D01*
X10490688Y-12239457D01*
X10509312Y-12239457D01*
X10527577Y-12243091D01*
G37*
G36*
X14527577Y-12243091D02*
G01*
X14544783Y-12250217D01*
X14560267Y-12260564D01*
X14573436Y-12273733D01*
X14583782Y-12289217D01*
X14590909Y-12306423D01*
X14594542Y-12324688D01*
X14594542Y-12343312D01*
X14590909Y-12361577D01*
X14583782Y-12378783D01*
X14573436Y-12394267D01*
X14560267Y-12407436D01*
X14544783Y-12417782D01*
X14527577Y-12424909D01*
X14509312Y-12428542D01*
X14490688Y-12428542D01*
X14472423Y-12424909D01*
X14455217Y-12417782D01*
X14439733Y-12407436D01*
X14426564Y-12394267D01*
X14416217Y-12378783D01*
X14409091Y-12361577D01*
X14405457Y-12343312D01*
X14405457Y-12324688D01*
X14409091Y-12306423D01*
X14416217Y-12289217D01*
X14426564Y-12273733D01*
X14439733Y-12260564D01*
X14455217Y-12250217D01*
X14472423Y-12243091D01*
X14490688Y-12239457D01*
X14509312Y-12239457D01*
X14527577Y-12243091D01*
G37*
G36*
X15027577Y-12243091D02*
G01*
X15044783Y-12250217D01*
X15060267Y-12260564D01*
X15073436Y-12273733D01*
X15083782Y-12289217D01*
X15090909Y-12306423D01*
X15094542Y-12324688D01*
X15094542Y-12343312D01*
X15090909Y-12361577D01*
X15083782Y-12378783D01*
X15073436Y-12394267D01*
X15060267Y-12407436D01*
X15044783Y-12417782D01*
X15027577Y-12424909D01*
X15009312Y-12428542D01*
X14990688Y-12428542D01*
X14972423Y-12424909D01*
X14955217Y-12417782D01*
X14939733Y-12407436D01*
X14926564Y-12394267D01*
X14916217Y-12378783D01*
X14909091Y-12361577D01*
X14905457Y-12343312D01*
X14905457Y-12324688D01*
X14909091Y-12306423D01*
X14916217Y-12289217D01*
X14926564Y-12273733D01*
X14939733Y-12260564D01*
X14955217Y-12250217D01*
X14972423Y-12243091D01*
X14990688Y-12239457D01*
X15009312Y-12239457D01*
X15027577Y-12243091D01*
G37*
G36*
X19027577Y-12243091D02*
G01*
X19044783Y-12250217D01*
X19060267Y-12260564D01*
X19073436Y-12273733D01*
X19083783Y-12289217D01*
X19090909Y-12306423D01*
X19094543Y-12324688D01*
X19094543Y-12343312D01*
X19090909Y-12361577D01*
X19083783Y-12378783D01*
X19073436Y-12394267D01*
X19060267Y-12407436D01*
X19044783Y-12417782D01*
X19027577Y-12424909D01*
X19009312Y-12428542D01*
X18990688Y-12428542D01*
X18972423Y-12424909D01*
X18955217Y-12417782D01*
X18939733Y-12407436D01*
X18926564Y-12394267D01*
X18916218Y-12378783D01*
X18909091Y-12361577D01*
X18905458Y-12343312D01*
X18905458Y-12324688D01*
X18909091Y-12306423D01*
X18916218Y-12289217D01*
X18926564Y-12273733D01*
X18939733Y-12260564D01*
X18955217Y-12250217D01*
X18972423Y-12243091D01*
X18990688Y-12239457D01*
X19009312Y-12239457D01*
X19027577Y-12243091D01*
G37*
G36*
X19527577Y-12243091D02*
G01*
X19544783Y-12250217D01*
X19560267Y-12260564D01*
X19573436Y-12273733D01*
X19583783Y-12289217D01*
X19590909Y-12306423D01*
X19594543Y-12324688D01*
X19594543Y-12343312D01*
X19590909Y-12361577D01*
X19583783Y-12378783D01*
X19573436Y-12394267D01*
X19560267Y-12407436D01*
X19544783Y-12417782D01*
X19527577Y-12424909D01*
X19509312Y-12428542D01*
X19490688Y-12428542D01*
X19472423Y-12424909D01*
X19455217Y-12417782D01*
X19439733Y-12407436D01*
X19426564Y-12394267D01*
X19416218Y-12378783D01*
X19409091Y-12361577D01*
X19405458Y-12343312D01*
X19405458Y-12324688D01*
X19409091Y-12306423D01*
X19416218Y-12289217D01*
X19426564Y-12273733D01*
X19439733Y-12260564D01*
X19455217Y-12250217D01*
X19472423Y-12243091D01*
X19490688Y-12239457D01*
X19509312Y-12239457D01*
X19527577Y-12243091D01*
G37*
G36*
X23527577Y-12243091D02*
G01*
X23544783Y-12250217D01*
X23560267Y-12260564D01*
X23573436Y-12273733D01*
X23583782Y-12289217D01*
X23590909Y-12306423D01*
X23594542Y-12324688D01*
X23594542Y-12343312D01*
X23590909Y-12361577D01*
X23583782Y-12378783D01*
X23573436Y-12394267D01*
X23560267Y-12407436D01*
X23544783Y-12417782D01*
X23527577Y-12424909D01*
X23509312Y-12428542D01*
X23490688Y-12428542D01*
X23472423Y-12424909D01*
X23455217Y-12417782D01*
X23439733Y-12407436D01*
X23426564Y-12394267D01*
X23416217Y-12378783D01*
X23409091Y-12361577D01*
X23405457Y-12343312D01*
X23405457Y-12324688D01*
X23409091Y-12306423D01*
X23416217Y-12289217D01*
X23426564Y-12273733D01*
X23439733Y-12260564D01*
X23455217Y-12250217D01*
X23472423Y-12243091D01*
X23490688Y-12239457D01*
X23509312Y-12239457D01*
X23527577Y-12243091D01*
G37*
G36*
X6027577Y-11989091D02*
G01*
X6044783Y-11996217D01*
X6060267Y-12006564D01*
X6073436Y-12019733D01*
X6083782Y-12035217D01*
X6090909Y-12052423D01*
X6094542Y-12070688D01*
X6094542Y-12089312D01*
X6090909Y-12107577D01*
X6083782Y-12124783D01*
X6073436Y-12140267D01*
X6060267Y-12153436D01*
X6044783Y-12163782D01*
X6027577Y-12170909D01*
X6009312Y-12174542D01*
X5990688Y-12174542D01*
X5972423Y-12170909D01*
X5955217Y-12163782D01*
X5939733Y-12153436D01*
X5926564Y-12140267D01*
X5916217Y-12124783D01*
X5909091Y-12107577D01*
X5905457Y-12089312D01*
X5905457Y-12070688D01*
X5909091Y-12052423D01*
X5916217Y-12035217D01*
X5926564Y-12019733D01*
X5939733Y-12006564D01*
X5955217Y-11996217D01*
X5972423Y-11989091D01*
X5990688Y-11985457D01*
X6009312Y-11985457D01*
X6027577Y-11989091D01*
G37*
G36*
X10027577Y-11989091D02*
G01*
X10044783Y-11996217D01*
X10060267Y-12006564D01*
X10073436Y-12019733D01*
X10083783Y-12035217D01*
X10090909Y-12052423D01*
X10094543Y-12070688D01*
X10094543Y-12089312D01*
X10090909Y-12107577D01*
X10083783Y-12124783D01*
X10073436Y-12140267D01*
X10060267Y-12153436D01*
X10044783Y-12163782D01*
X10027577Y-12170909D01*
X10009312Y-12174542D01*
X9990688Y-12174542D01*
X9972423Y-12170909D01*
X9955217Y-12163782D01*
X9939733Y-12153436D01*
X9926564Y-12140267D01*
X9916218Y-12124783D01*
X9909091Y-12107577D01*
X9905458Y-12089312D01*
X9905458Y-12070688D01*
X9909091Y-12052423D01*
X9916218Y-12035217D01*
X9926564Y-12019733D01*
X9939733Y-12006564D01*
X9955217Y-11996217D01*
X9972423Y-11989091D01*
X9990688Y-11985457D01*
X10009312Y-11985457D01*
X10027577Y-11989091D01*
G37*
G36*
X10527577Y-11989091D02*
G01*
X10544783Y-11996217D01*
X10560267Y-12006564D01*
X10573436Y-12019733D01*
X10583783Y-12035217D01*
X10590909Y-12052423D01*
X10594543Y-12070688D01*
X10594543Y-12089312D01*
X10590909Y-12107577D01*
X10583783Y-12124783D01*
X10573436Y-12140267D01*
X10560267Y-12153436D01*
X10544783Y-12163782D01*
X10527577Y-12170909D01*
X10509312Y-12174542D01*
X10490688Y-12174542D01*
X10472423Y-12170909D01*
X10455217Y-12163782D01*
X10439733Y-12153436D01*
X10426564Y-12140267D01*
X10416218Y-12124783D01*
X10409091Y-12107577D01*
X10405458Y-12089312D01*
X10405458Y-12070688D01*
X10409091Y-12052423D01*
X10416218Y-12035217D01*
X10426564Y-12019733D01*
X10439733Y-12006564D01*
X10455217Y-11996217D01*
X10472423Y-11989091D01*
X10490688Y-11985457D01*
X10509312Y-11985457D01*
X10527577Y-11989091D01*
G37*
G36*
X14527577Y-11989091D02*
G01*
X14544783Y-11996217D01*
X14560267Y-12006564D01*
X14573436Y-12019733D01*
X14583782Y-12035217D01*
X14590909Y-12052423D01*
X14594542Y-12070688D01*
X14594542Y-12089312D01*
X14590909Y-12107577D01*
X14583782Y-12124783D01*
X14573436Y-12140267D01*
X14560267Y-12153436D01*
X14544783Y-12163782D01*
X14527577Y-12170909D01*
X14509312Y-12174542D01*
X14490688Y-12174542D01*
X14472423Y-12170909D01*
X14455217Y-12163782D01*
X14439733Y-12153436D01*
X14426564Y-12140267D01*
X14416217Y-12124783D01*
X14409091Y-12107577D01*
X14405457Y-12089312D01*
X14405457Y-12070688D01*
X14409091Y-12052423D01*
X14416217Y-12035217D01*
X14426564Y-12019733D01*
X14439733Y-12006564D01*
X14455217Y-11996217D01*
X14472423Y-11989091D01*
X14490688Y-11985457D01*
X14509312Y-11985457D01*
X14527577Y-11989091D01*
G37*
G36*
X15027577Y-11989091D02*
G01*
X15044783Y-11996217D01*
X15060267Y-12006564D01*
X15073436Y-12019733D01*
X15083782Y-12035217D01*
X15090909Y-12052423D01*
X15094542Y-12070688D01*
X15094542Y-12089312D01*
X15090909Y-12107577D01*
X15083782Y-12124783D01*
X15073436Y-12140267D01*
X15060267Y-12153436D01*
X15044783Y-12163782D01*
X15027577Y-12170909D01*
X15009312Y-12174542D01*
X14990688Y-12174542D01*
X14972423Y-12170909D01*
X14955217Y-12163782D01*
X14939733Y-12153436D01*
X14926564Y-12140267D01*
X14916217Y-12124783D01*
X14909091Y-12107577D01*
X14905457Y-12089312D01*
X14905457Y-12070688D01*
X14909091Y-12052423D01*
X14916217Y-12035217D01*
X14926564Y-12019733D01*
X14939733Y-12006564D01*
X14955217Y-11996217D01*
X14972423Y-11989091D01*
X14990688Y-11985457D01*
X15009312Y-11985457D01*
X15027577Y-11989091D01*
G37*
G36*
X19027577Y-11989091D02*
G01*
X19044783Y-11996217D01*
X19060267Y-12006564D01*
X19073436Y-12019733D01*
X19083783Y-12035217D01*
X19090909Y-12052423D01*
X19094543Y-12070688D01*
X19094543Y-12089312D01*
X19090909Y-12107577D01*
X19083783Y-12124783D01*
X19073436Y-12140267D01*
X19060267Y-12153436D01*
X19044783Y-12163782D01*
X19027577Y-12170909D01*
X19009312Y-12174542D01*
X18990688Y-12174542D01*
X18972423Y-12170909D01*
X18955217Y-12163782D01*
X18939733Y-12153436D01*
X18926564Y-12140267D01*
X18916218Y-12124783D01*
X18909091Y-12107577D01*
X18905458Y-12089312D01*
X18905458Y-12070688D01*
X18909091Y-12052423D01*
X18916218Y-12035217D01*
X18926564Y-12019733D01*
X18939733Y-12006564D01*
X18955217Y-11996217D01*
X18972423Y-11989091D01*
X18990688Y-11985457D01*
X19009312Y-11985457D01*
X19027577Y-11989091D01*
G37*
G36*
X19527577Y-11989091D02*
G01*
X19544783Y-11996217D01*
X19560267Y-12006564D01*
X19573436Y-12019733D01*
X19583783Y-12035217D01*
X19590909Y-12052423D01*
X19594543Y-12070688D01*
X19594543Y-12089312D01*
X19590909Y-12107577D01*
X19583783Y-12124783D01*
X19573436Y-12140267D01*
X19560267Y-12153436D01*
X19544783Y-12163782D01*
X19527577Y-12170909D01*
X19509312Y-12174542D01*
X19490688Y-12174542D01*
X19472423Y-12170909D01*
X19455217Y-12163782D01*
X19439733Y-12153436D01*
X19426564Y-12140267D01*
X19416218Y-12124783D01*
X19409091Y-12107577D01*
X19405458Y-12089312D01*
X19405458Y-12070688D01*
X19409091Y-12052423D01*
X19416218Y-12035217D01*
X19426564Y-12019733D01*
X19439733Y-12006564D01*
X19455217Y-11996217D01*
X19472423Y-11989091D01*
X19490688Y-11985457D01*
X19509312Y-11985457D01*
X19527577Y-11989091D01*
G37*
G36*
X23527577Y-11989091D02*
G01*
X23544783Y-11996217D01*
X23560267Y-12006564D01*
X23573436Y-12019733D01*
X23583782Y-12035217D01*
X23590909Y-12052423D01*
X23594542Y-12070688D01*
X23594542Y-12089312D01*
X23590909Y-12107577D01*
X23583782Y-12124783D01*
X23573436Y-12140267D01*
X23560267Y-12153436D01*
X23544783Y-12163782D01*
X23527577Y-12170909D01*
X23509312Y-12174542D01*
X23490688Y-12174542D01*
X23472423Y-12170909D01*
X23455217Y-12163782D01*
X23439733Y-12153436D01*
X23426564Y-12140267D01*
X23416217Y-12124783D01*
X23409091Y-12107577D01*
X23405457Y-12089312D01*
X23405457Y-12070688D01*
X23409091Y-12052423D01*
X23416217Y-12035217D01*
X23426564Y-12019733D01*
X23439733Y-12006564D01*
X23455217Y-11996217D01*
X23472423Y-11989091D01*
X23490688Y-11985457D01*
X23509312Y-11985457D01*
X23527577Y-11989091D01*
G37*
G36*
X6027577Y-11735091D02*
G01*
X6044783Y-11742217D01*
X6060267Y-11752564D01*
X6073436Y-11765733D01*
X6083782Y-11781217D01*
X6090909Y-11798423D01*
X6094542Y-11816688D01*
X6094542Y-11835312D01*
X6090909Y-11853577D01*
X6083782Y-11870783D01*
X6073436Y-11886267D01*
X6060267Y-11899436D01*
X6044783Y-11909782D01*
X6027577Y-11916909D01*
X6009312Y-11920542D01*
X5990688Y-11920542D01*
X5972423Y-11916909D01*
X5955217Y-11909782D01*
X5939733Y-11899436D01*
X5926564Y-11886267D01*
X5916217Y-11870783D01*
X5909091Y-11853577D01*
X5905457Y-11835312D01*
X5905457Y-11816688D01*
X5909091Y-11798423D01*
X5916217Y-11781217D01*
X5926564Y-11765733D01*
X5939733Y-11752564D01*
X5955217Y-11742217D01*
X5972423Y-11735091D01*
X5990688Y-11731457D01*
X6009312Y-11731457D01*
X6027577Y-11735091D01*
G37*
G36*
X10027577Y-11735091D02*
G01*
X10044783Y-11742217D01*
X10060267Y-11752564D01*
X10073436Y-11765733D01*
X10083783Y-11781217D01*
X10090909Y-11798423D01*
X10094543Y-11816688D01*
X10094543Y-11835312D01*
X10090909Y-11853577D01*
X10083783Y-11870783D01*
X10073436Y-11886267D01*
X10060267Y-11899436D01*
X10044783Y-11909782D01*
X10027577Y-11916909D01*
X10009312Y-11920542D01*
X9990688Y-11920542D01*
X9972423Y-11916909D01*
X9955217Y-11909782D01*
X9939733Y-11899436D01*
X9926564Y-11886267D01*
X9916218Y-11870783D01*
X9909091Y-11853577D01*
X9905458Y-11835312D01*
X9905458Y-11816688D01*
X9909091Y-11798423D01*
X9916218Y-11781217D01*
X9926564Y-11765733D01*
X9939733Y-11752564D01*
X9955217Y-11742217D01*
X9972423Y-11735091D01*
X9990688Y-11731457D01*
X10009312Y-11731457D01*
X10027577Y-11735091D01*
G37*
G36*
X10527577Y-11735091D02*
G01*
X10544783Y-11742217D01*
X10560267Y-11752564D01*
X10573436Y-11765733D01*
X10583783Y-11781217D01*
X10590909Y-11798423D01*
X10594543Y-11816688D01*
X10594543Y-11835312D01*
X10590909Y-11853577D01*
X10583783Y-11870783D01*
X10573436Y-11886267D01*
X10560267Y-11899436D01*
X10544783Y-11909782D01*
X10527577Y-11916909D01*
X10509312Y-11920542D01*
X10490688Y-11920542D01*
X10472423Y-11916909D01*
X10455217Y-11909782D01*
X10439733Y-11899436D01*
X10426564Y-11886267D01*
X10416218Y-11870783D01*
X10409091Y-11853577D01*
X10405458Y-11835312D01*
X10405458Y-11816688D01*
X10409091Y-11798423D01*
X10416218Y-11781217D01*
X10426564Y-11765733D01*
X10439733Y-11752564D01*
X10455217Y-11742217D01*
X10472423Y-11735091D01*
X10490688Y-11731457D01*
X10509312Y-11731457D01*
X10527577Y-11735091D01*
G37*
G36*
X14527577Y-11735091D02*
G01*
X14544783Y-11742217D01*
X14560267Y-11752564D01*
X14573436Y-11765733D01*
X14583782Y-11781217D01*
X14590909Y-11798423D01*
X14594542Y-11816688D01*
X14594542Y-11835312D01*
X14590909Y-11853577D01*
X14583782Y-11870783D01*
X14573436Y-11886267D01*
X14560267Y-11899436D01*
X14544783Y-11909782D01*
X14527577Y-11916909D01*
X14509312Y-11920542D01*
X14490688Y-11920542D01*
X14472423Y-11916909D01*
X14455217Y-11909782D01*
X14439733Y-11899436D01*
X14426564Y-11886267D01*
X14416217Y-11870783D01*
X14409091Y-11853577D01*
X14405457Y-11835312D01*
X14405457Y-11816688D01*
X14409091Y-11798423D01*
X14416217Y-11781217D01*
X14426564Y-11765733D01*
X14439733Y-11752564D01*
X14455217Y-11742217D01*
X14472423Y-11735091D01*
X14490688Y-11731457D01*
X14509312Y-11731457D01*
X14527577Y-11735091D01*
G37*
G36*
X15027577Y-11735091D02*
G01*
X15044783Y-11742217D01*
X15060267Y-11752564D01*
X15073436Y-11765733D01*
X15083782Y-11781217D01*
X15090909Y-11798423D01*
X15094542Y-11816688D01*
X15094542Y-11835312D01*
X15090909Y-11853577D01*
X15083782Y-11870783D01*
X15073436Y-11886267D01*
X15060267Y-11899436D01*
X15044783Y-11909782D01*
X15027577Y-11916909D01*
X15009312Y-11920542D01*
X14990688Y-11920542D01*
X14972423Y-11916909D01*
X14955217Y-11909782D01*
X14939733Y-11899436D01*
X14926564Y-11886267D01*
X14916217Y-11870783D01*
X14909091Y-11853577D01*
X14905457Y-11835312D01*
X14905457Y-11816688D01*
X14909091Y-11798423D01*
X14916217Y-11781217D01*
X14926564Y-11765733D01*
X14939733Y-11752564D01*
X14955217Y-11742217D01*
X14972423Y-11735091D01*
X14990688Y-11731457D01*
X15009312Y-11731457D01*
X15027577Y-11735091D01*
G37*
G36*
X19027577Y-11735091D02*
G01*
X19044783Y-11742217D01*
X19060267Y-11752564D01*
X19073436Y-11765733D01*
X19083783Y-11781217D01*
X19090909Y-11798423D01*
X19094543Y-11816688D01*
X19094543Y-11835312D01*
X19090909Y-11853577D01*
X19083783Y-11870783D01*
X19073436Y-11886267D01*
X19060267Y-11899436D01*
X19044783Y-11909782D01*
X19027577Y-11916909D01*
X19009312Y-11920542D01*
X18990688Y-11920542D01*
X18972423Y-11916909D01*
X18955217Y-11909782D01*
X18939733Y-11899436D01*
X18926564Y-11886267D01*
X18916218Y-11870783D01*
X18909091Y-11853577D01*
X18905458Y-11835312D01*
X18905458Y-11816688D01*
X18909091Y-11798423D01*
X18916218Y-11781217D01*
X18926564Y-11765733D01*
X18939733Y-11752564D01*
X18955217Y-11742217D01*
X18972423Y-11735091D01*
X18990688Y-11731457D01*
X19009312Y-11731457D01*
X19027577Y-11735091D01*
G37*
G36*
X19527577Y-11735091D02*
G01*
X19544783Y-11742217D01*
X19560267Y-11752564D01*
X19573436Y-11765733D01*
X19583783Y-11781217D01*
X19590909Y-11798423D01*
X19594543Y-11816688D01*
X19594543Y-11835312D01*
X19590909Y-11853577D01*
X19583783Y-11870783D01*
X19573436Y-11886267D01*
X19560267Y-11899436D01*
X19544783Y-11909782D01*
X19527577Y-11916909D01*
X19509312Y-11920542D01*
X19490688Y-11920542D01*
X19472423Y-11916909D01*
X19455217Y-11909782D01*
X19439733Y-11899436D01*
X19426564Y-11886267D01*
X19416218Y-11870783D01*
X19409091Y-11853577D01*
X19405458Y-11835312D01*
X19405458Y-11816688D01*
X19409091Y-11798423D01*
X19416218Y-11781217D01*
X19426564Y-11765733D01*
X19439733Y-11752564D01*
X19455217Y-11742217D01*
X19472423Y-11735091D01*
X19490688Y-11731457D01*
X19509312Y-11731457D01*
X19527577Y-11735091D01*
G37*
G36*
X23527577Y-11735091D02*
G01*
X23544783Y-11742217D01*
X23560267Y-11752564D01*
X23573436Y-11765733D01*
X23583782Y-11781217D01*
X23590909Y-11798423D01*
X23594542Y-11816688D01*
X23594542Y-11835312D01*
X23590909Y-11853577D01*
X23583782Y-11870783D01*
X23573436Y-11886267D01*
X23560267Y-11899436D01*
X23544783Y-11909782D01*
X23527577Y-11916909D01*
X23509312Y-11920542D01*
X23490688Y-11920542D01*
X23472423Y-11916909D01*
X23455217Y-11909782D01*
X23439733Y-11899436D01*
X23426564Y-11886267D01*
X23416217Y-11870783D01*
X23409091Y-11853577D01*
X23405457Y-11835312D01*
X23405457Y-11816688D01*
X23409091Y-11798423D01*
X23416217Y-11781217D01*
X23426564Y-11765733D01*
X23439733Y-11752564D01*
X23455217Y-11742217D01*
X23472423Y-11735091D01*
X23490688Y-11731457D01*
X23509312Y-11731457D01*
X23527577Y-11735091D01*
G37*
G36*
X6027577Y-11481091D02*
G01*
X6044783Y-11488217D01*
X6060267Y-11498564D01*
X6073436Y-11511733D01*
X6083782Y-11527217D01*
X6090909Y-11544423D01*
X6094542Y-11562688D01*
X6094542Y-11581312D01*
X6090909Y-11599577D01*
X6083782Y-11616783D01*
X6073436Y-11632267D01*
X6060267Y-11645436D01*
X6044783Y-11655782D01*
X6027577Y-11662909D01*
X6009312Y-11666542D01*
X5990688Y-11666542D01*
X5972423Y-11662909D01*
X5955217Y-11655782D01*
X5939733Y-11645436D01*
X5926564Y-11632267D01*
X5916217Y-11616783D01*
X5909091Y-11599577D01*
X5905457Y-11581312D01*
X5905457Y-11562688D01*
X5909091Y-11544423D01*
X5916217Y-11527217D01*
X5926564Y-11511733D01*
X5939733Y-11498564D01*
X5955217Y-11488217D01*
X5972423Y-11481091D01*
X5990688Y-11477457D01*
X6009312Y-11477457D01*
X6027577Y-11481091D01*
G37*
G36*
X10027577Y-11481091D02*
G01*
X10044783Y-11488217D01*
X10060267Y-11498564D01*
X10073436Y-11511733D01*
X10083783Y-11527217D01*
X10090909Y-11544423D01*
X10094543Y-11562688D01*
X10094543Y-11581312D01*
X10090909Y-11599577D01*
X10083783Y-11616783D01*
X10073436Y-11632267D01*
X10060267Y-11645436D01*
X10044783Y-11655782D01*
X10027577Y-11662909D01*
X10009312Y-11666542D01*
X9990688Y-11666542D01*
X9972423Y-11662909D01*
X9955217Y-11655782D01*
X9939733Y-11645436D01*
X9926564Y-11632267D01*
X9916218Y-11616783D01*
X9909091Y-11599577D01*
X9905458Y-11581312D01*
X9905458Y-11562688D01*
X9909091Y-11544423D01*
X9916218Y-11527217D01*
X9926564Y-11511733D01*
X9939733Y-11498564D01*
X9955217Y-11488217D01*
X9972423Y-11481091D01*
X9990688Y-11477457D01*
X10009312Y-11477457D01*
X10027577Y-11481091D01*
G37*
G36*
X10527577Y-11481091D02*
G01*
X10544783Y-11488217D01*
X10560267Y-11498564D01*
X10573436Y-11511733D01*
X10583783Y-11527217D01*
X10590909Y-11544423D01*
X10594543Y-11562688D01*
X10594543Y-11581312D01*
X10590909Y-11599577D01*
X10583783Y-11616783D01*
X10573436Y-11632267D01*
X10560267Y-11645436D01*
X10544783Y-11655782D01*
X10527577Y-11662909D01*
X10509312Y-11666542D01*
X10490688Y-11666542D01*
X10472423Y-11662909D01*
X10455217Y-11655782D01*
X10439733Y-11645436D01*
X10426564Y-11632267D01*
X10416218Y-11616783D01*
X10409091Y-11599577D01*
X10405458Y-11581312D01*
X10405458Y-11562688D01*
X10409091Y-11544423D01*
X10416218Y-11527217D01*
X10426564Y-11511733D01*
X10439733Y-11498564D01*
X10455217Y-11488217D01*
X10472423Y-11481091D01*
X10490688Y-11477457D01*
X10509312Y-11477457D01*
X10527577Y-11481091D01*
G37*
G36*
X14527577Y-11481091D02*
G01*
X14544783Y-11488217D01*
X14560267Y-11498564D01*
X14573436Y-11511733D01*
X14583782Y-11527217D01*
X14590909Y-11544423D01*
X14594542Y-11562688D01*
X14594542Y-11581312D01*
X14590909Y-11599577D01*
X14583782Y-11616783D01*
X14573436Y-11632267D01*
X14560267Y-11645436D01*
X14544783Y-11655782D01*
X14527577Y-11662909D01*
X14509312Y-11666542D01*
X14490688Y-11666542D01*
X14472423Y-11662909D01*
X14455217Y-11655782D01*
X14439733Y-11645436D01*
X14426564Y-11632267D01*
X14416217Y-11616783D01*
X14409091Y-11599577D01*
X14405457Y-11581312D01*
X14405457Y-11562688D01*
X14409091Y-11544423D01*
X14416217Y-11527217D01*
X14426564Y-11511733D01*
X14439733Y-11498564D01*
X14455217Y-11488217D01*
X14472423Y-11481091D01*
X14490688Y-11477457D01*
X14509312Y-11477457D01*
X14527577Y-11481091D01*
G37*
G36*
X15027577Y-11481091D02*
G01*
X15044783Y-11488217D01*
X15060267Y-11498564D01*
X15073436Y-11511733D01*
X15083782Y-11527217D01*
X15090909Y-11544423D01*
X15094542Y-11562688D01*
X15094542Y-11581312D01*
X15090909Y-11599577D01*
X15083782Y-11616783D01*
X15073436Y-11632267D01*
X15060267Y-11645436D01*
X15044783Y-11655782D01*
X15027577Y-11662909D01*
X15009312Y-11666542D01*
X14990688Y-11666542D01*
X14972423Y-11662909D01*
X14955217Y-11655782D01*
X14939733Y-11645436D01*
X14926564Y-11632267D01*
X14916217Y-11616783D01*
X14909091Y-11599577D01*
X14905457Y-11581312D01*
X14905457Y-11562688D01*
X14909091Y-11544423D01*
X14916217Y-11527217D01*
X14926564Y-11511733D01*
X14939733Y-11498564D01*
X14955217Y-11488217D01*
X14972423Y-11481091D01*
X14990688Y-11477457D01*
X15009312Y-11477457D01*
X15027577Y-11481091D01*
G37*
G36*
X19027577Y-11481091D02*
G01*
X19044783Y-11488217D01*
X19060267Y-11498564D01*
X19073436Y-11511733D01*
X19083783Y-11527217D01*
X19090909Y-11544423D01*
X19094543Y-11562688D01*
X19094543Y-11581312D01*
X19090909Y-11599577D01*
X19083783Y-11616783D01*
X19073436Y-11632267D01*
X19060267Y-11645436D01*
X19044783Y-11655782D01*
X19027577Y-11662909D01*
X19009312Y-11666542D01*
X18990688Y-11666542D01*
X18972423Y-11662909D01*
X18955217Y-11655782D01*
X18939733Y-11645436D01*
X18926564Y-11632267D01*
X18916218Y-11616783D01*
X18909091Y-11599577D01*
X18905458Y-11581312D01*
X18905458Y-11562688D01*
X18909091Y-11544423D01*
X18916218Y-11527217D01*
X18926564Y-11511733D01*
X18939733Y-11498564D01*
X18955217Y-11488217D01*
X18972423Y-11481091D01*
X18990688Y-11477457D01*
X19009312Y-11477457D01*
X19027577Y-11481091D01*
G37*
G36*
X19527577Y-11481091D02*
G01*
X19544783Y-11488217D01*
X19560267Y-11498564D01*
X19573436Y-11511733D01*
X19583783Y-11527217D01*
X19590909Y-11544423D01*
X19594543Y-11562688D01*
X19594543Y-11581312D01*
X19590909Y-11599577D01*
X19583783Y-11616783D01*
X19573436Y-11632267D01*
X19560267Y-11645436D01*
X19544783Y-11655782D01*
X19527577Y-11662909D01*
X19509312Y-11666542D01*
X19490688Y-11666542D01*
X19472423Y-11662909D01*
X19455217Y-11655782D01*
X19439733Y-11645436D01*
X19426564Y-11632267D01*
X19416218Y-11616783D01*
X19409091Y-11599577D01*
X19405458Y-11581312D01*
X19405458Y-11562688D01*
X19409091Y-11544423D01*
X19416218Y-11527217D01*
X19426564Y-11511733D01*
X19439733Y-11498564D01*
X19455217Y-11488217D01*
X19472423Y-11481091D01*
X19490688Y-11477457D01*
X19509312Y-11477457D01*
X19527577Y-11481091D01*
G37*
G36*
X23527577Y-11481091D02*
G01*
X23544783Y-11488217D01*
X23560267Y-11498564D01*
X23573436Y-11511733D01*
X23583782Y-11527217D01*
X23590909Y-11544423D01*
X23594542Y-11562688D01*
X23594542Y-11581312D01*
X23590909Y-11599577D01*
X23583782Y-11616783D01*
X23573436Y-11632267D01*
X23560267Y-11645436D01*
X23544783Y-11655782D01*
X23527577Y-11662909D01*
X23509312Y-11666542D01*
X23490688Y-11666542D01*
X23472423Y-11662909D01*
X23455217Y-11655782D01*
X23439733Y-11645436D01*
X23426564Y-11632267D01*
X23416217Y-11616783D01*
X23409091Y-11599577D01*
X23405457Y-11581312D01*
X23405457Y-11562688D01*
X23409091Y-11544423D01*
X23416217Y-11527217D01*
X23426564Y-11511733D01*
X23439733Y-11498564D01*
X23455217Y-11488217D01*
X23472423Y-11481091D01*
X23490688Y-11477457D01*
X23509312Y-11477457D01*
X23527577Y-11481091D01*
G37*
G36*
X6027577Y-11227091D02*
G01*
X6044783Y-11234217D01*
X6060267Y-11244564D01*
X6073436Y-11257733D01*
X6083782Y-11273217D01*
X6090909Y-11290423D01*
X6094542Y-11308688D01*
X6094542Y-11327312D01*
X6090909Y-11345577D01*
X6083782Y-11362783D01*
X6073436Y-11378267D01*
X6060267Y-11391436D01*
X6044783Y-11401782D01*
X6027577Y-11408909D01*
X6009312Y-11412542D01*
X5990688Y-11412542D01*
X5972423Y-11408909D01*
X5955217Y-11401782D01*
X5939733Y-11391436D01*
X5926564Y-11378267D01*
X5916217Y-11362783D01*
X5909091Y-11345577D01*
X5905457Y-11327312D01*
X5905457Y-11308688D01*
X5909091Y-11290423D01*
X5916217Y-11273217D01*
X5926564Y-11257733D01*
X5939733Y-11244564D01*
X5955217Y-11234217D01*
X5972423Y-11227091D01*
X5990688Y-11223457D01*
X6009312Y-11223457D01*
X6027577Y-11227091D01*
G37*
G36*
X10027577Y-11227091D02*
G01*
X10044783Y-11234217D01*
X10060267Y-11244564D01*
X10073436Y-11257733D01*
X10083783Y-11273217D01*
X10090909Y-11290423D01*
X10094543Y-11308688D01*
X10094543Y-11327312D01*
X10090909Y-11345577D01*
X10083783Y-11362783D01*
X10073436Y-11378267D01*
X10060267Y-11391436D01*
X10044783Y-11401782D01*
X10027577Y-11408909D01*
X10009312Y-11412542D01*
X9990688Y-11412542D01*
X9972423Y-11408909D01*
X9955217Y-11401782D01*
X9939733Y-11391436D01*
X9926564Y-11378267D01*
X9916218Y-11362783D01*
X9909091Y-11345577D01*
X9905458Y-11327312D01*
X9905458Y-11308688D01*
X9909091Y-11290423D01*
X9916218Y-11273217D01*
X9926564Y-11257733D01*
X9939733Y-11244564D01*
X9955217Y-11234217D01*
X9972423Y-11227091D01*
X9990688Y-11223457D01*
X10009312Y-11223457D01*
X10027577Y-11227091D01*
G37*
G36*
X10527577Y-11227091D02*
G01*
X10544783Y-11234217D01*
X10560267Y-11244564D01*
X10573436Y-11257733D01*
X10583783Y-11273217D01*
X10590909Y-11290423D01*
X10594543Y-11308688D01*
X10594543Y-11327312D01*
X10590909Y-11345577D01*
X10583783Y-11362783D01*
X10573436Y-11378267D01*
X10560267Y-11391436D01*
X10544783Y-11401782D01*
X10527577Y-11408909D01*
X10509312Y-11412542D01*
X10490688Y-11412542D01*
X10472423Y-11408909D01*
X10455217Y-11401782D01*
X10439733Y-11391436D01*
X10426564Y-11378267D01*
X10416218Y-11362783D01*
X10409091Y-11345577D01*
X10405458Y-11327312D01*
X10405458Y-11308688D01*
X10409091Y-11290423D01*
X10416218Y-11273217D01*
X10426564Y-11257733D01*
X10439733Y-11244564D01*
X10455217Y-11234217D01*
X10472423Y-11227091D01*
X10490688Y-11223457D01*
X10509312Y-11223457D01*
X10527577Y-11227091D01*
G37*
G36*
X14527577Y-11227091D02*
G01*
X14544783Y-11234217D01*
X14560267Y-11244564D01*
X14573436Y-11257733D01*
X14583782Y-11273217D01*
X14590909Y-11290423D01*
X14594542Y-11308688D01*
X14594542Y-11327312D01*
X14590909Y-11345577D01*
X14583782Y-11362783D01*
X14573436Y-11378267D01*
X14560267Y-11391436D01*
X14544783Y-11401782D01*
X14527577Y-11408909D01*
X14509312Y-11412542D01*
X14490688Y-11412542D01*
X14472423Y-11408909D01*
X14455217Y-11401782D01*
X14439733Y-11391436D01*
X14426564Y-11378267D01*
X14416217Y-11362783D01*
X14409091Y-11345577D01*
X14405457Y-11327312D01*
X14405457Y-11308688D01*
X14409091Y-11290423D01*
X14416217Y-11273217D01*
X14426564Y-11257733D01*
X14439733Y-11244564D01*
X14455217Y-11234217D01*
X14472423Y-11227091D01*
X14490688Y-11223457D01*
X14509312Y-11223457D01*
X14527577Y-11227091D01*
G37*
G36*
X15027577Y-11227091D02*
G01*
X15044783Y-11234217D01*
X15060267Y-11244564D01*
X15073436Y-11257733D01*
X15083782Y-11273217D01*
X15090909Y-11290423D01*
X15094542Y-11308688D01*
X15094542Y-11327312D01*
X15090909Y-11345577D01*
X15083782Y-11362783D01*
X15073436Y-11378267D01*
X15060267Y-11391436D01*
X15044783Y-11401782D01*
X15027577Y-11408909D01*
X15009312Y-11412542D01*
X14990688Y-11412542D01*
X14972423Y-11408909D01*
X14955217Y-11401782D01*
X14939733Y-11391436D01*
X14926564Y-11378267D01*
X14916217Y-11362783D01*
X14909091Y-11345577D01*
X14905457Y-11327312D01*
X14905457Y-11308688D01*
X14909091Y-11290423D01*
X14916217Y-11273217D01*
X14926564Y-11257733D01*
X14939733Y-11244564D01*
X14955217Y-11234217D01*
X14972423Y-11227091D01*
X14990688Y-11223457D01*
X15009312Y-11223457D01*
X15027577Y-11227091D01*
G37*
G36*
X19027577Y-11227091D02*
G01*
X19044783Y-11234217D01*
X19060267Y-11244564D01*
X19073436Y-11257733D01*
X19083783Y-11273217D01*
X19090909Y-11290423D01*
X19094543Y-11308688D01*
X19094543Y-11327312D01*
X19090909Y-11345577D01*
X19083783Y-11362783D01*
X19073436Y-11378267D01*
X19060267Y-11391436D01*
X19044783Y-11401782D01*
X19027577Y-11408909D01*
X19009312Y-11412542D01*
X18990688Y-11412542D01*
X18972423Y-11408909D01*
X18955217Y-11401782D01*
X18939733Y-11391436D01*
X18926564Y-11378267D01*
X18916218Y-11362783D01*
X18909091Y-11345577D01*
X18905458Y-11327312D01*
X18905458Y-11308688D01*
X18909091Y-11290423D01*
X18916218Y-11273217D01*
X18926564Y-11257733D01*
X18939733Y-11244564D01*
X18955217Y-11234217D01*
X18972423Y-11227091D01*
X18990688Y-11223457D01*
X19009312Y-11223457D01*
X19027577Y-11227091D01*
G37*
G36*
X19527577Y-11227091D02*
G01*
X19544783Y-11234217D01*
X19560267Y-11244564D01*
X19573436Y-11257733D01*
X19583783Y-11273217D01*
X19590909Y-11290423D01*
X19594543Y-11308688D01*
X19594543Y-11327312D01*
X19590909Y-11345577D01*
X19583783Y-11362783D01*
X19573436Y-11378267D01*
X19560267Y-11391436D01*
X19544783Y-11401782D01*
X19527577Y-11408909D01*
X19509312Y-11412542D01*
X19490688Y-11412542D01*
X19472423Y-11408909D01*
X19455217Y-11401782D01*
X19439733Y-11391436D01*
X19426564Y-11378267D01*
X19416218Y-11362783D01*
X19409091Y-11345577D01*
X19405458Y-11327312D01*
X19405458Y-11308688D01*
X19409091Y-11290423D01*
X19416218Y-11273217D01*
X19426564Y-11257733D01*
X19439733Y-11244564D01*
X19455217Y-11234217D01*
X19472423Y-11227091D01*
X19490688Y-11223457D01*
X19509312Y-11223457D01*
X19527577Y-11227091D01*
G37*
G36*
X23527577Y-11227091D02*
G01*
X23544783Y-11234217D01*
X23560267Y-11244564D01*
X23573436Y-11257733D01*
X23583782Y-11273217D01*
X23590909Y-11290423D01*
X23594542Y-11308688D01*
X23594542Y-11327312D01*
X23590909Y-11345577D01*
X23583782Y-11362783D01*
X23573436Y-11378267D01*
X23560267Y-11391436D01*
X23544783Y-11401782D01*
X23527577Y-11408909D01*
X23509312Y-11412542D01*
X23490688Y-11412542D01*
X23472423Y-11408909D01*
X23455217Y-11401782D01*
X23439733Y-11391436D01*
X23426564Y-11378267D01*
X23416217Y-11362783D01*
X23409091Y-11345577D01*
X23405457Y-11327312D01*
X23405457Y-11308688D01*
X23409091Y-11290423D01*
X23416217Y-11273217D01*
X23426564Y-11257733D01*
X23439733Y-11244564D01*
X23455217Y-11234217D01*
X23472423Y-11227091D01*
X23490688Y-11223457D01*
X23509312Y-11223457D01*
X23527577Y-11227091D01*
G37*
G36*
X6027577Y-10973091D02*
G01*
X6044783Y-10980218D01*
X6060267Y-10990564D01*
X6073436Y-11003733D01*
X6083782Y-11019217D01*
X6090909Y-11036423D01*
X6094542Y-11054688D01*
X6094542Y-11073312D01*
X6090909Y-11091577D01*
X6083782Y-11108783D01*
X6073436Y-11124267D01*
X6060267Y-11137436D01*
X6044783Y-11147783D01*
X6027577Y-11154909D01*
X6009312Y-11158543D01*
X5990688Y-11158543D01*
X5972423Y-11154909D01*
X5955217Y-11147783D01*
X5939733Y-11137436D01*
X5926564Y-11124267D01*
X5916217Y-11108783D01*
X5909091Y-11091577D01*
X5905457Y-11073312D01*
X5905457Y-11054688D01*
X5909091Y-11036423D01*
X5916217Y-11019217D01*
X5926564Y-11003733D01*
X5939733Y-10990564D01*
X5955217Y-10980218D01*
X5972423Y-10973091D01*
X5990688Y-10969458D01*
X6009312Y-10969458D01*
X6027577Y-10973091D01*
G37*
G36*
X10027577Y-10973091D02*
G01*
X10044783Y-10980218D01*
X10060267Y-10990564D01*
X10073436Y-11003733D01*
X10083783Y-11019217D01*
X10090909Y-11036423D01*
X10094543Y-11054688D01*
X10094543Y-11073312D01*
X10090909Y-11091577D01*
X10083783Y-11108783D01*
X10073436Y-11124267D01*
X10060267Y-11137436D01*
X10044783Y-11147783D01*
X10027577Y-11154909D01*
X10009312Y-11158543D01*
X9990688Y-11158543D01*
X9972423Y-11154909D01*
X9955217Y-11147783D01*
X9939733Y-11137436D01*
X9926564Y-11124267D01*
X9916218Y-11108783D01*
X9909091Y-11091577D01*
X9905458Y-11073312D01*
X9905458Y-11054688D01*
X9909091Y-11036423D01*
X9916218Y-11019217D01*
X9926564Y-11003733D01*
X9939733Y-10990564D01*
X9955217Y-10980218D01*
X9972423Y-10973091D01*
X9990688Y-10969458D01*
X10009312Y-10969458D01*
X10027577Y-10973091D01*
G37*
G36*
X10527577Y-10973091D02*
G01*
X10544783Y-10980218D01*
X10560267Y-10990564D01*
X10573436Y-11003733D01*
X10583783Y-11019217D01*
X10590909Y-11036423D01*
X10594543Y-11054688D01*
X10594543Y-11073312D01*
X10590909Y-11091577D01*
X10583783Y-11108783D01*
X10573436Y-11124267D01*
X10560267Y-11137436D01*
X10544783Y-11147783D01*
X10527577Y-11154909D01*
X10509312Y-11158543D01*
X10490688Y-11158543D01*
X10472423Y-11154909D01*
X10455217Y-11147783D01*
X10439733Y-11137436D01*
X10426564Y-11124267D01*
X10416218Y-11108783D01*
X10409091Y-11091577D01*
X10405458Y-11073312D01*
X10405458Y-11054688D01*
X10409091Y-11036423D01*
X10416218Y-11019217D01*
X10426564Y-11003733D01*
X10439733Y-10990564D01*
X10455217Y-10980218D01*
X10472423Y-10973091D01*
X10490688Y-10969458D01*
X10509312Y-10969458D01*
X10527577Y-10973091D01*
G37*
G36*
X14527577Y-10973091D02*
G01*
X14544783Y-10980218D01*
X14560267Y-10990564D01*
X14573436Y-11003733D01*
X14583782Y-11019217D01*
X14590909Y-11036423D01*
X14594542Y-11054688D01*
X14594542Y-11073312D01*
X14590909Y-11091577D01*
X14583782Y-11108783D01*
X14573436Y-11124267D01*
X14560267Y-11137436D01*
X14544783Y-11147783D01*
X14527577Y-11154909D01*
X14509312Y-11158543D01*
X14490688Y-11158543D01*
X14472423Y-11154909D01*
X14455217Y-11147783D01*
X14439733Y-11137436D01*
X14426564Y-11124267D01*
X14416217Y-11108783D01*
X14409091Y-11091577D01*
X14405457Y-11073312D01*
X14405457Y-11054688D01*
X14409091Y-11036423D01*
X14416217Y-11019217D01*
X14426564Y-11003733D01*
X14439733Y-10990564D01*
X14455217Y-10980218D01*
X14472423Y-10973091D01*
X14490688Y-10969458D01*
X14509312Y-10969458D01*
X14527577Y-10973091D01*
G37*
G36*
X15027577Y-10973091D02*
G01*
X15044783Y-10980218D01*
X15060267Y-10990564D01*
X15073436Y-11003733D01*
X15083782Y-11019217D01*
X15090909Y-11036423D01*
X15094542Y-11054688D01*
X15094542Y-11073312D01*
X15090909Y-11091577D01*
X15083782Y-11108783D01*
X15073436Y-11124267D01*
X15060267Y-11137436D01*
X15044783Y-11147783D01*
X15027577Y-11154909D01*
X15009312Y-11158543D01*
X14990688Y-11158543D01*
X14972423Y-11154909D01*
X14955217Y-11147783D01*
X14939733Y-11137436D01*
X14926564Y-11124267D01*
X14916217Y-11108783D01*
X14909091Y-11091577D01*
X14905457Y-11073312D01*
X14905457Y-11054688D01*
X14909091Y-11036423D01*
X14916217Y-11019217D01*
X14926564Y-11003733D01*
X14939733Y-10990564D01*
X14955217Y-10980218D01*
X14972423Y-10973091D01*
X14990688Y-10969458D01*
X15009312Y-10969458D01*
X15027577Y-10973091D01*
G37*
G36*
X19027577Y-10973091D02*
G01*
X19044783Y-10980218D01*
X19060267Y-10990564D01*
X19073436Y-11003733D01*
X19083783Y-11019217D01*
X19090909Y-11036423D01*
X19094543Y-11054688D01*
X19094543Y-11073312D01*
X19090909Y-11091577D01*
X19083783Y-11108783D01*
X19073436Y-11124267D01*
X19060267Y-11137436D01*
X19044783Y-11147783D01*
X19027577Y-11154909D01*
X19009312Y-11158543D01*
X18990688Y-11158543D01*
X18972423Y-11154909D01*
X18955217Y-11147783D01*
X18939733Y-11137436D01*
X18926564Y-11124267D01*
X18916218Y-11108783D01*
X18909091Y-11091577D01*
X18905458Y-11073312D01*
X18905458Y-11054688D01*
X18909091Y-11036423D01*
X18916218Y-11019217D01*
X18926564Y-11003733D01*
X18939733Y-10990564D01*
X18955217Y-10980218D01*
X18972423Y-10973091D01*
X18990688Y-10969458D01*
X19009312Y-10969458D01*
X19027577Y-10973091D01*
G37*
G36*
X19527577Y-10973091D02*
G01*
X19544783Y-10980218D01*
X19560267Y-10990564D01*
X19573436Y-11003733D01*
X19583783Y-11019217D01*
X19590909Y-11036423D01*
X19594543Y-11054688D01*
X19594543Y-11073312D01*
X19590909Y-11091577D01*
X19583783Y-11108783D01*
X19573436Y-11124267D01*
X19560267Y-11137436D01*
X19544783Y-11147783D01*
X19527577Y-11154909D01*
X19509312Y-11158543D01*
X19490688Y-11158543D01*
X19472423Y-11154909D01*
X19455217Y-11147783D01*
X19439733Y-11137436D01*
X19426564Y-11124267D01*
X19416218Y-11108783D01*
X19409091Y-11091577D01*
X19405458Y-11073312D01*
X19405458Y-11054688D01*
X19409091Y-11036423D01*
X19416218Y-11019217D01*
X19426564Y-11003733D01*
X19439733Y-10990564D01*
X19455217Y-10980218D01*
X19472423Y-10973091D01*
X19490688Y-10969458D01*
X19509312Y-10969458D01*
X19527577Y-10973091D01*
G37*
G36*
X23527577Y-10973091D02*
G01*
X23544783Y-10980218D01*
X23560267Y-10990564D01*
X23573436Y-11003733D01*
X23583782Y-11019217D01*
X23590909Y-11036423D01*
X23594542Y-11054688D01*
X23594542Y-11073312D01*
X23590909Y-11091577D01*
X23583782Y-11108783D01*
X23573436Y-11124267D01*
X23560267Y-11137436D01*
X23544783Y-11147783D01*
X23527577Y-11154909D01*
X23509312Y-11158543D01*
X23490688Y-11158543D01*
X23472423Y-11154909D01*
X23455217Y-11147783D01*
X23439733Y-11137436D01*
X23426564Y-11124267D01*
X23416217Y-11108783D01*
X23409091Y-11091577D01*
X23405457Y-11073312D01*
X23405457Y-11054688D01*
X23409091Y-11036423D01*
X23416217Y-11019217D01*
X23426564Y-11003733D01*
X23439733Y-10990564D01*
X23455217Y-10980218D01*
X23472423Y-10973091D01*
X23490688Y-10969458D01*
X23509312Y-10969458D01*
X23527577Y-10973091D01*
G37*
G36*
X5386092Y-9568555D02*
G01*
X5409466Y-9574818D01*
X5431823Y-9584079D01*
X5452781Y-9596178D01*
X5471979Y-9610910D01*
X5489090Y-9628021D01*
X5503822Y-9647220D01*
X5515922Y-9668177D01*
X5525182Y-9690534D01*
X5531445Y-9713908D01*
X5534604Y-9737900D01*
X5534604Y-9762100D01*
X5531445Y-9786092D01*
X5525182Y-9809466D01*
X5515922Y-9831823D01*
X5503822Y-9852781D01*
X5489090Y-9871979D01*
X5471979Y-9889090D01*
X5452781Y-9903822D01*
X5431823Y-9915922D01*
X5409466Y-9925182D01*
X5386092Y-9931445D01*
X5362100Y-9934604D01*
X5337900Y-9934604D01*
X5313908Y-9931445D01*
X5290534Y-9925182D01*
X5268177Y-9915922D01*
X5247220Y-9903822D01*
X5228021Y-9889090D01*
X5210910Y-9871979D01*
X5196178Y-9852781D01*
X5184079Y-9831823D01*
X5174818Y-9809466D01*
X5168555Y-9786092D01*
X5165396Y-9762100D01*
X5165396Y-9737900D01*
X5168555Y-9713908D01*
X5174818Y-9690534D01*
X5184079Y-9668177D01*
X5196178Y-9647220D01*
X5210910Y-9628021D01*
X5228021Y-9610910D01*
X5247220Y-9596178D01*
X5268177Y-9584079D01*
X5290534Y-9574818D01*
X5313908Y-9568555D01*
X5337900Y-9565396D01*
X5362100Y-9565396D01*
X5386092Y-9568555D01*
G37*
G36*
X24186092Y-9568555D02*
G01*
X24209466Y-9574818D01*
X24231823Y-9584079D01*
X24252780Y-9596178D01*
X24271979Y-9610910D01*
X24289090Y-9628021D01*
X24303822Y-9647220D01*
X24315921Y-9668177D01*
X24325182Y-9690534D01*
X24331445Y-9713908D01*
X24334604Y-9737900D01*
X24334604Y-9762100D01*
X24331445Y-9786092D01*
X24325182Y-9809466D01*
X24315921Y-9831823D01*
X24303822Y-9852781D01*
X24289090Y-9871979D01*
X24271979Y-9889090D01*
X24252780Y-9903822D01*
X24231823Y-9915922D01*
X24209466Y-9925182D01*
X24186092Y-9931445D01*
X24162100Y-9934604D01*
X24137900Y-9934604D01*
X24113908Y-9931445D01*
X24090534Y-9925182D01*
X24068177Y-9915922D01*
X24047219Y-9903822D01*
X24028021Y-9889090D01*
X24010910Y-9871979D01*
X23996178Y-9852781D01*
X23984078Y-9831823D01*
X23974818Y-9809466D01*
X23968555Y-9786092D01*
X23965396Y-9762100D01*
X23965396Y-9737900D01*
X23968555Y-9713908D01*
X23974818Y-9690534D01*
X23984078Y-9668177D01*
X23996178Y-9647220D01*
X24010910Y-9628021D01*
X24028021Y-9610910D01*
X24047219Y-9596178D01*
X24068177Y-9584079D01*
X24090534Y-9574818D01*
X24113908Y-9568555D01*
X24137900Y-9565396D01*
X24162100Y-9565396D01*
X24186092Y-9568555D01*
G37*
G36*
X6892577Y-9613861D02*
G01*
X6895821Y-9616029D01*
X6897989Y-9619273D01*
X6898750Y-9623100D01*
X6898750Y-9818100D01*
X6897989Y-9821927D01*
X6895821Y-9825171D01*
X6892577Y-9827339D01*
X6888750Y-9828100D01*
X6693750Y-9828100D01*
X6689923Y-9827339D01*
X6686679Y-9825171D01*
X6684511Y-9821927D01*
X6683750Y-9818100D01*
X6683750Y-9623100D01*
X6684511Y-9619273D01*
X6686679Y-9616029D01*
X6689923Y-9613861D01*
X6693750Y-9613100D01*
X6888750Y-9613100D01*
X6892577Y-9613861D01*
G37*
G36*
X6308345Y-9616070D02*
G01*
X6324388Y-9621283D01*
X6339419Y-9628941D01*
X6353066Y-9638856D01*
X6364994Y-9650784D01*
X6374909Y-9664431D01*
X6382567Y-9679462D01*
X6387780Y-9695505D01*
X6390419Y-9712166D01*
X6390419Y-9729034D01*
X6387780Y-9745695D01*
X6382567Y-9761739D01*
X6374909Y-9776769D01*
X6364994Y-9790416D01*
X6353066Y-9802344D01*
X6339419Y-9812259D01*
X6324388Y-9819917D01*
X6308345Y-9825130D01*
X6291684Y-9827769D01*
X6274816Y-9827769D01*
X6258155Y-9825130D01*
X6242111Y-9819917D01*
X6227081Y-9812259D01*
X6213434Y-9802344D01*
X6201506Y-9790416D01*
X6191591Y-9776769D01*
X6183933Y-9761739D01*
X6178720Y-9745695D01*
X6176081Y-9729034D01*
X6176081Y-9712166D01*
X6178720Y-9695505D01*
X6183933Y-9679462D01*
X6191591Y-9664431D01*
X6201506Y-9650784D01*
X6213434Y-9638856D01*
X6227081Y-9628941D01*
X6242111Y-9621283D01*
X6258155Y-9616070D01*
X6274816Y-9613431D01*
X6291684Y-9613431D01*
X6308345Y-9616070D01*
G37*
G36*
X17663548Y-9178083D02*
G01*
X17678240Y-9184169D01*
X17691462Y-9193003D01*
X17702707Y-9204248D01*
X17711542Y-9217470D01*
X17717627Y-9232162D01*
X17720729Y-9247759D01*
X17721120Y-9255710D01*
X17721120Y-9324290D01*
X17720729Y-9332241D01*
X17717627Y-9347838D01*
X17711542Y-9362530D01*
X17702707Y-9375752D01*
X17691462Y-9386997D01*
X17678240Y-9395832D01*
X17663548Y-9401917D01*
X17647951Y-9405019D01*
X17632049Y-9405019D01*
X17616452Y-9401917D01*
X17601760Y-9395832D01*
X17588538Y-9386997D01*
X17577293Y-9375752D01*
X17568459Y-9362530D01*
X17562373Y-9347838D01*
X17559271Y-9332241D01*
X17558880Y-9324290D01*
X17558880Y-9255710D01*
X17559271Y-9247759D01*
X17562373Y-9232162D01*
X17568459Y-9217470D01*
X17577293Y-9204248D01*
X17588538Y-9193003D01*
X17601760Y-9184169D01*
X17616452Y-9178083D01*
X17632049Y-9174981D01*
X17647951Y-9174981D01*
X17663548Y-9178083D01*
G37*
G36*
X18453548Y-9178083D02*
G01*
X18468240Y-9184169D01*
X18481462Y-9193003D01*
X18492707Y-9204248D01*
X18501542Y-9217470D01*
X18507627Y-9232162D01*
X18510729Y-9247759D01*
X18511120Y-9255710D01*
X18511120Y-9324290D01*
X18510729Y-9332241D01*
X18507627Y-9347838D01*
X18501542Y-9362530D01*
X18492707Y-9375752D01*
X18481462Y-9386997D01*
X18468240Y-9395832D01*
X18453548Y-9401917D01*
X18437951Y-9405019D01*
X18422049Y-9405019D01*
X18406452Y-9401917D01*
X18391760Y-9395832D01*
X18378538Y-9386997D01*
X18367293Y-9375752D01*
X18358459Y-9362530D01*
X18352373Y-9347838D01*
X18349271Y-9332241D01*
X18348880Y-9324290D01*
X18348880Y-9255710D01*
X18349271Y-9247759D01*
X18352373Y-9232162D01*
X18358459Y-9217470D01*
X18367293Y-9204248D01*
X18378538Y-9193003D01*
X18391760Y-9184169D01*
X18406452Y-9178083D01*
X18422049Y-9174981D01*
X18437951Y-9174981D01*
X18453548Y-9178083D01*
G37*
M02*
