%TF.GenerationSoftware,KiCad,Pcbnew,9.0.6*%
%TF.CreationDate,2026-07-12T08:03:14+08:00*%
%TF.ProjectId,MQTT-ModularControllerBoard,4d515454-2d4d-46f6-9475-6c6172436f6e,1.0*%
%TF.SameCoordinates,Original*%
%TF.FileFunction,Paste,Top*%
%TF.FilePolarity,Positive*%
%FSLAX45Y45*%
G04 Gerber Fmt 4.5, Leading zero omitted, Abs format (unit mm)*
G04 Created by KiCad (PCBNEW 9.0.6) date 2026-07-12 08:03:14*
%MOMM*%
%LPD*%
G01*
G04 APERTURE LIST*
%ADD10R,0.940000X0.830000*%
%ADD11R,1.390000X0.910000*%
%ADD12R,1.750000X1.000000*%
%ADD13R,0.830000X0.940000*%
%ADD14R,1.000000X1.450000*%
%ADD15R,1.220000X1.120000*%
%ADD16R,1.820000X1.050000*%
%ADD17R,1.450000X1.000000*%
%ADD18R,3.000000X1.600000*%
%ADD19R,6.200000X5.800000*%
%ADD20R,0.750000X0.750000*%
%ADD21R,1.050000X1.820000*%
%ADD22R,0.600000X1.200000*%
%ADD23R,1.200000X0.600000*%
%ADD24R,1.600000X3.000000*%
%ADD25R,5.800000X6.200000*%
%ADD26R,0.457200X1.371600*%
%ADD27R,1.422400X1.549400*%
%ADD28R,0.889000X1.905000*%
%ADD29R,0.910000X1.390000*%
%ADD30R,0.900000X1.500000*%
%ADD31R,1.500000X0.900000*%
%ADD32R,0.900000X0.900000*%
%ADD33R,1.250000X0.600000*%
%ADD34R,3.400000X0.980000*%
%ADD35R,2.000000X1.350000*%
%ADD36R,1.041400X3.505200*%
%ADD37R,10.718800X12.065000*%
%ADD38R,0.950000X0.875000*%
G04 APERTURE END LIST*
D10*
%TO.C,C205*%
X23400000Y-9646000D03*
X23400000Y-9514000D03*
%TD*%
D11*
%TO.C,C405*%
X11555400Y-11355600D03*
X11555400Y-11191600D03*
%TD*%
%TO.C,C406*%
X12792000Y-11025500D03*
X12792000Y-10861500D03*
%TD*%
D12*
%TO.C,R402*%
X13055400Y-12503600D03*
X13055400Y-12203600D03*
%TD*%
D13*
%TO.C,C408*%
X16186000Y-12320000D03*
X16054000Y-12320000D03*
%TD*%
D14*
%TO.C,R604*%
X18075000Y-11350000D03*
X18265000Y-11350000D03*
%TD*%
D15*
%TO.C,D301*%
X7050000Y-10492600D03*
X7350000Y-10492600D03*
%TD*%
D11*
%TO.C,C201*%
X20040000Y-9578000D03*
X20040000Y-9742000D03*
%TD*%
D16*
%TO.C,C401*%
X11645800Y-12535600D03*
X11645800Y-12257600D03*
%TD*%
D17*
%TO.C,R208*%
X20986000Y-11152500D03*
X20986000Y-10962500D03*
%TD*%
D18*
%TO.C,Q401*%
X12872000Y-10076500D03*
D19*
X13590000Y-10305000D03*
D18*
X12872000Y-10533500D03*
%TD*%
D20*
%TO.C,D601*%
X17680000Y-10377530D03*
X17680000Y-10157530D03*
%TD*%
D14*
%TO.C,R603*%
X17885000Y-11060000D03*
X18075000Y-11060000D03*
%TD*%
D21*
%TO.C,C303*%
X8500000Y-11450000D03*
X8222000Y-11450000D03*
%TD*%
D10*
%TO.C,C208*%
X20070000Y-12149000D03*
X20070000Y-12281000D03*
%TD*%
D17*
%TO.C,R404*%
X15650000Y-11975000D03*
X15650000Y-12165000D03*
%TD*%
%TO.C,R204*%
X21850000Y-9540000D03*
X21850000Y-9350000D03*
%TD*%
D10*
%TO.C,C203*%
X19860000Y-9736000D03*
X19860000Y-9604000D03*
%TD*%
D21*
%TO.C,C306*%
X8499000Y-12170000D03*
X8221000Y-12170000D03*
%TD*%
D22*
%TO.C,U601*%
X18097366Y-9832366D03*
X18002366Y-9832366D03*
X17907366Y-9832366D03*
X17907366Y-10082366D03*
X18002366Y-10082366D03*
X18097366Y-10082366D03*
%TD*%
D23*
%TO.C,IC301*%
X6848500Y-11155000D03*
X6848500Y-11250000D03*
X6848500Y-11345000D03*
X7098500Y-11345000D03*
X7098500Y-11250000D03*
X7098500Y-11155000D03*
%TD*%
D21*
%TO.C,C202*%
X22357000Y-10960000D03*
X22635000Y-10960000D03*
%TD*%
D22*
%TO.C,IC402*%
X12998400Y-11110000D03*
X13093400Y-11110000D03*
X13188400Y-11110000D03*
X13188400Y-10860000D03*
X13093400Y-10860000D03*
X12998400Y-10860000D03*
%TD*%
D14*
%TO.C,R201*%
X20395000Y-9940000D03*
X20205000Y-9940000D03*
%TD*%
D24*
%TO.C,Q301*%
X7928500Y-11042600D03*
D25*
X7700000Y-11760600D03*
D24*
X7471500Y-11042600D03*
%TD*%
D26*
%TO.C,J602*%
X17905000Y-9556420D03*
X17970000Y-9556420D03*
X18035000Y-9556420D03*
X18100000Y-9556420D03*
X18165000Y-9556420D03*
D27*
X18281250Y-9547530D03*
D28*
X18153750Y-9290000D03*
X17916250Y-9290000D03*
D27*
X17788750Y-9547530D03*
%TD*%
D13*
%TO.C,C204*%
X22350000Y-11160000D03*
X22482000Y-11160000D03*
%TD*%
D10*
%TO.C,C410*%
X13357000Y-11006000D03*
X13357000Y-10874000D03*
%TD*%
D14*
%TO.C,R212*%
X20425000Y-12390000D03*
X20235000Y-12390000D03*
%TD*%
D17*
%TO.C,R206*%
X21430000Y-9540000D03*
X21430000Y-9350000D03*
%TD*%
D15*
%TO.C,D302*%
X7850000Y-10492600D03*
X7550000Y-10492600D03*
%TD*%
D29*
%TO.C,C309*%
X7055500Y-10950000D03*
X6891500Y-10950000D03*
%TD*%
D17*
%TO.C,R403*%
X13305400Y-12308600D03*
X13305400Y-12498600D03*
%TD*%
%TO.C,R401*%
X16860000Y-11955000D03*
X16860000Y-12145000D03*
%TD*%
D30*
%TO.C,U201*%
X22472000Y-11355000D03*
X22345000Y-11355000D03*
X22218000Y-11355000D03*
X22091000Y-11355000D03*
X21964000Y-11355000D03*
X21837000Y-11355000D03*
X21710000Y-11355000D03*
X21583000Y-11355000D03*
X21456000Y-11355000D03*
X21329000Y-11355000D03*
X21202000Y-11355000D03*
X21075000Y-11355000D03*
X20948000Y-11355000D03*
X20821000Y-11355000D03*
D31*
X20696000Y-11531500D03*
X20696000Y-11658500D03*
X20696000Y-11785500D03*
X20696000Y-11912500D03*
X20696000Y-12039500D03*
X20696000Y-12166500D03*
X20696000Y-12293500D03*
X20696000Y-12420500D03*
X20696000Y-12547500D03*
X20696000Y-12674500D03*
X20696000Y-12801500D03*
X20696000Y-12928500D03*
D30*
X20821000Y-13105000D03*
X20948000Y-13105000D03*
X21075000Y-13105000D03*
X21202000Y-13105000D03*
X21329000Y-13105000D03*
X21456000Y-13105000D03*
X21583000Y-13105000D03*
X21710000Y-13105000D03*
X21837000Y-13105000D03*
X21964000Y-13105000D03*
X22091000Y-13105000D03*
X22218000Y-13105000D03*
X22345000Y-13105000D03*
X22472000Y-13105000D03*
D32*
X21840000Y-11940000D03*
X21700000Y-11940000D03*
X21560000Y-11940000D03*
X21840000Y-12080000D03*
X21700000Y-12080000D03*
X21560000Y-12080000D03*
X21840000Y-12220000D03*
X21700000Y-12220000D03*
X21560000Y-12220000D03*
%TD*%
D16*
%TO.C,C411*%
X13550000Y-11139000D03*
X13550000Y-10861000D03*
%TD*%
D14*
%TO.C,R213*%
X20425000Y-12170000D03*
X20235000Y-12170000D03*
%TD*%
D17*
%TO.C,R202*%
X22920000Y-12285000D03*
X22920000Y-12475000D03*
%TD*%
D33*
%TO.C,IC401*%
X12289800Y-12301600D03*
X12289800Y-12396600D03*
X12289800Y-12491600D03*
X12539800Y-12491600D03*
X12539800Y-12396600D03*
X12539800Y-12301600D03*
%TD*%
D21*
%TO.C,C307*%
X6845500Y-11950000D03*
X7123500Y-11950000D03*
%TD*%
D14*
%TO.C,R210*%
X23055000Y-10760000D03*
X22865000Y-10760000D03*
%TD*%
%TO.C,R211*%
X20425000Y-11930000D03*
X20235000Y-11930000D03*
%TD*%
D21*
%TO.C,C304*%
X8500000Y-11700000D03*
X8222000Y-11700000D03*
%TD*%
D13*
%TO.C,C206*%
X20567000Y-10797500D03*
X20699000Y-10797500D03*
%TD*%
D34*
%TO.C,L401*%
X12160000Y-11358500D03*
X12160000Y-11121500D03*
%TD*%
D17*
%TO.C,R207*%
X20786000Y-11152500D03*
X20786000Y-10962500D03*
%TD*%
D14*
%TO.C,R209*%
X23055000Y-10970000D03*
X22865000Y-10970000D03*
%TD*%
D17*
%TO.C,R203*%
X22060000Y-9540000D03*
X22060000Y-9350000D03*
%TD*%
D16*
%TO.C,C402*%
X11895800Y-12535600D03*
X11895800Y-12257600D03*
%TD*%
%TO.C,C404*%
X16420000Y-12331000D03*
X16420000Y-12609000D03*
%TD*%
D13*
%TO.C,C207*%
X21199000Y-10797500D03*
X21067000Y-10797500D03*
%TD*%
D35*
%TO.C,S201*%
X19620000Y-9767500D03*
X19620000Y-9352500D03*
%TD*%
D21*
%TO.C,C302*%
X6845500Y-11700000D03*
X7123500Y-11700000D03*
%TD*%
D10*
%TO.C,C403*%
X12745400Y-11999600D03*
X12745400Y-11867600D03*
%TD*%
D35*
%TO.C,S202*%
X23160000Y-9797500D03*
X23160000Y-9382500D03*
%TD*%
D36*
%TO.C,U401*%
X15869640Y-12030110D03*
X16039820Y-12030110D03*
X16210000Y-12030110D03*
X16380180Y-12030110D03*
X16550360Y-12030110D03*
D37*
X16210000Y-11150000D03*
%TD*%
D13*
%TO.C,C308*%
X7039500Y-10750000D03*
X6907500Y-10750000D03*
%TD*%
%TO.C,C301*%
X7007500Y-11500000D03*
X7139500Y-11500000D03*
%TD*%
D11*
%TO.C,C407*%
X11355400Y-11355600D03*
X11355400Y-11191600D03*
%TD*%
D21*
%TO.C,C305*%
X8500000Y-11950000D03*
X8222000Y-11950000D03*
%TD*%
D17*
%TO.C,R205*%
X21640000Y-9540000D03*
X21640000Y-9350000D03*
%TD*%
D38*
%TO.C,D401*%
X16970000Y-10841250D03*
X16970000Y-10998750D03*
%TD*%
D21*
%TO.C,C409*%
X16213000Y-12610000D03*
X15935000Y-12610000D03*
%TD*%
M02*
