%TF.GenerationSoftware,KiCad,Pcbnew,9.0.6*%
%TF.CreationDate,2026-07-12T08:03:15+08:00*%
%TF.ProjectId,MQTT-ModularControllerBoard,4d515454-2d4d-46f6-9475-6c6172436f6e,1.0*%
%TF.SameCoordinates,Original*%
%TF.FileFunction,Profile,NP*%
%FSLAX45Y45*%
G04 Gerber Fmt 4.5, Leading zero omitted, Abs format (unit mm)*
G04 Created by KiCad (PCBNEW 9.0.6) date 2026-07-12 08:03:15*
%MOMM*%
%LPD*%
G01*
G04 APERTURE LIST*
%TA.AperFunction,Profile*%
%ADD10C,0.050000*%
%TD*%
G04 APERTURE END LIST*
D10*
X24750000Y-9750000D02*
X24750000Y-13050000D01*
X17890000Y-9150000D02*
X17840000Y-9200000D01*
X18320000Y-9199555D02*
X18320000Y-9309555D01*
X18370000Y-9149555D02*
X18320000Y-9199555D01*
X18230000Y-9200000D02*
X18230000Y-9309555D01*
X24750000Y-13050000D02*
G75*
G02*
X24150000Y-13650000I-600000J0D01*
G01*
X4750000Y-9750000D02*
G75*
G02*
X5350000Y-9150000I600000J0D01*
G01*
X18320000Y-9309555D02*
G75*
G02*
X18275000Y-9354560I-45000J-5D01*
G01*
X18180000Y-9150000D02*
X17890000Y-9150000D01*
X18370000Y-9149555D02*
X24150000Y-9150000D01*
X17750000Y-9200445D02*
X17750000Y-9310000D01*
X5350000Y-13650000D02*
G75*
G02*
X4750000Y-13050000I0J600000D01*
G01*
X17700468Y-9150508D02*
X5350000Y-9150000D01*
X18275000Y-9354555D02*
G75*
G02*
X18230005Y-9309555I0J44995D01*
G01*
X24150000Y-9150000D02*
G75*
G02*
X24750000Y-9750000I0J-600000D01*
G01*
X17795000Y-9355000D02*
G75*
G02*
X17750000Y-9310000I0J45000D01*
G01*
X18180000Y-9150000D02*
X18230000Y-9200000D01*
X17750000Y-9200445D02*
X17700000Y-9150445D01*
X17840000Y-9200000D02*
X17840000Y-9310000D01*
X17840000Y-9310000D02*
G75*
G02*
X17795000Y-9355000I-45000J0D01*
G01*
X4750000Y-9750000D02*
X4750000Y-13050000D01*
X24150000Y-13650000D02*
X5350000Y-13650000D01*
M02*
